<svg width="24" height="32" viewBox="0 0 24 32" fill="none" xmlns="http://www.w3.org/2000/svg">
<path d="M13.3126 30C13.3126 30.3481 13.1743 30.6819 12.9281 30.9281C12.682 31.1742 12.3482 31.3125 12.0001 31.3125C11.652 31.3125 11.3181 31.1742 11.072 30.9281C10.8258 30.6819 10.6876 30.3481 10.6876 30V13.8125H1.50007C1.24065 13.8123 0.987113 13.7352 0.771485 13.5909C0.555858 13.4467 0.38781 13.2418 0.288565 13.0021C0.18932 12.7624 0.16333 12.4987 0.213878 12.2443C0.264425 11.9898 0.389243 11.7561 0.572567 11.5725L11.0726 1.0725C11.3187 0.826717 11.6523 0.68866 12.0001 0.68866C12.3479 0.68866 12.6815 0.826717 12.9276 1.0725L23.4276 11.5725C23.6109 11.7561 23.7357 11.9898 23.7863 12.2443C23.8368 12.4987 23.8108 12.7624 23.7116 13.0021C23.6123 13.2418 23.4443 13.4467 23.2286 13.5909C23.013 13.7352 22.7595 13.8123 22.5001 13.8125H13.3126V30Z" fill="white"/>
</svg>
