<svg width="76" height="76" viewBox="0 0 76 76" fill="none" xmlns="http://www.w3.org/2000/svg">
<path d="M41.1667 28.4997H58.5834L41.1667 11.083V28.4997ZM19.0001 6.33301H44.3334L63.3334 25.333V63.333C63.3334 65.0127 62.6662 66.6236 61.4784 67.8113C60.2907 68.9991 58.6798 69.6663 57.0001 69.6663H19.0001C17.3204 69.6663 15.7095 68.9991 14.5217 67.8113C13.334 66.6236 12.6667 65.0127 12.6667 63.333V12.6663C12.6667 10.9866 13.334 9.37573 14.5217 8.188C15.7095 7.00027 17.3204 6.33301 19.0001 6.33301ZM34.6117 39.393C35.9101 42.243 37.5567 44.5863 39.4567 46.2013L40.7551 47.2147C38.0001 47.7213 34.2001 48.608 30.1784 50.1597L29.8301 50.2863L31.4134 46.993C32.8384 44.238 33.8834 41.7363 34.6117 39.393ZM55.1317 51.458C55.7017 50.888 55.9868 50.1597 56.0184 49.368C56.1134 48.7347 55.9551 48.133 55.6384 47.6263C54.7201 46.138 52.3451 45.4413 48.4184 45.4413L44.3334 45.663L41.5784 43.8263C39.5834 42.1797 37.7784 39.298 36.5117 35.7197L36.6384 35.2763C37.6834 31.0647 38.6651 25.9663 36.5751 23.8763C36.3194 23.6281 36.0171 23.4331 35.6855 23.3026C35.3539 23.1722 34.9997 23.1089 34.6434 23.1163H33.8834C32.7117 23.1163 31.6667 24.3513 31.3817 25.5547C30.2101 29.7663 30.9067 32.078 32.0784 35.9097V35.9413C31.2867 38.728 30.2734 41.958 28.6584 45.2197L25.6184 50.9197L22.8001 52.4713C19.0001 54.8463 17.1951 57.5063 16.8467 59.1847C16.7201 59.7863 16.7834 60.3247 17.0051 60.8947L17.1001 61.053L18.6201 62.0347L20.0134 62.383C22.5784 62.383 25.4917 59.3747 29.4184 52.6613L29.9884 52.4397C33.2501 51.3947 37.3034 50.6663 42.7501 50.0647C46.0117 51.6797 49.8434 52.408 52.2501 52.408C53.6434 52.408 54.5934 52.0597 55.1317 51.458ZM53.8334 49.2097L54.1184 49.558C54.0868 49.8747 53.9917 49.9063 53.8334 49.9697H53.7067L53.1051 50.033C51.6484 50.033 49.4001 49.4313 47.0884 48.418C47.3734 48.1013 47.5001 48.1013 47.8167 48.1013C52.2501 48.1013 53.5168 48.893 53.8334 49.2097ZM24.7951 53.833C22.7367 57.6013 20.8684 59.6913 19.4434 60.1663C19.6017 58.963 21.0267 56.873 23.2751 54.8147L24.7951 53.833ZM34.3584 31.9513C33.6301 29.1013 33.5984 26.7897 34.1367 25.4597L34.3584 25.0797L34.8334 25.238C35.3717 25.998 35.4351 27.0113 35.1184 28.7213L35.0234 29.228L34.5167 31.8247L34.3584 31.9513Z" fill="#EF5350"/>
</svg>
