<svg width="74" height="74" viewBox="0 0 74 74" fill="none" xmlns="http://www.w3.org/2000/svg">
<rect x="0.5" y="0.5" width="74" height="74" rx="37" fill="#3D3D3D"/>
<rect x="0.5" y="0.5" width="74" height="74" rx="37" stroke="#F3F3F3"/>
<path d="M39.3126 52C39.3126 52.3481 39.1743 52.6819 38.9281 52.9281C38.682 53.1742 38.3482 53.3125 38.0001 53.3125C37.652 53.3125 37.3181 53.1742 37.072 52.9281C36.8258 52.6819 36.6876 52.3481 36.6876 52V35.8125H27.5001C27.2406 35.8123 26.9871 35.7352 26.7715 35.5909C26.5559 35.4467 26.3878 35.2418 26.2886 35.0021C26.1893 34.7624 26.1633 34.4987 26.2139 34.2443C26.2644 33.9898 26.3892 33.7561 26.5726 33.5725L37.0726 23.0725C37.3187 22.8267 37.6523 22.6887 38.0001 22.6887C38.3479 22.6887 38.6815 22.8267 38.9276 23.0725L49.4276 33.5725C49.6109 33.7561 49.7357 33.9898 49.7863 34.2443C49.8368 34.4987 49.8108 34.7624 49.7116 35.0021C49.6123 35.2418 49.4443 35.4467 49.2286 35.5909C49.013 35.7352 48.7595 35.8123 48.5001 35.8125H39.3126V52Z" fill="white"/>
</svg>
