<svg width="76" height="76" viewBox="0 0 76 76" fill="none" xmlns="http://www.w3.org/2000/svg">
<path d="M22.1666 6.33301H53.8333C55.513 6.33301 57.1239 7.00027 58.3116 8.188C59.4993 9.37573 60.1666 10.9866 60.1666 12.6663V63.333C60.1666 65.0127 59.4993 66.6236 58.3116 67.8113C57.1239 68.9991 55.513 69.6663 53.8333 69.6663H22.1666C20.4869 69.6663 18.876 68.9991 17.6882 67.8113C16.5005 66.6236 15.8333 65.0127 15.8333 63.333V12.6663C15.8333 10.9866 16.5005 9.37573 17.6882 8.188C18.876 7.00027 20.4869 6.33301 22.1666 6.33301ZM22.1666 12.6663V25.333H53.8333V12.6663H22.1666ZM22.1666 31.6663V37.9997H28.4999V31.6663H22.1666ZM34.8333 31.6663V37.9997H41.1666V31.6663H34.8333ZM47.4999 31.6663V37.9997H53.8333V31.6663H47.4999ZM22.1666 44.333V50.6663H28.4999V44.333H22.1666ZM34.8333 44.333V50.6663H41.1666V44.333H34.8333ZM47.4999 44.333V50.6663H53.8333V44.333H47.4999ZM22.1666 56.9997V63.333H28.4999V56.9997H22.1666ZM34.8333 56.9997V63.333H41.1666V56.9997H34.8333ZM47.4999 56.9997V63.333H53.8333V56.9997H47.4999Z" fill="#4888FF"/>
</svg>
