<svg width="33" height="33" viewBox="0 0 33 33" fill="none" xmlns="http://www.w3.org/2000/svg">
<path d="M0 15.84C0 8.3721 0 4.6398 2.3199 2.3199C4.6398 0 8.3721 0 15.84 0H17.16C24.6279 0 28.3602 0 30.6801 2.3199C33 4.6398 33 8.3721 33 15.84V17.16C33 24.6279 33 28.3602 30.6801 30.6801C28.3602 33 24.6279 33 17.16 33H15.84C8.3721 33 4.6398 33 2.3199 30.6801C0 28.3602 0 24.6279 0 17.16V15.84Z" fill="#0077FF"/>
<path d="M19.2477 0C13.1526 0.0198 9.90868 0.2244 7.81648 2.3166C5.49658 4.6365 5.49658 8.3688 5.49658 15.8367V17.1567C5.49658 24.6246 5.49658 28.3569 7.81648 30.6768C9.90868 32.769 13.1526 32.9736 19.2477 32.9934C25.3428 32.9736 28.5867 32.769 30.6789 30.6768C32.9988 28.3569 32.9988 24.6246 32.9988 17.1567V15.8367C32.9988 8.3688 32.9988 4.6365 30.6789 2.3166C28.5867 0.2277 25.3428 0.0231 19.2477 0Z" fill="#FF2B42"/>
<path d="M23.2837 13.5658C24.9535 14.5294 25.7851 15.0112 26.0656 15.6382C26.3098 16.186 26.3098 16.813 26.0656 17.3608C25.7851 17.9911 24.9502 18.4696 23.2837 19.4332L18.7132 22.0732C17.0434 23.0368 16.2118 23.5187 15.5254 23.446C14.9281 23.3834 14.3869 23.0698 14.0338 22.5848C13.6279 22.0271 13.6279 21.0634 13.6279 19.1395V13.8595C13.6279 11.9323 13.6279 10.9687 14.0338 10.4143C14.3869 9.92925 14.9281 9.61575 15.5254 9.55305C16.2085 9.48045 17.0434 9.96225 18.7132 10.9258L23.2837 13.5658Z" fill="white"/>
</svg>
