<svg width="81" height="81" viewBox="0 0 81 81" fill="none" xmlns="http://www.w3.org/2000/svg">
<rect width="81" height="81" rx="20" fill="white"/>
<path d="M38.8767 25.4688C39.1999 25.4685 39.5098 25.3399 39.7383 25.1112C39.9667 24.8825 40.0949 24.5724 40.0946 24.2492C40.0944 23.926 39.9658 23.616 39.7371 23.3876C39.5084 23.1592 39.1983 23.031 38.8751 23.0313C35.5991 23.0378 32.9893 23.0784 30.9158 23.4131C28.8033 23.7544 27.1166 24.4206 25.7695 25.7678C24.3151 27.2205 23.657 29.073 23.3417 31.4228C23.033 33.714 23.033 36.6553 23.033 40.4058V40.5926C23.033 44.3431 23.033 47.2828 23.3417 49.5773C23.657 51.9254 24.3167 53.7779 25.7695 55.2323C27.2238 56.685 29.0763 57.3447 31.4245 57.66C33.7173 57.9688 36.657 57.9688 40.4091 57.9688H40.5943C44.3465 57.9688 47.2861 57.9688 49.5806 57.66C51.9271 57.3431 53.7796 56.685 55.234 55.2306C56.5795 53.8851 57.2457 52.1968 57.587 50.0859C57.9233 48.0107 57.964 45.401 57.9688 42.1266C57.9692 41.9666 57.9379 41.808 57.877 41.66C57.816 41.5121 57.7265 41.3775 57.6136 41.2641C57.3855 41.0351 57.0758 40.9061 56.7525 40.9054C56.4293 40.9048 56.119 41.0326 55.89 41.2607C55.661 41.4888 55.532 41.7985 55.5313 42.1217C55.5265 45.4368 55.481 47.8466 55.1803 49.6959C54.8878 51.5094 54.3678 52.6485 53.5098 53.5081C52.5836 54.4344 51.3323 54.9641 49.254 55.2436C47.1415 55.528 44.366 55.5296 40.5017 55.5296C36.6375 55.5296 33.862 55.528 31.7495 55.2436C29.6711 54.9641 28.4182 54.4327 27.492 53.5081C26.5673 52.5819 26.036 51.3306 25.7565 49.2506C25.4737 47.1381 25.4705 44.3643 25.4705 40.4984C25.4705 36.6325 25.4737 33.8586 25.7565 31.7461C26.036 29.6694 26.569 28.4149 27.4936 27.4903C28.3516 26.6323 29.4923 26.1139 31.3042 25.8198C33.1535 25.5208 35.5617 25.4753 38.8767 25.4688Z" fill="#4B4B4B"/>
<path d="M46.8472 24.25C46.8472 24.9227 47.3933 25.4688 48.066 25.4688H53.8071L41.7188 37.5587V34C41.7188 33.6768 41.5903 33.3668 41.3618 33.1382C41.1332 32.9097 40.8232 32.7812 40.5 32.7812C40.1768 32.7812 39.8668 32.9097 39.6382 33.1382C39.4097 33.3668 39.2812 33.6768 39.2812 34V40.5C39.2812 41.1728 39.8273 41.7188 40.5 41.7188H47C47.3232 41.7188 47.6332 41.5903 47.8618 41.3618C48.0903 41.1332 48.2188 40.8232 48.2188 40.5C48.2188 40.1768 48.0903 39.8668 47.8618 39.6382C47.6332 39.4097 47.3232 39.2812 47 39.2812H43.4413L55.5312 27.1912V32.934C55.5312 33.2572 55.6597 33.5672 55.8882 33.7958C56.1168 34.0243 56.4268 34.1528 56.75 34.1528C57.0732 34.1528 57.3832 34.0243 57.6118 33.7958C57.8403 33.5672 57.9688 33.2572 57.9688 32.934V24.25C57.9688 23.9268 57.8403 23.6168 57.6118 23.3882C57.3832 23.1597 57.0732 23.0312 56.75 23.0312H48.066C47.7428 23.0312 47.4328 23.1597 47.2042 23.3882C46.9757 23.6168 46.8472 23.9268 46.8472 24.25Z" fill="#4B4B4B"/>
</svg>
