<svg width="33" height="33" viewBox="0 0 33 33" fill="none" xmlns="http://www.w3.org/2000/svg">
<path d="M0 15.84C0 8.37295 0 4.63943 2.31971 2.31971C4.63943 0 8.37295 0 15.84 0H17.16C24.627 0 28.3606 0 30.6803 2.31971C33 4.63943 33 8.37295 33 15.84V17.16C33 24.627 33 28.3606 30.6803 30.6803C28.3606 33 24.627 33 17.16 33H15.84C8.37295 33 4.63943 33 2.31971 30.6803C0 28.3606 0 24.627 0 17.16V15.84Z" fill="#0077FF"/>
<path d="M17.5588 23.7738C10.0375 23.7738 5.74755 18.6176 5.5688 10.0376H9.33629C9.46004 16.3351 12.2375 19.0025 14.4375 19.5525V10.0376H17.9851V15.4688C20.1576 15.235 22.4398 12.7601 23.2098 10.0376H26.7574C26.1662 13.3926 23.6912 15.8675 21.9312 16.885C23.6912 17.71 26.5101 19.8688 27.5826 23.7738H23.6774C22.8387 21.1613 20.7488 19.14 17.9851 18.865V23.7738H17.5588Z" fill="white"/>
</svg>
