<svg width="33" height="33" viewBox="0 0 33 33" fill="none" xmlns="http://www.w3.org/2000/svg">
<path d="M16.5 33C25.6127 33 33 25.6127 33 16.5C33 7.3873 25.6127 0 16.5 0C7.3873 0 0 7.3873 0 16.5C0 25.6127 7.3873 33 16.5 33Z" fill="url(#paint0_linear_742_6914)"/>
<path fill-rule="evenodd" clip-rule="evenodd" d="M7.4689 16.3254C12.279 14.2298 15.4865 12.8482 17.0913 12.1806C21.6736 10.2747 22.6257 9.94367 23.2463 9.93273C23.3828 9.93033 23.688 9.96416 23.8857 10.1246C24.0526 10.26 24.0985 10.443 24.1205 10.5714C24.1425 10.6998 24.1698 10.9924 24.1481 11.221C23.8998 13.83 22.8253 20.1615 22.2787 23.0836C22.0474 24.3201 21.592 24.7347 21.1511 24.7753C20.1929 24.8634 19.4653 24.142 18.5373 23.5337C17.085 22.5817 16.2646 21.9891 14.855 21.0602C13.2259 19.9867 14.282 19.3967 15.2104 18.4324C15.4534 18.18 19.6752 14.34 19.7569 13.9916C19.7671 13.9481 19.7766 13.7857 19.6801 13.6999C19.5836 13.6142 19.4412 13.6435 19.3385 13.6668C19.1928 13.6999 16.8729 15.2333 12.3787 18.267C11.7202 18.7192 11.1237 18.9395 10.5893 18.9279C10.0002 18.9152 8.86692 18.5948 8.02446 18.321C6.99115 17.9851 6.16989 17.8075 6.2414 17.237C6.27865 16.9399 6.68782 16.6361 7.4689 16.3254Z" fill="white"/>
<defs>
<linearGradient id="paint0_linear_742_6914" x1="1650" y1="0" x2="1650" y2="3275.53" gradientUnits="userSpaceOnUse">
<stop stop-color="#2AABEE"/>
<stop offset="1" stop-color="#229ED9"/>
</linearGradient>
</defs>
</svg>
