<svg width="420" height="339" viewBox="0 0 420 339" fill="none" xmlns="http://www.w3.org/2000/svg">
<mask id="path-1-outside-1_1510_26333" maskUnits="userSpaceOnUse" x="58" y="24" width="308" height="113" fill="black">
<rect fill="white" x="58" y="24" width="308" height="113"/>
<path d="M60.65 110.95V94.6L110.15 28H135.65L87.2 94.6L75.35 91.15H158V110.95H60.65ZM117.2 133V110.95L117.95 91.15V71.5H140.9V133H117.2ZM210.268 134.8C201.668 134.8 193.968 132.7 187.168 128.5C180.368 124.2 175.018 118 171.118 109.9C167.218 101.8 165.268 92 165.268 80.5C165.268 69 167.218 59.2 171.118 51.1C175.018 43 180.368 36.85 187.168 32.65C193.968 28.35 201.668 26.2 210.268 26.2C218.968 26.2 226.668 28.35 233.368 32.65C240.168 36.85 245.518 43 249.418 51.1C253.318 59.2 255.268 69 255.268 80.5C255.268 92 253.318 101.8 249.418 109.9C245.518 118 240.168 124.2 233.368 128.5C226.668 132.7 218.968 134.8 210.268 134.8ZM210.268 114.25C214.368 114.25 217.918 113.1 220.918 110.8C224.018 108.5 226.418 104.85 228.118 99.85C229.918 94.85 230.818 88.4 230.818 80.5C230.818 72.6 229.918 66.15 228.118 61.15C226.418 56.15 224.018 52.5 220.918 50.2C217.918 47.9 214.368 46.75 210.268 46.75C206.268 46.75 202.718 47.9 199.618 50.2C196.618 52.5 194.218 56.15 192.418 61.15C190.718 66.15 189.868 72.6 189.868 80.5C189.868 88.4 190.718 94.85 192.418 99.85C194.218 104.85 196.618 108.5 199.618 110.8C202.718 113.1 206.268 114.25 210.268 114.25ZM265.875 110.95V94.6L315.375 28H340.875L292.425 94.6L280.575 91.15H363.225V110.95H265.875ZM322.425 133V110.95L323.175 91.15V71.5H346.125V133H322.425Z"/>
</mask>
<path d="M60.65 110.95H58.65V112.95H60.65V110.95ZM60.65 94.6L59.0448 93.407L58.65 93.9381V94.6H60.65ZM110.15 28V26H109.145L108.545 26.8069L110.15 28ZM135.65 28L137.267 29.1766L139.578 26H135.65V28ZM87.2 94.6L86.6409 96.5203L87.9905 96.9132L88.8173 95.7766L87.2 94.6ZM75.35 91.15V89.15L74.7909 93.0703L75.35 91.15ZM158 91.15H160V89.15H158V91.15ZM158 110.95V112.95H160V110.95H158ZM117.2 133H115.2V135H117.2V133ZM117.2 110.95L115.201 110.874L115.2 110.912V110.95H117.2ZM117.95 91.15L119.949 91.2257L119.95 91.1879V91.15H117.95ZM117.95 71.5V69.5H115.95V71.5H117.95ZM140.9 71.5H142.9V69.5H140.9V71.5ZM140.9 133V135H142.9V133H140.9ZM60.65 110.95H62.65V94.6H60.65H58.65V110.95H60.65ZM60.65 94.6L62.2552 95.793L111.755 29.193L110.15 28L108.545 26.8069L59.0448 93.407L60.65 94.6ZM110.15 28V30H135.65V28V26H110.15V28ZM135.65 28L134.033 26.8234L85.5827 93.4234L87.2 94.6L88.8173 95.7766L137.267 29.1766L135.65 28ZM87.2 94.6L87.7591 92.6797L75.9091 89.2297L75.35 91.15L74.7909 93.0703L86.6409 96.5203L87.2 94.6ZM75.35 91.15V93.15H158V91.15V89.15H75.35V91.15ZM158 91.15H156V110.95H158H160V91.15H158ZM158 110.95V108.95H60.65V110.95V112.95H158V110.95ZM117.2 133H119.2V110.95H117.2H115.2V133H117.2ZM117.2 110.95L119.199 111.026L119.949 91.2257L117.95 91.15L115.951 91.0743L115.201 110.874L117.2 110.95ZM117.95 91.15H119.95V71.5H117.95H115.95V91.15H117.95ZM117.95 71.5V73.5H140.9V71.5V69.5H117.95V71.5ZM140.9 71.5H138.9V133H140.9H142.9V71.5H140.9ZM140.9 133V131H117.2V133V135H140.9V133ZM187.168 128.5L186.099 130.19L186.108 130.196L186.117 130.202L187.168 128.5ZM171.118 109.9L169.316 110.768L171.118 109.9ZM171.118 51.1L172.92 51.9676L171.118 51.1ZM187.168 32.65L188.219 34.3516L188.228 34.346L188.237 34.3404L187.168 32.65ZM233.368 32.65L232.288 34.3332L232.302 34.3425L232.317 34.3516L233.368 32.65ZM249.418 51.1L247.616 51.9676V51.9676L249.418 51.1ZM249.418 109.9L247.616 109.032L249.418 109.9ZM233.368 128.5L234.43 130.195L234.437 130.19L233.368 128.5ZM220.918 110.8L219.726 109.194L219.714 109.203L219.701 109.213L220.918 110.8ZM228.118 99.85L226.236 99.1726L226.23 99.1893L226.224 99.2062L228.118 99.85ZM228.118 61.15L226.224 61.7938L226.23 61.8107L226.236 61.8274L228.118 61.15ZM220.918 50.2L219.701 51.7872L219.714 51.7968L219.726 51.8062L220.918 50.2ZM199.618 50.2L198.426 48.5938L198.414 48.6032L198.401 48.6128L199.618 50.2ZM192.418 61.15L190.536 60.4726L190.53 60.4893L190.524 60.5062L192.418 61.15ZM192.418 99.85L190.524 100.494L190.53 100.511L190.536 100.527L192.418 99.85ZM199.618 110.8L198.401 112.387L198.414 112.397L198.426 112.406L199.618 110.8ZM210.268 134.8V132.8C202.01 132.8 194.679 130.788 188.219 126.798L187.168 128.5L186.117 130.202C193.257 134.612 201.326 136.8 210.268 136.8V134.8ZM187.168 128.5L188.237 126.81C181.79 122.733 176.677 116.836 172.92 109.032L171.118 109.9L169.316 110.768C173.359 119.164 178.946 125.667 186.099 130.19L187.168 128.5ZM171.118 109.9L172.92 109.032C169.181 101.268 167.268 91.7807 167.268 80.5H165.268H163.268C163.268 92.2193 165.255 102.332 169.316 110.768L171.118 109.9ZM165.268 80.5H167.268C167.268 69.2193 169.181 59.7323 172.92 51.9676L171.118 51.1L169.316 50.2324C165.255 58.6677 163.268 68.7807 163.268 80.5H165.268ZM171.118 51.1L172.92 51.9676C176.676 44.1674 181.783 38.3267 188.219 34.3516L187.168 32.65L186.117 30.9484C178.953 35.3733 173.36 41.8326 169.316 50.2324L171.118 51.1ZM187.168 32.65L188.237 34.3404C194.695 30.2567 202.019 28.2 210.268 28.2V26.2V24.2C201.317 24.2 193.241 26.4433 186.099 30.9596L187.168 32.65ZM210.268 26.2V28.2C218.622 28.2 225.94 30.2591 232.288 34.3332L233.368 32.65L234.448 30.9668C227.396 26.4409 219.314 24.2 210.268 24.2V26.2ZM233.368 32.65L232.317 34.3516C238.753 38.3267 243.86 44.1674 247.616 51.9676L249.418 51.1L251.22 50.2324C247.176 41.8326 241.583 35.3733 234.419 30.9484L233.368 32.65ZM249.418 51.1L247.616 51.9676C251.355 59.7323 253.268 69.2193 253.268 80.5H255.268H257.268C257.268 68.7807 255.281 58.6677 251.22 50.2324L249.418 51.1ZM255.268 80.5H253.268C253.268 91.7807 251.355 101.268 247.616 109.032L249.418 109.9L251.22 110.768C255.281 102.332 257.268 92.2193 257.268 80.5H255.268ZM249.418 109.9L247.616 109.032C243.859 116.836 238.746 122.733 232.299 126.81L233.368 128.5L234.437 130.19C241.59 125.667 247.177 119.164 251.22 110.768L249.418 109.9ZM233.368 128.5L232.306 126.805C225.956 130.786 218.631 132.8 210.268 132.8V134.8V136.8C219.305 136.8 227.38 134.614 234.43 130.195L233.368 128.5ZM210.268 114.25V116.25C214.768 116.25 218.756 114.978 222.135 112.387L220.918 110.8L219.701 109.213C217.08 111.222 213.968 112.25 210.268 112.25V114.25ZM220.918 110.8L222.11 112.406C225.636 109.79 228.228 105.74 230.012 100.494L228.118 99.85L226.224 99.2062C224.608 103.96 222.4 107.21 219.726 109.194L220.918 110.8ZM228.118 99.85L230 100.527C231.906 95.2317 232.818 88.5295 232.818 80.5H230.818H228.818C228.818 88.2705 227.93 94.4683 226.236 99.1726L228.118 99.85ZM230.818 80.5H232.818C232.818 72.4705 231.906 65.7683 230 60.4726L228.118 61.15L226.236 61.8274C227.93 66.5317 228.818 72.7295 228.818 80.5H230.818ZM228.118 61.15L230.012 60.5062C228.228 55.2596 225.636 51.2102 222.11 48.5938L220.918 50.2L219.726 51.8062C222.4 53.7898 224.608 57.0404 226.224 61.7938L228.118 61.15ZM220.918 50.2L222.135 48.6128C218.756 46.022 214.768 44.75 210.268 44.75V46.75V48.75C213.968 48.75 217.08 49.778 219.701 51.7872L220.918 50.2ZM210.268 46.75V44.75C205.855 44.75 201.884 46.0283 198.426 48.5938L199.618 50.2L200.81 51.8062C203.552 49.7717 206.68 48.75 210.268 48.75V46.75ZM199.618 50.2L198.401 48.6128C194.997 51.2226 192.416 55.2521 190.536 60.4726L192.418 61.15L194.3 61.8274C196.02 57.0479 198.239 53.7774 200.835 51.7872L199.618 50.2ZM192.418 61.15L190.524 60.5062C188.728 65.7892 187.868 72.4786 187.868 80.5H189.868H191.868C191.868 72.7214 192.708 66.5108 194.312 61.7938L192.418 61.15ZM189.868 80.5H187.868C187.868 88.5214 188.728 95.2108 190.524 100.494L192.418 99.85L194.312 99.2062C192.708 94.4892 191.868 88.2786 191.868 80.5H189.868ZM192.418 99.85L190.536 100.527C192.416 105.748 194.997 109.777 198.401 112.387L199.618 110.8L200.835 109.213C198.239 107.223 196.02 103.952 194.3 99.1726L192.418 99.85ZM199.618 110.8L198.426 112.406C201.884 114.972 205.855 116.25 210.268 116.25V114.25V112.25C206.68 112.25 203.552 111.228 200.81 109.194L199.618 110.8ZM265.875 110.95H263.875V112.95H265.875V110.95ZM265.875 94.6L264.269 93.407L263.875 93.9381V94.6H265.875ZM315.375 28V26H314.369L313.769 26.8069L315.375 28ZM340.875 28L342.492 29.1766L344.803 26H340.875V28ZM292.425 94.6L291.866 96.5203L293.215 96.9132L294.042 95.7766L292.425 94.6ZM280.575 91.15V89.15L280.016 93.0703L280.575 91.15ZM363.225 91.15H365.225V89.15H363.225V91.15ZM363.225 110.95V112.95H365.225V110.95H363.225ZM322.425 133H320.425V135H322.425V133ZM322.425 110.95L320.426 110.874L320.425 110.912V110.95H322.425ZM323.175 91.15L325.173 91.2257L325.175 91.1879V91.15H323.175ZM323.175 71.5V69.5H321.175V71.5H323.175ZM346.125 71.5H348.125V69.5H346.125V71.5ZM346.125 133V135H348.125V133H346.125ZM265.875 110.95H267.875V94.6H265.875H263.875V110.95H265.875ZM265.875 94.6L267.48 95.793L316.98 29.193L315.375 28L313.769 26.8069L264.269 93.407L265.875 94.6ZM315.375 28V30H340.875V28V26H315.375V28ZM340.875 28L339.257 26.8234L290.807 93.4234L292.425 94.6L294.042 95.7766L342.492 29.1766L340.875 28ZM292.425 94.6L292.984 92.6797L281.134 89.2297L280.575 91.15L280.016 93.0703L291.866 96.5203L292.425 94.6ZM280.575 91.15V93.15H363.225V91.15V89.15H280.575V91.15ZM363.225 91.15H361.225V110.95H363.225H365.225V91.15H363.225ZM363.225 110.95V108.95H265.875V110.95V112.95H363.225V110.95ZM322.425 133H324.425V110.95H322.425H320.425V133H322.425ZM322.425 110.95L324.423 111.026L325.173 91.2257L323.175 91.15L321.176 91.0743L320.426 110.874L322.425 110.95ZM323.175 91.15H325.175V71.5H323.175H321.175V91.15H323.175ZM323.175 71.5V73.5H346.125V71.5V69.5H323.175V71.5ZM346.125 71.5H344.125V133H346.125H348.125V71.5H346.125ZM346.125 133V131H322.425V133V135H346.125V133Z" fill="#2F2F2F" mask="url(#path-1-outside-1_1510_26333)"/>
<g clip-path="url(#clip0_1510_26333)">
<rect y="75" width="420" height="264" rx="20" fill="#FFEB59"/>
<mask id="path-4-outside-2_1510_26333" maskUnits="userSpaceOnUse" x="58" y="24" width="308" height="113" fill="black">
<rect fill="white" x="58" y="24" width="308" height="113"/>
<path d="M60.65 110.95V94.6L110.15 28H135.65L87.2 94.6L75.35 91.15H158V110.95H60.65ZM117.2 133V110.95L117.95 91.15V71.5H140.9V133H117.2ZM210.268 134.8C201.668 134.8 193.968 132.7 187.168 128.5C180.368 124.2 175.018 118 171.118 109.9C167.218 101.8 165.268 92 165.268 80.5C165.268 69 167.218 59.2 171.118 51.1C175.018 43 180.368 36.85 187.168 32.65C193.968 28.35 201.668 26.2 210.268 26.2C218.968 26.2 226.668 28.35 233.368 32.65C240.168 36.85 245.518 43 249.418 51.1C253.318 59.2 255.268 69 255.268 80.5C255.268 92 253.318 101.8 249.418 109.9C245.518 118 240.168 124.2 233.368 128.5C226.668 132.7 218.968 134.8 210.268 134.8ZM210.268 114.25C214.368 114.25 217.918 113.1 220.918 110.8C224.018 108.5 226.418 104.85 228.118 99.85C229.918 94.85 230.818 88.4 230.818 80.5C230.818 72.6 229.918 66.15 228.118 61.15C226.418 56.15 224.018 52.5 220.918 50.2C217.918 47.9 214.368 46.75 210.268 46.75C206.268 46.75 202.718 47.9 199.618 50.2C196.618 52.5 194.218 56.15 192.418 61.15C190.718 66.15 189.868 72.6 189.868 80.5C189.868 88.4 190.718 94.85 192.418 99.85C194.218 104.85 196.618 108.5 199.618 110.8C202.718 113.1 206.268 114.25 210.268 114.25ZM265.875 110.95V94.6L315.375 28H340.875L292.425 94.6L280.575 91.15H363.225V110.95H265.875ZM322.425 133V110.95L323.175 91.15V71.5H346.125V133H322.425Z"/>
</mask>
<path d="M60.65 110.95V94.6L110.15 28H135.65L87.2 94.6L75.35 91.15H158V110.95H60.65ZM117.2 133V110.95L117.95 91.15V71.5H140.9V133H117.2ZM210.268 134.8C201.668 134.8 193.968 132.7 187.168 128.5C180.368 124.2 175.018 118 171.118 109.9C167.218 101.8 165.268 92 165.268 80.5C165.268 69 167.218 59.2 171.118 51.1C175.018 43 180.368 36.85 187.168 32.65C193.968 28.35 201.668 26.2 210.268 26.2C218.968 26.2 226.668 28.35 233.368 32.65C240.168 36.85 245.518 43 249.418 51.1C253.318 59.2 255.268 69 255.268 80.5C255.268 92 253.318 101.8 249.418 109.9C245.518 118 240.168 124.2 233.368 128.5C226.668 132.7 218.968 134.8 210.268 134.8ZM210.268 114.25C214.368 114.25 217.918 113.1 220.918 110.8C224.018 108.5 226.418 104.85 228.118 99.85C229.918 94.85 230.818 88.4 230.818 80.5C230.818 72.6 229.918 66.15 228.118 61.15C226.418 56.15 224.018 52.5 220.918 50.2C217.918 47.9 214.368 46.75 210.268 46.75C206.268 46.75 202.718 47.9 199.618 50.2C196.618 52.5 194.218 56.15 192.418 61.15C190.718 66.15 189.868 72.6 189.868 80.5C189.868 88.4 190.718 94.85 192.418 99.85C194.218 104.85 196.618 108.5 199.618 110.8C202.718 113.1 206.268 114.25 210.268 114.25ZM265.875 110.95V94.6L315.375 28H340.875L292.425 94.6L280.575 91.15H363.225V110.95H265.875ZM322.425 133V110.95L323.175 91.15V71.5H346.125V133H322.425Z" fill="#2F2F2F"/>
<path d="M60.65 110.95H58.65V112.95H60.65V110.95ZM60.65 94.6L59.0448 93.407L58.65 93.9381V94.6H60.65ZM110.15 28V26H109.145L108.545 26.8069L110.15 28ZM135.65 28L137.267 29.1766L139.578 26H135.65V28ZM87.2 94.6L86.6409 96.5203L87.9905 96.9132L88.8173 95.7766L87.2 94.6ZM75.35 91.15V89.15L74.7909 93.0703L75.35 91.15ZM158 91.15H160V89.15H158V91.15ZM158 110.95V112.95H160V110.95H158ZM117.2 133H115.2V135H117.2V133ZM117.2 110.95L115.201 110.874L115.2 110.912V110.95H117.2ZM117.95 91.15L119.949 91.2257L119.95 91.1879V91.15H117.95ZM117.95 71.5V69.5H115.95V71.5H117.95ZM140.9 71.5H142.9V69.5H140.9V71.5ZM140.9 133V135H142.9V133H140.9ZM60.65 110.95H62.65V94.6H60.65H58.65V110.95H60.65ZM60.65 94.6L62.2552 95.793L111.755 29.193L110.15 28L108.545 26.8069L59.0448 93.407L60.65 94.6ZM110.15 28V30H135.65V28V26H110.15V28ZM135.65 28L134.033 26.8234L85.5827 93.4234L87.2 94.6L88.8173 95.7766L137.267 29.1766L135.65 28ZM87.2 94.6L87.7591 92.6797L75.9091 89.2297L75.35 91.15L74.7909 93.0703L86.6409 96.5203L87.2 94.6ZM75.35 91.15V93.15H158V91.15V89.15H75.35V91.15ZM158 91.15H156V110.95H158H160V91.15H158ZM158 110.95V108.95H60.65V110.95V112.95H158V110.95ZM117.2 133H119.2V110.95H117.2H115.2V133H117.2ZM117.2 110.95L119.199 111.026L119.949 91.2257L117.95 91.15L115.951 91.0743L115.201 110.874L117.2 110.95ZM117.95 91.15H119.95V71.5H117.95H115.95V91.15H117.95ZM117.95 71.5V73.5H140.9V71.5V69.5H117.95V71.5ZM140.9 71.5H138.9V133H140.9H142.9V71.5H140.9ZM140.9 133V131H117.2V133V135H140.9V133ZM187.168 128.5L186.099 130.19L186.108 130.196L186.117 130.202L187.168 128.5ZM171.118 109.9L169.316 110.768L171.118 109.9ZM171.118 51.1L172.92 51.9676L171.118 51.1ZM187.168 32.65L188.219 34.3516L188.228 34.346L188.237 34.3404L187.168 32.65ZM233.368 32.65L232.288 34.3332L232.302 34.3425L232.317 34.3516L233.368 32.65ZM249.418 51.1L247.616 51.9676V51.9676L249.418 51.1ZM249.418 109.9L247.616 109.032L249.418 109.9ZM233.368 128.5L234.43 130.195L234.437 130.19L233.368 128.5ZM220.918 110.8L219.726 109.194L219.714 109.203L219.701 109.213L220.918 110.8ZM228.118 99.85L226.236 99.1726L226.23 99.1893L226.224 99.2062L228.118 99.85ZM228.118 61.15L226.224 61.7938L226.23 61.8107L226.236 61.8274L228.118 61.15ZM220.918 50.2L219.701 51.7872L219.714 51.7968L219.726 51.8062L220.918 50.2ZM199.618 50.2L198.426 48.5938L198.414 48.6032L198.401 48.6128L199.618 50.2ZM192.418 61.15L190.536 60.4726L190.53 60.4893L190.524 60.5062L192.418 61.15ZM192.418 99.85L190.524 100.494L190.53 100.511L190.536 100.527L192.418 99.85ZM199.618 110.8L198.401 112.387L198.414 112.397L198.426 112.406L199.618 110.8ZM210.268 134.8V132.8C202.01 132.8 194.679 130.788 188.219 126.798L187.168 128.5L186.117 130.202C193.257 134.612 201.326 136.8 210.268 136.8V134.8ZM187.168 128.5L188.237 126.81C181.79 122.733 176.677 116.836 172.92 109.032L171.118 109.9L169.316 110.768C173.359 119.164 178.946 125.667 186.099 130.19L187.168 128.5ZM171.118 109.9L172.92 109.032C169.181 101.268 167.268 91.7807 167.268 80.5H165.268H163.268C163.268 92.2193 165.255 102.332 169.316 110.768L171.118 109.9ZM165.268 80.5H167.268C167.268 69.2193 169.181 59.7323 172.92 51.9676L171.118 51.1L169.316 50.2324C165.255 58.6677 163.268 68.7807 163.268 80.5H165.268ZM171.118 51.1L172.92 51.9676C176.676 44.1674 181.783 38.3267 188.219 34.3516L187.168 32.65L186.117 30.9484C178.953 35.3733 173.36 41.8326 169.316 50.2324L171.118 51.1ZM187.168 32.65L188.237 34.3404C194.695 30.2567 202.019 28.2 210.268 28.2V26.2V24.2C201.317 24.2 193.241 26.4433 186.099 30.9596L187.168 32.65ZM210.268 26.2V28.2C218.622 28.2 225.94 30.2591 232.288 34.3332L233.368 32.65L234.448 30.9668C227.396 26.4409 219.314 24.2 210.268 24.2V26.2ZM233.368 32.65L232.317 34.3516C238.753 38.3267 243.86 44.1674 247.616 51.9676L249.418 51.1L251.22 50.2324C247.176 41.8326 241.583 35.3733 234.419 30.9484L233.368 32.65ZM249.418 51.1L247.616 51.9676C251.355 59.7323 253.268 69.2193 253.268 80.5H255.268H257.268C257.268 68.7807 255.281 58.6677 251.22 50.2324L249.418 51.1ZM255.268 80.5H253.268C253.268 91.7807 251.355 101.268 247.616 109.032L249.418 109.9L251.22 110.768C255.281 102.332 257.268 92.2193 257.268 80.5H255.268ZM249.418 109.9L247.616 109.032C243.859 116.836 238.746 122.733 232.299 126.81L233.368 128.5L234.437 130.19C241.59 125.667 247.177 119.164 251.22 110.768L249.418 109.9ZM233.368 128.5L232.306 126.805C225.956 130.786 218.631 132.8 210.268 132.8V134.8V136.8C219.305 136.8 227.38 134.614 234.43 130.195L233.368 128.5ZM210.268 114.25V116.25C214.768 116.25 218.756 114.978 222.135 112.387L220.918 110.8L219.701 109.213C217.08 111.222 213.968 112.25 210.268 112.25V114.25ZM220.918 110.8L222.11 112.406C225.636 109.79 228.228 105.74 230.012 100.494L228.118 99.85L226.224 99.2062C224.608 103.96 222.4 107.21 219.726 109.194L220.918 110.8ZM228.118 99.85L230 100.527C231.906 95.2317 232.818 88.5295 232.818 80.5H230.818H228.818C228.818 88.2705 227.93 94.4683 226.236 99.1726L228.118 99.85ZM230.818 80.5H232.818C232.818 72.4705 231.906 65.7683 230 60.4726L228.118 61.15L226.236 61.8274C227.93 66.5317 228.818 72.7295 228.818 80.5H230.818ZM228.118 61.15L230.012 60.5062C228.228 55.2596 225.636 51.2102 222.11 48.5938L220.918 50.2L219.726 51.8062C222.4 53.7898 224.608 57.0404 226.224 61.7938L228.118 61.15ZM220.918 50.2L222.135 48.6128C218.756 46.022 214.768 44.75 210.268 44.75V46.75V48.75C213.968 48.75 217.08 49.778 219.701 51.7872L220.918 50.2ZM210.268 46.75V44.75C205.855 44.75 201.884 46.0283 198.426 48.5938L199.618 50.2L200.81 51.8062C203.552 49.7717 206.68 48.75 210.268 48.75V46.75ZM199.618 50.2L198.401 48.6128C194.997 51.2226 192.416 55.2521 190.536 60.4726L192.418 61.15L194.3 61.8274C196.02 57.0479 198.239 53.7774 200.835 51.7872L199.618 50.2ZM192.418 61.15L190.524 60.5062C188.728 65.7892 187.868 72.4786 187.868 80.5H189.868H191.868C191.868 72.7214 192.708 66.5108 194.312 61.7938L192.418 61.15ZM189.868 80.5H187.868C187.868 88.5214 188.728 95.2108 190.524 100.494L192.418 99.85L194.312 99.2062C192.708 94.4892 191.868 88.2786 191.868 80.5H189.868ZM192.418 99.85L190.536 100.527C192.416 105.748 194.997 109.777 198.401 112.387L199.618 110.8L200.835 109.213C198.239 107.223 196.02 103.952 194.3 99.1726L192.418 99.85ZM199.618 110.8L198.426 112.406C201.884 114.972 205.855 116.25 210.268 116.25V114.25V112.25C206.68 112.25 203.552 111.228 200.81 109.194L199.618 110.8ZM265.875 110.95H263.875V112.95H265.875V110.95ZM265.875 94.6L264.269 93.407L263.875 93.9381V94.6H265.875ZM315.375 28V26H314.369L313.769 26.8069L315.375 28ZM340.875 28L342.492 29.1766L344.803 26H340.875V28ZM292.425 94.6L291.866 96.5203L293.215 96.9132L294.042 95.7766L292.425 94.6ZM280.575 91.15V89.15L280.016 93.0703L280.575 91.15ZM363.225 91.15H365.225V89.15H363.225V91.15ZM363.225 110.95V112.95H365.225V110.95H363.225ZM322.425 133H320.425V135H322.425V133ZM322.425 110.95L320.426 110.874L320.425 110.912V110.95H322.425ZM323.175 91.15L325.173 91.2257L325.175 91.1879V91.15H323.175ZM323.175 71.5V69.5H321.175V71.5H323.175ZM346.125 71.5H348.125V69.5H346.125V71.5ZM346.125 133V135H348.125V133H346.125ZM265.875 110.95H267.875V94.6H265.875H263.875V110.95H265.875ZM265.875 94.6L267.48 95.793L316.98 29.193L315.375 28L313.769 26.8069L264.269 93.407L265.875 94.6ZM315.375 28V30H340.875V28V26H315.375V28ZM340.875 28L339.257 26.8234L290.807 93.4234L292.425 94.6L294.042 95.7766L342.492 29.1766L340.875 28ZM292.425 94.6L292.984 92.6797L281.134 89.2297L280.575 91.15L280.016 93.0703L291.866 96.5203L292.425 94.6ZM280.575 91.15V93.15H363.225V91.15V89.15H280.575V91.15ZM363.225 91.15H361.225V110.95H363.225H365.225V91.15H363.225ZM363.225 110.95V108.95H265.875V110.95V112.95H363.225V110.95ZM322.425 133H324.425V110.95H322.425H320.425V133H322.425ZM322.425 110.95L324.423 111.026L325.173 91.2257L323.175 91.15L321.176 91.0743L320.426 110.874L322.425 110.95ZM323.175 91.15H325.175V71.5H323.175H321.175V91.15H323.175ZM323.175 71.5V73.5H346.125V71.5V69.5H323.175V71.5ZM346.125 71.5H344.125V133H346.125H348.125V71.5H346.125ZM346.125 133V131H322.425V133V135H346.125V133Z" fill="#2F2F2F" mask="url(#path-4-outside-2_1510_26333)"/>
</g>
<defs>
<clipPath id="clip0_1510_26333">
<rect y="75" width="420" height="264" rx="20" fill="white"/>
</clipPath>
</defs>
</svg>
