<svg width="40" height="40" viewBox="0 0 40 40" fill="none" xmlns="http://www.w3.org/2000/svg">
<path d="M22.3181 7.9843C23.9579 7.9843 25.2873 6.65494 25.2873 5.0151C25.2873 3.37525 23.9579 2.0459 22.3181 2.0459C20.6782 2.0459 19.3489 3.37525 19.3489 5.0151C19.3489 6.65494 20.6782 7.9843 22.3181 7.9843Z" fill="#2F2F2F"/>
<path d="M36.1987 21.8652C37.8385 21.8652 39.1679 20.5358 39.1679 18.896C39.1679 17.2561 37.8385 15.9268 36.1987 15.9268C34.5588 15.9268 33.2295 17.2561 33.2295 18.896C33.2295 20.5358 34.5588 21.8652 36.1987 21.8652Z" fill="#2F2F2F"/>
<path d="M28.3908 38.3483C30.0307 38.3483 31.36 37.019 31.36 35.3791C31.36 33.7393 30.0307 32.4099 28.3908 32.4099C26.751 32.4099 25.4216 33.7393 25.4216 35.3791C25.4216 37.019 26.751 38.3483 28.3908 38.3483Z" fill="#2F2F2F"/>
<path d="M4.53365 30.5404C6.1735 30.5404 7.50285 29.2111 7.50285 27.5713C7.50285 25.9314 6.1735 24.6021 4.53365 24.6021C2.89381 24.6021 1.56445 25.9314 1.56445 27.5713C1.56445 29.2111 2.89381 30.5404 4.53365 30.5404Z" fill="#2F2F2F"/>
<path d="M22.4683 33.0683C22.3596 33.0343 22.2452 33.022 22.1318 33.0322C22.0183 33.0425 21.9079 33.075 21.8071 33.1279C21.7062 33.1809 21.6167 33.2532 21.5438 33.3408C21.471 33.4284 21.4161 33.5295 21.3823 33.6383C21.3484 33.7471 21.3362 33.8614 21.3465 33.9749C21.3568 34.0883 21.3893 34.1986 21.4423 34.2995C21.4952 34.4003 21.5675 34.4898 21.655 34.5627C21.7425 34.6356 21.8436 34.6905 21.9523 34.7243L23.6923 35.2659C23.7067 34.6635 23.8311 34.0875 24.0527 33.5611L22.4683 33.0683ZM5.10475 22.9055L5.00155 21.6691C4.57795 21.7947 4.13035 21.8651 3.66635 21.8651C3.53435 21.8651 3.40435 21.8559 3.27515 21.8451L3.37315 23.0179C3.74515 22.9231 4.13275 22.8671 4.53395 22.8671C4.72715 22.8671 4.91715 22.8827 5.10475 22.9055ZM32.1447 29.6847C32.2308 29.4758 32.232 29.2415 32.1481 29.0317C32.0642 28.8219 31.9017 28.6531 31.6953 28.5612C31.4889 28.4693 31.2548 28.4614 31.0427 28.5394C30.8306 28.6174 30.6573 28.775 30.5595 28.9787L29.7179 30.8687C30.2855 31.0359 30.8071 31.3087 31.2639 31.6627L32.1447 29.6847ZM9.96035 29.1747L9.04595 28.8899C8.87922 29.4583 8.60612 29.9898 8.24115 30.4563L9.44475 30.8311C9.66154 30.8898 9.89265 30.8622 10.0895 30.7541C10.2864 30.646 10.4337 30.4657 10.5004 30.2513C10.5672 30.0368 10.5482 29.8048 10.4475 29.6041C10.3468 29.4033 10.1722 29.2494 9.96035 29.1747ZM16.4363 9.02952C16.3188 8.83177 16.1276 8.68876 15.9047 8.63191C15.6818 8.57505 15.4454 8.60901 15.2475 8.72632L11.4927 10.9559C11.303 11.0773 11.1679 11.2676 11.1159 11.4867C11.0639 11.7058 11.0991 11.9366 11.214 12.1302C11.3289 12.3239 11.5147 12.4653 11.7319 12.5245C11.9492 12.5838 12.181 12.5564 12.3783 12.4479L16.1331 10.2183C16.3309 10.1008 16.4739 9.90957 16.5308 9.68667C16.5876 9.46376 16.5537 9.2274 16.4363 9.02952ZM18.2991 31.7703L14.1299 30.4723C13.9126 30.4118 13.6803 30.4383 13.4822 30.5461C13.2841 30.654 13.1358 30.8348 13.0688 31.0502C13.0017 31.2656 13.0212 31.4986 13.123 31.6998C13.2249 31.9011 13.4011 32.0548 13.6143 32.1283L17.7835 33.4263C17.9999 33.4836 18.23 33.4552 18.4258 33.347C18.6216 33.2387 18.7681 33.059 18.8346 32.8453C18.9012 32.6317 18.8826 32.4006 18.7828 32.2003C18.683 32 18.5098 31.8459 18.2991 31.7703ZM26.2095 8.61352L28.9423 11.5347C29.0201 11.6181 29.1135 11.6853 29.2173 11.7324C29.3211 11.7796 29.4331 11.8059 29.5471 11.8096C29.661 11.8134 29.7746 11.7947 29.8812 11.7545C29.9879 11.7144 30.0856 11.6535 30.1687 11.5755C30.3366 11.4183 30.4353 11.2009 30.443 10.971C30.4507 10.7412 30.3669 10.5176 30.2099 10.3495L27.3191 7.25952C27.0362 7.77557 26.6599 8.23467 26.2095 8.61352ZM32.3367 24.9899C32.2853 25.0947 32.2555 25.2088 32.2492 25.3253C32.2429 25.4419 32.2601 25.5585 32.2999 25.6683C32.3397 25.778 32.4012 25.8786 32.4807 25.964C32.5603 26.0494 32.6562 26.1179 32.7629 26.1654C32.8695 26.2129 32.9846 26.2384 33.1013 26.2403C33.218 26.2423 33.3339 26.2207 33.4421 26.1768C33.5503 26.1329 33.6485 26.0677 33.7309 25.985C33.8132 25.9023 33.8781 25.8039 33.9215 25.6955L34.9339 23.4223C34.3717 23.2647 33.844 23.0033 33.3779 22.6515L32.3367 24.9899ZM34.2183 14.6347L33.1923 13.5383C33.1145 13.4551 33.0211 13.3881 32.9174 13.341C32.8136 13.294 32.7016 13.2678 32.5878 13.264C32.474 13.2602 32.3605 13.2789 32.2538 13.319C32.1472 13.359 32.0495 13.4197 31.9663 13.4975C31.8832 13.5753 31.8161 13.6688 31.7691 13.7725C31.722 13.8762 31.6958 13.9882 31.692 14.1021C31.6882 14.2159 31.7069 14.3294 31.747 14.436C31.7871 14.5426 31.8477 14.6403 31.9255 14.7235L32.7971 15.6551C33.2031 15.2294 33.6852 14.8833 34.2183 14.6347ZM7.89355 15.1111L8.62395 14.6775C8.81366 14.5562 8.9488 14.3659 9.00081 14.1468C9.05282 13.9276 9.01764 13.6969 8.90269 13.5032C8.78775 13.3096 8.60203 13.1682 8.38478 13.1089C8.16752 13.0496 7.93572 13.0771 7.73835 13.1855L6.85355 13.7111C7.28417 14.1091 7.63685 14.5839 7.89355 15.1111ZM35.5507 17.3283L35.1883 17.6571L34.9131 17.9163L35.5507 17.3283Z" fill="#2F2F2F"/>
<path d="M3.66598 20.1301C5.30582 20.1301 6.63518 18.8007 6.63518 17.1609C6.63518 15.521 5.30582 14.1917 3.66598 14.1917C2.02613 14.1917 0.696777 15.521 0.696777 17.1609C0.696777 18.8007 2.02613 20.1301 3.66598 20.1301Z" fill="#2F2F2F"/>
</svg>
