<svg width="40" height="40" viewBox="0 0 40 40" fill="none" xmlns="http://www.w3.org/2000/svg">
<path d="M37.1875 18.5156H32.4141C31.7383 12.7969 27.2031 8.26172 21.4844 7.58594V2.8125C21.4844 2.64062 21.3438 2.5 21.1719 2.5H18.8281C18.6562 2.5 18.5156 2.64062 18.5156 2.8125V7.58594C12.7969 8.26172 8.26172 12.7969 7.58594 18.5156H2.8125C2.64062 18.5156 2.5 18.6562 2.5 18.8281V21.1719C2.5 21.3438 2.64062 21.4844 2.8125 21.4844H7.58594C8.26172 27.2031 12.7969 31.7383 18.5156 32.4141V37.1875C18.5156 37.3594 18.6562 37.5 18.8281 37.5H21.1719C21.3438 37.5 21.4844 37.3594 21.4844 37.1875V32.4141C27.2031 31.7383 31.7383 27.2031 32.4141 21.4844H37.1875C37.3594 21.4844 37.5 21.3438 37.5 21.1719V18.8281C37.5 18.6562 37.3594 18.5156 37.1875 18.5156ZM20 29.5312C14.7344 29.5312 10.4688 25.2656 10.4688 20C10.4688 14.7344 14.7344 10.4688 20 10.4688C25.2656 10.4688 29.5312 14.7344 29.5312 20C29.5312 25.2656 25.2656 29.5312 20 29.5312Z" fill="#2F2F2F"/>
<path d="M20 15.3125C18.7461 15.3125 17.5742 15.7969 16.6875 16.6875C15.8008 17.5742 15.3125 18.7461 15.3125 20C15.3125 21.2539 15.8008 22.4258 16.6875 23.3125C17.5742 24.1953 18.75 24.6875 20 24.6875C21.25 24.6875 22.4258 24.1992 23.3125 23.3125C24.1953 22.4258 24.6875 21.25 24.6875 20C24.6875 18.75 24.1992 17.5742 23.3125 16.6875C22.4258 15.7969 21.2539 15.3125 20 15.3125Z" fill="#2F2F2F"/>
</svg>
