<svg width="68" height="68" viewBox="0 0 68 68" fill="none" xmlns="http://www.w3.org/2000/svg">
<rect width="68" height="68" rx="20" fill="#2F2F2F"/>
<path d="M40 32H36V28C36 27.4696 35.7893 26.9609 35.4142 26.5858C35.0391 26.2107 34.5304 26 34 26C33.4696 26 32.9609 26.2107 32.5858 26.5858C32.2107 26.9609 32 27.4696 32 28L32.071 32H28C27.4696 32 26.9609 32.2107 26.5858 32.5858C26.2107 32.9609 26 33.4696 26 34C26 34.5304 26.2107 35.0391 26.5858 35.4142C26.9609 35.7893 27.4696 36 28 36L32.071 35.929L32 40C32 40.5304 32.2107 41.0391 32.5858 41.4142C32.9609 41.7893 33.4696 42 34 42C34.5304 42 35.0391 41.7893 35.4142 41.4142C35.7893 41.0391 36 40.5304 36 40V35.929L40 36C40.5304 36 41.0391 35.7893 41.4142 35.4142C41.7893 35.0391 42 34.5304 42 34C42 33.4696 41.7893 32.9609 41.4142 32.5858C41.0391 32.2107 40.5304 32 40 32Z" fill="#FFEB59"/>
</svg>
