<svg width="130" height="130" viewBox="0 0 130 130" fill="none" xmlns="http://www.w3.org/2000/svg">
<path d="M57.8779 0.5C68.6507 0.499277 79.206 3.53147 88.336 9.24956C97.4659 14.9677 104.802 23.1406 109.503 32.8331C114.205 42.5256 116.083 53.3461 114.923 64.0561C113.762 74.7662 109.61 84.9332 102.941 93.3935L127.592 118.044C128.822 119.318 129.502 121.023 129.486 122.792C129.471 124.562 128.761 126.255 127.51 127.507C126.258 128.758 124.565 129.468 122.795 129.484C121.026 129.499 119.321 128.819 118.047 127.589L93.3964 102.938C86.2107 108.601 77.7749 112.463 68.7928 114.203C59.8107 115.943 50.5429 115.509 41.7624 112.939C32.9819 110.368 24.9435 105.735 18.3178 99.4261C11.692 93.1171 6.67113 85.3151 3.67394 76.6709C0.67674 68.0268 -0.209823 58.7912 1.08821 49.7348C2.38625 40.6783 5.83124 32.0636 11.1358 24.6093C16.4403 17.1551 23.4506 11.0774 31.5817 6.88343C39.7128 2.68946 48.7289 0.50078 57.8779 0.5ZM57.8779 14C46.2416 14 35.0818 18.6225 26.8536 26.8507C18.6255 35.0788 14.0029 46.2386 14.0029 57.875C14.0029 69.5114 18.6255 80.6712 26.8536 88.8993C35.0818 97.1275 46.2416 101.75 57.8779 101.75C69.5143 101.75 80.6741 97.1275 88.9023 88.8993C97.1304 80.6712 101.753 69.5114 101.753 57.875C101.753 46.2386 97.1304 35.0788 88.9023 26.8507C80.6741 18.6225 69.5143 14 57.8779 14ZM57.8779 20.75C67.7241 20.75 77.167 24.6614 84.1293 31.6237C91.0916 38.5859 95.0029 48.0288 95.0029 57.875C95.0029 67.7212 91.0916 77.164 84.1293 84.1263C77.167 91.0886 67.7241 95 57.8779 95C48.0318 95 38.5889 91.0886 31.6266 84.1263C24.6643 77.164 20.7529 67.7212 20.7529 57.875C20.7529 48.0288 24.6643 38.5859 31.6266 31.6237C38.5889 24.6614 48.0318 20.75 57.8779 20.75Z" fill="#999999"/>
</svg>
