<svg width="55" height="55" viewBox="0 0 55 55" fill="none" xmlns="http://www.w3.org/2000/svg">
<path d="M27.5 46.2C17.16 46.2 8.80005 37.84 8.80005 27.5C8.80005 17.16 17.16 8.80005 27.5 8.80005C37.84 8.80005 46.2 17.16 46.2 27.5C46.2 37.84 37.84 46.2 27.5 46.2ZM27.5 11C18.37 11 11 18.37 11 27.5C11 36.63 18.37 44 27.5 44C36.63 44 44 36.63 44 27.5C44 18.37 36.63 11 27.5 11Z" fill="#252525"/>
<path d="M19.566 32.2581L32.4777 32.2581L32.4777 19.3463L34.6556 19.3463V34.4359L19.566 34.4359L19.566 32.2581Z" fill="#252525"/>
<path d="M34.3445 32.5695L32.7888 34.1251L19.566 20.9022L21.1216 19.3466L34.3445 32.5695Z" fill="#252525"/>
</svg>
