<svg width="24" height="24" viewBox="0 0 24 24" fill="none" xmlns="http://www.w3.org/2000/svg">
<path opacity="0.5" d="M12 2C7.582 2 4 6.003 4 10.5C4 14.962 6.553 19.812 10.537 21.674C10.9949 21.8884 11.4944 21.9996 12 21.9996C12.5056 21.9996 13.0051 21.8884 13.463 21.674C17.447 19.812 20 14.962 20 10.5C20 6.003 16.418 2 12 2Z" fill="#020202"/>
<path d="M12 12.5C12.663 12.5 13.2989 12.2366 13.7678 11.7678C14.2366 11.2989 14.5 10.663 14.5 10C14.5 9.33696 14.2366 8.70107 13.7678 8.23223C13.2989 7.76339 12.663 7.5 12 7.5C11.337 7.5 10.7011 7.76339 10.2322 8.23223C9.76339 8.70107 9.5 9.33696 9.5 10C9.5 10.663 9.76339 11.2989 10.2322 11.7678C10.7011 12.2366 11.337 12.5 12 12.5Z" fill="#020202"/>
</svg>
