<svg width="24" height="24" viewBox="0 0 24 24" fill="none" xmlns="http://www.w3.org/2000/svg">
<path d="M12.0001 20.16C7.48809 20.16 3.84009 16.512 3.84009 12C3.84009 7.48803 7.48809 3.84003 12.0001 3.84003C16.5121 3.84003 20.1601 7.48803 20.1601 12C20.1601 16.512 16.5121 20.16 12.0001 20.16ZM12.0001 4.80003C8.01609 4.80003 4.80009 8.01603 4.80009 12C4.80009 15.984 8.01609 19.2 12.0001 19.2C15.9841 19.2 19.2001 15.984 19.2001 12C19.2001 8.01603 15.9841 4.80003 12.0001 4.80003Z" fill="white"/>
<path d="M8.53793 14.0763L14.1722 14.0763L14.1722 8.44202L15.1225 8.44203L15.1225 15.0266L8.53793 15.0266V14.0763Z" fill="white"/>
<path d="M14.9866 14.2121L14.3077 14.8909L8.53776 9.12093L9.21658 8.44211L14.9866 14.2121Z" fill="white"/>
</svg>
