<svg width="23" height="21" viewBox="0 0 23 21" fill="none" xmlns="http://www.w3.org/2000/svg">
<path d="M8.625 0.437501C7.73281 0.437033 6.86244 0.713293 6.13384 1.22821C5.40524 1.74312 4.85427 2.47134 4.55688 3.3125H0V6.1875H4.55688C4.85387 7.0292 5.40462 7.75806 6.13324 8.27362C6.86185 8.78917 7.73244 9.06602 8.625 9.06602C9.51756 9.06602 10.3882 8.78917 11.1168 8.27362C11.8454 7.75806 12.3961 7.0292 12.6931 6.1875H23V3.3125H12.6931C12.3957 2.47134 11.8448 1.74312 11.1162 1.22821C10.3876 0.713293 9.51719 0.437033 8.625 0.437501ZM7.1875 4.75C7.1875 4.36875 7.33895 4.00312 7.60853 3.73353C7.87812 3.46395 8.24375 3.3125 8.625 3.3125C9.00625 3.3125 9.37188 3.46395 9.64147 3.73353C9.91105 4.00312 10.0625 4.36875 10.0625 4.75C10.0625 5.13125 9.91105 5.49688 9.64147 5.76647C9.37188 6.03605 9.00625 6.1875 8.625 6.1875C8.24375 6.1875 7.87812 6.03605 7.60853 5.76647C7.33895 5.49688 7.1875 5.13125 7.1875 4.75ZM14.375 11.9375C13.4828 11.937 12.6124 12.2133 11.8838 12.7282C11.1552 13.2431 10.6043 13.9713 10.3069 14.8125H0V17.6875H10.3069C10.6039 18.5292 11.1546 19.2581 11.8832 19.7736C12.6118 20.2892 13.4824 20.566 14.375 20.566C15.2676 20.566 16.1382 20.2892 16.8668 19.7736C17.5954 19.2581 18.1461 18.5292 18.4431 17.6875H23V14.8125H18.4431C18.1457 13.9713 17.5948 13.2431 16.8662 12.7282C16.1376 12.2133 15.2672 11.937 14.375 11.9375ZM12.9375 16.25C12.9375 15.8688 13.089 15.5031 13.3585 15.2335C13.6281 14.964 13.9938 14.8125 14.375 14.8125C14.7562 14.8125 15.1219 14.964 15.3915 15.2335C15.661 15.5031 15.8125 15.8688 15.8125 16.25C15.8125 16.6312 15.661 16.9969 15.3915 17.2665C15.1219 17.536 14.7562 17.6875 14.375 17.6875C13.9938 17.6875 13.6281 17.536 13.3585 17.2665C13.089 16.9969 12.9375 16.6312 12.9375 16.25Z" fill="black"/>
</svg>
