<svg width="9" height="12" viewBox="0 0 9 12" fill="none" xmlns="http://www.w3.org/2000/svg">
<path d="M-7.06937e-05 1.79005L-7.05933e-05 10.2101C-0.000552195 10.5425 0.0931148 10.8682 0.270088 11.1496C0.447062 11.431 0.700105 11.6565 0.999929 11.8001C1.35567 11.9681 1.75146 12.0328 2.1422 11.9868C2.53293 11.9409 2.9029 11.7861 3.20993 11.5401L8.30993 7.33005C8.50056 7.16484 8.65344 6.96057 8.75823 6.7311C8.86301 6.50163 8.91724 6.25232 8.91724 6.00005C8.91724 5.74779 8.86301 5.49848 8.75823 5.26901C8.65344 5.03953 8.50056 4.83527 8.30993 4.67005L3.20993 0.460052C2.9029 0.214046 2.53293 0.0592376 2.1422 0.0132686C1.75146 -0.0327005 1.35567 0.0320207 0.999929 0.200053C0.700105 0.343595 0.447061 0.569112 0.270088 0.850499C0.0931147 1.13189 -0.000552303 1.45764 -7.06937e-05 1.79005Z" fill="#ffffff"/>
</svg>
