<svg width="9" height="12" viewBox="0 0 9 12" fill="none" xmlns="http://www.w3.org/2000/svg">
<path d="M9.00007 1.79005L9.00007 10.2101C9.00055 10.5425 8.90689 10.8682 8.72991 11.1496C8.55294 11.431 8.2999 11.6565 8.00007 11.8001C7.64433 11.9681 7.24854 12.0328 6.8578 11.9868C6.46707 11.9409 6.0971 11.7861 5.79007 11.5401L0.690071 7.33005C0.499441 7.16484 0.346555 6.96057 0.241774 6.7311C0.136992 6.50163 0.0827637 6.25232 0.0827637 6.00005C0.0827637 5.74779 0.136992 5.49848 0.241774 5.26901C0.346555 5.03953 0.499441 4.83527 0.690071 4.67005L5.79007 0.460052C6.0971 0.214046 6.46707 0.0592376 6.8578 0.0132686C7.24854 -0.0327005 7.64433 0.0320207 8.00007 0.200053C8.2999 0.343595 8.55294 0.569112 8.72991 0.850499C8.90689 1.13189 9.00055 1.45764 9.00007 1.79005Z" fill="#ffffff"/>
</svg>
