<svg width="19" height="18" viewBox="0 0 19 18" fill="none" xmlns="http://www.w3.org/2000/svg">
<path fill-rule="evenodd" clip-rule="evenodd" d="M0.875 1.09375C0.875 0.903126 0.950725 0.720309 1.08552 0.585517C1.22031 0.450725 1.40313 0.375 1.59375 0.375H17.4062C17.5969 0.375 17.7797 0.450725 17.9145 0.585517C18.0493 0.720309 18.125 0.903126 18.125 1.09375V16.9062C18.125 17.0969 18.0493 17.2797 17.9145 17.4145C17.7797 17.5493 17.5969 17.625 17.4062 17.625H1.59375C1.40313 17.625 1.22031 17.5493 1.08552 17.4145C0.950725 17.2797 0.875 17.0969 0.875 16.9062V1.09375ZM2.3125 1.8125V16.1875H16.6875V1.8125H2.3125Z" fill="#3D3D3D"/>
</svg>
