<svg width="12" height="9" viewBox="0 0 12 9" fill="none" xmlns="http://www.w3.org/2000/svg">
<path d="M1.79005 -2.80004e-06L10.2101 -2.06394e-06C10.5425 -0.000483341 10.8682 0.0931833 11.1496 0.270157C11.431 0.44713 11.6565 0.700174 11.8001 0.999998C11.9681 1.35574 12.0328 1.75153 11.9868 2.14227C11.9409 2.533 11.7861 2.90297 11.5401 3.21L7.33005 8.31C7.16484 8.50063 6.96057 8.65351 6.7311 8.75829C6.50163 8.86308 6.25232 8.9173 6.00005 8.9173C5.74779 8.9173 5.49848 8.86308 5.26901 8.75829C5.03953 8.65351 4.83527 8.50063 4.67005 8.31L0.460052 3.21C0.214046 2.90296 0.0592379 2.533 0.0132691 2.14226C-0.0326998 1.75153 0.0320213 1.35574 0.200054 0.999997C0.343596 0.700173 0.569112 0.447129 0.8505 0.270156C1.13189 0.0931825 1.45764 -0.000484135 1.79005 -2.80004e-06Z" fill="#2F2F2F"/>
</svg>
