<svg width="27" height="28" viewBox="0 0 27 28" fill="none" xmlns="http://www.w3.org/2000/svg">
<g clip-path="url(#clip0_743_18365)">
<path d="M13.5 0.5C9.92039 0.5 6.48422 1.9232 3.95508 4.45402C1.42335 6.98587 0.000724462 10.4195 0 14C0 17.579 1.42383 21.0151 3.95508 23.546C6.48422 26.0768 9.92039 27.5 13.5 27.5C17.0796 27.5 20.5158 26.0768 23.0449 23.546C25.5762 21.0151 27 17.579 27 14C27 10.421 25.5762 6.98485 23.0449 4.45402C20.5158 1.9232 17.0796 0.5 13.5 0.5Z" fill="url(#paint0_linear_743_18365)"/>
<path d="M6.11095 13.8574C10.047 12.1429 12.6711 11.0126 13.9831 10.4664C17.7336 8.90692 18.512 8.63607 19.0203 8.6269C19.1321 8.6251 19.381 8.65274 19.5434 8.78404C19.6784 8.89479 19.7164 9.04455 19.7354 9.1497C19.7523 9.25475 19.7755 9.49417 19.7565 9.68106C19.554 11.8157 18.6744 16.9959 18.2272 19.3869C18.0395 20.3986 17.6661 20.7378 17.3054 20.7709C16.5207 20.843 15.9259 20.2528 15.1665 19.7552C13.9789 18.9762 13.3081 18.4915 12.1543 17.7315C10.8212 16.8531 11.686 16.3703 12.4454 15.5814C12.6437 15.3749 16.0988 12.233 16.1642 11.948C16.1727 11.9124 16.1811 11.7795 16.1009 11.7094C16.0229 11.6392 15.9069 11.6632 15.8225 11.6822C15.7023 11.7092 13.8059 12.9639 10.1272 15.446C9.58931 15.816 9.10204 15.9963 8.66329 15.9868C8.18235 15.9765 7.25423 15.7143 6.56446 15.4903C5.72071 15.2154 5.04782 15.0701 5.10688 14.6033C5.13641 14.3603 5.47181 14.1116 6.11095 13.8574Z" fill="white"/>
</g>
<defs>
<linearGradient id="paint0_linear_743_18365" x1="1350" y1="0.5" x2="1350" y2="2700.5" gradientUnits="userSpaceOnUse">
<stop stop-color="#2AABEE"/>
<stop offset="1" stop-color="#229ED9"/>
</linearGradient>
<clipPath id="clip0_743_18365">
<rect width="27" height="27" fill="white" transform="translate(0 0.5)"/>
</clipPath>
</defs>
</svg>
