<svg width="33" height="34" viewBox="0 0 33 34" fill="none" xmlns="http://www.w3.org/2000/svg">
<g clip-path="url(#clip0_743_18361)">
<path d="M0.704307 16.8025C0.703533 19.5752 1.43366 22.2824 2.82198 24.6687L0.571533 32.8217L8.98035 30.634C11.3061 31.8903 13.912 32.5486 16.56 32.5488H16.567C25.3088 32.5488 32.4248 25.4905 32.4285 16.8149C32.4302 12.611 30.7817 8.65791 27.7867 5.68381C24.7922 2.70998 20.8097 1.07136 16.5664 1.06944C7.82354 1.06944 0.708045 8.12735 0.704436 16.8025" fill="url(#paint0_linear_743_18361)"/>
<path d="M0.13793 16.7974C0.137027 19.6698 0.89332 22.4739 2.33114 24.9456L0 33.3909L8.71032 31.1248C11.1103 32.4232 13.8124 33.1077 16.562 33.1087H16.5691C25.6245 33.1087 32.9961 25.7965 33 16.8104C33.0015 12.4555 31.2938 8.36027 28.1918 5.27963C25.0894 2.19937 20.9644 0.501791 16.5691 0.5C7.51214 0.5 0.141539 7.81116 0.13793 16.7974ZM5.32525 24.5199L5.00002 24.0076C3.63284 21.8506 2.91122 19.358 2.91225 16.7984C2.91509 9.32929 9.04123 3.25256 16.5743 3.25256C20.2223 3.25409 23.6507 4.66516 26.2293 7.22535C28.8078 9.78579 30.2267 13.1894 30.2258 16.8094C30.2225 24.2785 24.0962 30.356 16.5691 30.356H16.5637C14.1128 30.3548 11.7091 29.7017 9.6128 28.4675L9.11393 28.174L3.94505 29.5186L5.32525 24.5199Z" fill="url(#paint1_linear_743_18361)"/>
<path d="M12.4625 9.98405C12.1549 9.30576 11.8313 9.29207 11.5388 9.28017C11.2993 9.26994 11.0255 9.27071 10.7519 9.27071C10.4781 9.27071 10.0333 9.37291 9.65726 9.78029C9.28086 10.1881 8.22021 11.1735 8.22021 13.1776C8.22021 15.1818 9.69142 17.1188 9.89651 17.3909C10.1019 17.6624 12.7367 21.9069 16.9097 23.5398C20.3777 24.8967 21.0835 24.6268 21.8362 24.5588C22.589 24.491 24.2653 23.5737 24.6073 22.6224C24.9495 21.6713 24.9495 20.856 24.8469 20.6856C24.7443 20.5159 24.4705 20.414 24.06 20.2103C23.6494 20.0067 21.6308 19.0211 21.2546 18.8851C20.8782 18.7493 20.6045 18.6815 20.3307 19.0894C20.0569 19.4966 19.2707 20.414 19.0311 20.6856C18.7917 20.958 18.552 20.9918 18.1416 20.7881C17.7308 20.5837 16.4086 20.1541 14.8399 18.7664C13.6195 17.6866 12.7955 16.3532 12.556 15.9453C12.3165 15.538 12.5303 15.3173 12.7362 15.1143C12.9207 14.9317 13.1469 14.6386 13.3524 14.4008C13.5571 14.1629 13.6254 13.9932 13.7623 13.7215C13.8993 13.4496 13.8307 13.2117 13.7283 13.0079C13.6254 12.8041 12.8276 10.7895 12.4625 9.98405Z" fill="white"/>
</g>
<defs>
<linearGradient id="paint0_linear_743_18361" x1="1593.42" y1="3176.3" x2="1593.42" y2="1.06944" gradientUnits="userSpaceOnUse">
<stop stop-color="#1FAF38"/>
<stop offset="1" stop-color="#60D669"/>
</linearGradient>
<linearGradient id="paint1_linear_743_18361" x1="1650" y1="3289.59" x2="1650" y2="0.5" gradientUnits="userSpaceOnUse">
<stop stop-color="#F9F9F9"/>
<stop offset="1" stop-color="white"/>
</linearGradient>
<clipPath id="clip0_743_18361">
<rect width="33" height="33" fill="white" transform="translate(0 0.5)"/>
</clipPath>
</defs>
</svg>
