<svg width="242" height="62" viewBox="0 0 242 62" fill="none" xmlns="http://www.w3.org/2000/svg">
<path d="M57.5 37.3998C56.9 40.2998 55.9 43.1998 54.5 45.7998C53.1 48.2998 51.4 50.5998 49.3 52.5998C47.2 54.5998 44.9 56.1998 42.3 57.4998C39.7 58.7998 37 59.6998 34.2 60.1998C31.3 60.6998 28.3 60.6998 25.3 60.2998C22.3 59.8998 19.4 58.8998 16.8 57.5998C14.2 56.2998 11.8 54.5998 9.70001 52.5998C7.70001 50.5998 5.9 48.2998 4.5 45.7998C3.1 43.2998 2.1 40.5998 1.5 37.6998C0.900004 34.7998 0.800005 31.7998 1.1 28.8998C1.4 25.8998 2.2 22.8998 3.5 20.1998C4.7 17.5998 6.30001 15.0998 8.20001 12.9998C10.1 10.8998 12.3 8.99979 14.8 7.59979C17.3 6.09979 19.9 4.99979 22.7 4.39979C25.6 3.69979 28.5 3.49979 31.5 3.69979C34.5 3.89979 37.5 4.59979 40.3 5.69979C43 6.79979 45.5 8.29979 47.8 10.1998C50 11.9998 51.9 14.1998 53.4 16.5998C55 18.9998 56.2 21.5998 56.9 24.3998C57.7 27.1998 58 30.0998 57.9 32.9998C57.9 34.4998 57.8 35.9998 57.5 37.3998C57.4 37.7998 58 37.8998 58.1 37.5998C58.7 34.5998 58.8 31.4998 58.4 28.4998C58 25.5998 57.2 22.6998 56 20.0998C54.8 17.3998 53.2 14.9998 51.2 12.7998C49.3 10.5998 47 8.69979 44.5 7.19979C41.9 5.59979 39.1 4.49979 36.1 3.79979C33.1 3.09979 30 2.89979 27 3.19979C24.1 3.49979 21.2 4.19979 18.5 5.29979C15.8 6.39979 13.3 7.89979 11 9.79979C8.7 11.6998 6.80001 13.8998 5.20001 16.2998C3.60001 18.7998 2.3 21.5998 1.5 24.4998C0.700004 27.4998 0.400004 30.5998 0.500004 33.5998C0.600004 36.4998 1.2 39.4998 2.3 42.1998C3.3 44.8998 4.7 47.4998 6.5 49.7998C8.3 52.0998 10.4 54.1998 12.8 55.7998C15.2 57.4998 18 58.8998 20.8 59.7998C23.7 60.6998 26.8 61.1998 29.9 61.0998C32.9 61.0998 35.8 60.5998 38.6 59.5998C41.4 58.6998 44 57.2998 46.4 55.5998C48.8 53.8998 50.9 51.8998 52.7 49.4998C54.5 47.0998 55.9 44.4998 56.9 41.6998C57.4 40.2998 57.8 38.7998 58.1 37.3998C58.1 37.1998 57.6 36.9998 57.5 37.3998Z" fill="url(#paint0_radial_743_18240)"/>
<path d="M40.0002 37.4998C39.6002 42.5998 38.8002 47.8998 36.9002 52.6998C36.2002 54.3998 35.4002 56.0998 34.2002 57.5998C33.4002 58.6998 32.4002 59.6998 31.1002 60.1998C30.0002 60.6998 28.9002 60.6998 27.8002 60.1998C26.5002 59.6998 25.5002 58.5998 24.6002 57.4998C23.5002 55.9998 22.6002 54.1998 21.9002 52.3998C21.1002 50.1998 20.4002 47.8998 20.0002 45.6998C18.9002 40.1998 18.5002 34.4998 18.7002 28.8998C18.9002 23.4998 19.7002 18.0998 21.4002 12.9998C22.0002 11.0998 22.8002 9.1998 23.9002 7.5998C24.7002 6.3998 25.6002 5.1998 26.9002 4.3998C27.9002 3.7998 29.0002 3.4998 30.1002 3.6998C31.4002 3.9998 32.5002 4.7998 33.4002 5.7998C34.6002 7.0998 35.5002 8.6998 36.2002 10.2998C37.1002 12.3998 37.8002 14.4998 38.3002 16.6998C39.6002 22.0998 40.1002 27.5998 40.0002 33.0998C40.2002 34.5998 40.1002 35.9998 40.0002 37.4998C40.0002 37.8998 40.5002 37.8998 40.6002 37.4998C41.0002 31.5998 40.8002 25.6998 39.8002 19.8998C39.4002 17.3998 38.8002 14.9998 37.9002 12.5998C37.2002 10.6998 36.4002 8.7998 35.3002 7.0998C33.8002 4.7998 31.4002 2.4998 28.4002 3.1998C27.1002 3.4998 26.0002 4.3998 25.1002 5.2998C23.9002 6.5998 23.0002 8.1998 22.2002 9.7998C20.1002 14.3998 19.1002 19.4998 18.5002 24.5998C17.9002 30.4998 18.0002 36.4998 18.8002 42.3998C19.2002 44.9998 19.7002 47.4998 20.4002 49.9998C21.0002 52.0998 21.8002 54.0998 22.8002 55.9998C24.1002 58.3998 26.4002 61.3998 29.5002 61.1998C32.5002 61.0998 34.6002 58.0998 36.0002 55.6998C37.0002 53.7998 37.8002 51.6998 38.4002 49.6998C39.1002 47.0998 39.7002 44.4998 40.0002 41.8998C40.2002 40.4998 40.3002 38.9998 40.5002 37.4998C40.6002 37.0998 40.0002 37.0998 40.0002 37.4998Z" fill="url(#paint1_radial_743_18240)"/>
<path d="M24.1001 42.6998C19.0001 42.2998 13.7001 41.4998 8.90012 39.5998C7.20012 38.8998 5.50012 38.0998 4.00012 36.8998C2.90012 36.0998 1.90012 35.0998 1.40012 33.7998C0.900119 32.6998 0.900119 31.5998 1.40012 30.4998C1.90012 29.1998 3.00012 28.1998 4.10012 27.2998C5.60012 26.1998 7.40012 25.2998 9.20012 24.5998C11.4001 23.7998 13.7001 23.0998 15.9001 22.6998C21.4001 21.5998 27.1001 21.1998 32.7001 21.3998C38.1001 21.5998 43.5001 22.3998 48.6001 24.0998C50.5001 24.6998 52.4001 25.4998 54.0001 26.5998C55.2001 27.3998 56.4001 28.2998 57.2001 29.5998C57.8001 30.5998 58.1001 31.6998 57.9001 32.7998C57.6001 34.0998 56.8001 35.1998 55.8001 36.0998C54.5001 37.2998 52.9001 38.1998 51.3001 38.8998C49.2001 39.7998 47.1001 40.4998 44.9001 40.9998C39.5001 42.2998 34.0001 42.7998 28.5001 42.6998C27.0001 42.7998 25.6001 42.7998 24.1001 42.6998C23.7001 42.6998 23.7001 43.1998 24.1001 43.2998C30.0001 43.6998 35.9001 43.4998 41.7001 42.4998C44.2001 42.0998 46.6001 41.4998 49.0001 40.5998C50.9001 39.8998 52.8001 39.0998 54.5001 37.9998C56.8001 36.4998 59.1001 34.0998 58.4001 31.0998C58.1001 29.7998 57.2001 28.6998 56.3001 27.7998C55.0001 26.5998 53.4001 25.6998 51.8001 24.8998C47.2001 22.7998 42.1001 21.7998 37.0001 21.1998C31.1001 20.5998 25.1001 20.6998 19.2001 21.4998C16.6001 21.8998 14.1001 22.3998 11.6001 23.0998C9.50012 23.6998 7.50012 24.4998 5.60012 25.4998C3.20012 26.7998 0.200119 29.0998 0.400119 32.1998C0.500119 35.1998 3.50012 37.2998 5.90012 38.6998C7.80012 39.6998 9.90012 40.4998 11.9001 41.0998C14.5001 41.7998 17.1001 42.3998 19.7001 42.6998C21.1001 42.8998 22.6001 42.9998 24.1001 43.1998C24.5001 43.2998 24.5001 42.6998 24.1001 42.6998Z" fill="url(#paint2_radial_743_18240)"/>
<path d="M40.7002 28.4998C42.7002 30.7998 44.5002 33.1998 46.1002 35.6998C47.4002 37.7998 48.6002 39.9998 49.6002 42.2998C50.3002 44.0998 50.9002 45.8998 51.0002 47.7998C51.1002 49.1998 50.9002 50.5998 50.1002 51.6998C49.4002 52.6998 48.3002 53.2998 47.0002 53.4998C45.6002 53.7998 44.1002 53.5998 42.7002 53.1998C40.9002 52.7998 39.1002 52.0998 37.4002 51.1998C35.4002 50.1998 33.4002 48.9998 31.5002 47.6998C29.4002 46.2998 27.4002 44.6998 25.4002 42.9998C23.3002 41.1998 21.4002 39.2998 19.5002 37.1998C17.5002 34.9998 15.6002 32.5998 13.8002 30.1998C12.3002 27.9998 10.9002 25.7998 9.90019 23.3998C9.00019 21.4998 8.30019 19.5998 8.00019 17.5998C7.80019 16.1998 7.80019 14.5998 8.30019 13.2998C8.80019 12.0998 9.70019 11.2998 10.9002 10.8998C12.2002 10.4998 13.6002 10.4998 14.9002 10.6998C16.7002 10.9998 18.4002 11.5998 20.0002 12.2998C22.0002 13.1998 23.9002 14.1998 25.8002 15.3998C27.9002 16.6998 29.9002 18.1998 31.9002 19.7998C34.0002 21.4998 36.0002 23.3998 37.9002 25.3998C38.9002 26.3998 39.8002 27.3998 40.7002 28.4998C40.9002 28.7998 41.3002 28.3998 41.1002 28.0998C39.2002 25.8998 37.3002 23.8998 35.2002 21.9998C33.2002 20.1998 31.2002 18.4998 29.0002 16.8998C27.1002 15.4998 25.0002 14.1998 22.9002 13.0998C21.1002 12.1998 19.3002 11.2998 17.3002 10.7998C15.8002 10.3998 14.2002 10.0998 12.6002 10.1998C11.3002 10.2998 9.90019 10.6998 8.90019 11.6998C7.90019 12.6998 7.50019 14.0998 7.40019 15.3998C7.30019 17.1998 7.70019 18.9998 8.20019 20.6998C8.90019 22.9998 10.0002 25.1998 11.2002 27.1998C12.7002 29.7998 14.4002 32.1998 16.3002 34.4998C18.2002 36.7998 20.2002 38.9998 22.3002 40.9998C24.3002 42.8998 26.3002 44.6998 28.5002 46.3998C30.5002 47.8998 32.5002 49.2998 34.6002 50.4998C36.4002 51.5998 38.4002 52.4998 40.4002 53.1998C42.0002 53.7998 43.7002 54.1998 45.4002 54.2998C46.8002 54.2998 48.2002 54.0998 49.3002 53.3998C50.4002 52.6998 51.1002 51.4998 51.4002 50.1998C51.8002 48.5998 51.5002 46.7998 51.1002 45.1998C50.6002 42.9998 49.7002 40.8998 48.6002 38.8998C47.3002 36.3998 45.7002 33.9998 44.0002 31.7998C43.1002 30.5998 42.1002 29.3998 41.1002 28.1998C40.9002 27.7998 40.5002 28.1998 40.7002 28.4998Z" fill="url(#paint3_radial_743_18240)"/>
<path d="M33.1 43.3998C30.8 45.3998 28.4001 47.1998 25.9001 48.7998C23.8001 50.0998 21.6 51.2998 19.3 52.2998C17.5 52.9998 15.7 53.5998 13.8 53.6998C12.4 53.7998 11 53.5998 9.90005 52.7998C8.90005 52.0998 8.30005 50.9998 8.10005 49.6998C7.80005 48.2998 8.00005 46.7998 8.40005 45.3998C8.80005 43.5998 9.50005 41.7998 10.4 40.0998C11.4 38.0998 12.6 36.0998 13.9 34.1998C15.3 32.0998 16.9 30.0998 18.6 28.0998C20.4 25.9998 22.3001 24.0998 24.4001 22.1998C26.6001 20.1998 29.0001 18.2998 31.4001 16.4998C33.6001 14.9998 35.8001 13.5998 38.2001 12.5998C40.1001 11.6998 42 10.9998 44 10.6998C45.4 10.4998 47 10.4998 48.3 10.9998C49.5 11.4998 50.3 12.3998 50.7 13.5998C51.1 14.8998 51.1001 16.2998 50.9001 17.5998C50.6001 19.3998 50 21.0998 49.3 22.6998C48.4 24.6998 47.4001 26.5998 46.2001 28.4998C44.9001 30.5998 43.4 32.5998 41.8 34.5998C40.1 36.6998 38.2001 38.6998 36.2001 40.5998C35.2001 41.5998 34.2 42.4998 33.1 43.3998C32.8 43.5998 33.2 43.9998 33.5 43.7998C35.7 41.8998 37.7 39.9998 39.6 37.8998C41.4 35.8998 43.1001 33.8998 44.7001 31.6998C46.1001 29.7998 47.4 27.6998 48.5 25.5998C49.4 23.7998 50.3001 21.9998 50.8001 19.9998C51.2001 18.4998 51.5001 16.8998 51.4001 15.2998C51.3001 13.9998 50.9001 12.5998 49.9001 11.5998C48.9001 10.5998 47.5001 10.1998 46.2001 10.0998C44.4001 9.9998 42.6001 10.3998 40.9001 10.8998C38.6001 11.5998 36.4001 12.6998 34.4001 13.8998C31.8001 15.3998 29.4 17.0998 27.1 18.9998C24.8 20.8998 22.6 22.8998 20.6 24.9998C18.7 26.9998 16.9001 28.9998 15.2001 31.1998C13.7001 33.1998 12.3001 35.1998 11.1 37.2998C10 39.0998 9.10005 41.0998 8.40005 43.0998C7.80005 44.6998 7.40005 46.3998 7.30005 48.0998C7.30005 49.4998 7.50005 50.8998 8.20005 51.9998C8.90005 53.0998 10.1 53.7998 11.4 54.0998C13 54.4998 14.8 54.1998 16.4 53.7998C18.6 53.2998 20.7001 52.3998 22.7001 51.2998C25.2001 49.9998 27.6 48.3998 29.8 46.6998C31 45.7998 32.2001 44.7998 33.4001 43.7998C33.8001 43.4998 33.4 43.0998 33.1 43.3998Z" fill="url(#paint4_radial_743_18240)"/>
<path d="M41.3 32.9998C43 38.0998 44.2 43.3998 44.2 48.7998C44.2 50.6998 44 52.5998 43.5 54.3998C43.1 55.6998 42.5 56.9998 41.4 57.8998C39.2 59.6998 36.2 58.4998 34.1 57.0998C32.5 56.0998 31.1 54.6998 29.9 53.2998C28.3 51.5998 26.9 49.6998 25.7 47.7998C22.7 43.2998 20.3 38.2998 18.4 33.1998C16.5 27.9998 15.1 22.5998 14.8 17.0998C14.7 15.0998 14.8 12.9998 15.2 11.0998C15.5 9.6998 16 8.1998 16.9 7.0998C17.7 6.1998 18.7 5.5998 19.9 5.5998C21.3 5.4998 22.6 5.9998 23.8 6.6998C25.4 7.5998 26.7 8.6998 28 9.9998C29.6 11.5998 31 13.2998 32.3 15.0998C35.4 19.4998 37.9 24.2998 39.8 29.1998C40.3 30.3998 40.8 31.6998 41.3 32.9998C41.4 33.3998 42 33.1998 41.9 32.7998C40.1 27.3998 37.7 22.1998 34.7 17.3998C33.4 15.2998 32 13.2998 30.4 11.4998C29.1 9.8998 27.6 8.4998 26 7.1998C23.8 5.5998 20.7 3.9998 18 5.3998C16.8 5.9998 16 7.1998 15.4 8.3998C14.7 10.0998 14.4 11.8998 14.3 13.5998C14.1 15.8998 14.3 18.2998 14.6 20.5998C15 23.4998 15.7 26.2998 16.5 29.0998C18.1 34.5998 20.4 39.9998 23.3 44.9998C24.6 47.1998 26 49.2998 27.5 51.2998C28.8 52.9998 30.3 54.5998 31.9 55.9998C33.2 57.0998 34.6 58.0998 36.2 58.6998C37.4 59.1998 38.8 59.3998 40.1 58.9998C43.1 58.0998 44.2 54.5998 44.5 51.7998C44.8 49.5998 44.7 47.3998 44.5 45.1998C44.2 42.3998 43.7 39.6998 43 36.9998C42.6 35.4998 42.2 34.0998 41.7 32.6998C41.7 32.4998 41.1 32.6998 41.3 32.9998Z" fill="url(#paint5_radial_743_18240)"/>
<path d="M28.6 43.8998C23.5 45.5998 18.2 46.7998 12.8 46.7998C10.9 46.7998 9 46.5998 7.2 46.0998C5.9 45.6998 4.6 45.0998 3.7 43.9998C1.9 41.7998 3.1 38.7998 4.5 36.6998C5.5 35.0998 6.89999 33.6998 8.29999 32.4998C9.99999 30.8998 11.9 29.4998 13.8 28.2998C18.3 25.2998 23.3 22.8998 28.4 20.9998C33.6 19.0998 39 17.6998 44.5 17.3998C46.5 17.2998 48.6 17.3998 50.5 17.7998C51.9 18.0998 53.4 18.5998 54.5 19.4998C55.4 20.2998 56 21.2998 56 22.4998C56.1 23.8998 55.6 25.1998 54.9 26.3998C54 27.9998 52.9 29.2998 51.6 30.5998C50 32.1998 48.3 33.5998 46.5 34.8998C42.1 37.9998 37.3 40.4998 32.4 42.3998C31.2 42.9998 29.9 43.4998 28.6 43.8998C28.2 43.9998 28.4 44.5998 28.8 44.4998C34.2 42.6998 39.4 40.2998 44.2 37.2998C46.3 35.9998 48.3 34.5998 50.1 32.9998C51.7 31.6998 53.1 30.1998 54.4 28.5998C56 26.3998 57.6 23.2998 56.2 20.5998C55.6 19.3998 54.4 18.5998 53.2 17.9998C51.5 17.2998 49.7 16.9998 48 16.8998C45.7 16.6998 43.3 16.8998 41 17.1998C38.1 17.5998 35.3 18.2998 32.5 19.0998C27 20.6998 21.6 22.9998 16.6 25.8998C14.4 27.1998 12.3 28.5998 10.3 30.0998C8.59999 31.3998 7 32.8998 5.6 34.4998C4.5 35.7998 3.5 37.1998 2.9 38.7998C2.4 39.9998 2.2 41.3998 2.6 42.6998C3.5 45.6998 6.99999 46.7998 9.79999 47.0998C12 47.3998 14.2 47.2998 16.4 47.0998C19.2 46.7998 21.9 46.2998 24.6 45.5998C26.1 45.1998 27.5 44.7998 28.9 44.2998C29.1 44.2998 28.9 43.7998 28.6 43.8998Z" fill="url(#paint6_radial_743_18240)"/>
<path d="M38.4001 24.3998C43.0001 26.6998 47.6001 29.4998 51.3001 33.1998C52.6001 34.4998 53.9001 35.8998 54.8001 37.4998C55.5001 38.6998 56 39.9998 56 41.3998C56 42.4998 55.6 43.5998 54.7 44.3998C53.7 45.3998 52.3001 45.8998 50.9001 46.2998C49.1001 46.7998 47.1001 46.8998 45.2001 46.7998C42.9001 46.6998 40.5001 46.3998 38.2001 45.9998C32.7001 44.8998 27.3001 43.0998 22.2001 40.6998C17.3001 38.3998 12.5 35.5998 8.50005 32.0998C7.00005 30.7998 5.60005 29.2998 4.50005 27.6998C3.70005 26.4998 2.90005 25.1998 2.70005 23.6998C2.50005 22.5998 2.70005 21.3998 3.40005 20.3998C4.20005 19.2998 5.40005 18.5998 6.60005 18.1998C8.30005 17.5998 10.1 17.3998 11.8 17.3998C14.1 17.2998 16.3 17.4998 18.6 17.8998C24 18.6998 29.3 20.3998 34.3 22.5998C35.8 23.1998 37.1001 23.7998 38.4001 24.3998C38.7001 24.5998 39.0001 24.0998 38.7001 23.8998C33.5001 21.2998 28 19.1998 22.3 17.9998C19.9 17.4998 17.4 17.0998 14.9 16.8998C12.9 16.7998 10.8 16.7998 8.80005 17.1998C6.10005 17.6998 2.90005 18.9998 2.40005 21.9998C2.20005 23.2998 2.50005 24.6998 3.00005 25.8998C3.70005 27.4998 4.80005 28.9998 6.00005 30.2998C7.60005 31.9998 9.30005 33.4998 11.2 34.8998C13.4 36.5998 15.8 37.9998 18.2 39.2998C23.4 42.0998 29.0001 44.3998 34.7001 45.7998C37.2001 46.3998 39.7 46.8998 42.3 47.1998C44.5 47.3998 46.6 47.4998 48.8 47.2998C51.6 46.9998 55.2001 46.0998 56.3001 43.1998C57.4001 40.3998 55.5001 37.2998 53.8001 35.0998C52.4001 33.3998 50.8001 31.8998 49.2001 30.5998C47.1001 28.8998 44.9 27.3998 42.6 26.0998C41.3 25.3998 40.0001 24.6998 38.7001 23.9998C38.4001 23.7998 38.1001 24.2998 38.4001 24.3998Z" fill="url(#paint7_radial_743_18240)"/>
<path d="M37.1999 41.0998C34.8999 45.6998 32.0999 50.2998 28.3999 53.9998C27.0999 55.2998 25.6999 56.5998 24.0999 57.4998C22.8999 58.1998 21.5999 58.6998 20.1999 58.6998C19.0999 58.6998 17.9999 58.2998 17.1999 57.3998C16.1999 56.3998 15.6999 54.9998 15.2999 53.5998C14.7999 51.7998 14.6999 49.7998 14.7999 47.8998C14.8999 45.5998 15.1999 43.1998 15.5999 40.8998C16.6999 35.3998 18.4999 29.9998 20.8999 24.8998C23.1999 19.9998 25.9999 15.1998 29.4999 11.1998C30.7999 9.69981 32.2999 8.29981 33.8999 7.19981C35.0999 6.39981 36.3999 5.59981 37.8999 5.39981C38.9999 5.19981 40.1999 5.39981 41.1999 6.09981C42.2999 6.89981 42.9999 8.09981 43.3999 9.29981C43.9999 10.9998 44.1999 12.7998 44.1999 14.4998C44.2999 16.7998 44.0999 18.9998 43.6999 21.2998C42.8999 26.6998 41.1999 31.9998 38.9999 36.9998C38.3999 38.4998 37.7999 39.7998 37.1999 41.0998C36.9999 41.3998 37.4999 41.6998 37.6999 41.3998C40.2999 36.1998 42.3999 30.5998 43.5999 24.8998C44.0999 22.4998 44.4999 19.9998 44.6999 17.4998C44.7999 15.4998 44.7999 13.3998 44.3999 11.3998C43.8999 8.69981 42.5999 5.49981 39.5999 4.99981C38.2999 4.79981 36.8999 5.09981 35.6999 5.59981C34.0999 6.29981 32.5999 7.39981 31.2999 8.59981C29.5999 10.1998 28.0999 11.8998 26.6999 13.7998C24.9999 15.9998 23.5999 18.3998 22.2999 20.7998C19.4999 25.9998 17.1999 31.5998 15.7999 37.2998C15.1999 39.7998 14.6999 42.2998 14.3999 44.8998C14.1999 47.0998 14.0999 49.1998 14.2999 51.3998C14.5999 54.1998 15.4999 57.7998 18.3999 58.8998C21.1999 59.9998 24.2999 58.0998 26.4999 56.3998C28.1999 54.9998 29.6999 53.3998 30.9999 51.7998C32.6999 49.6998 34.1999 47.4998 35.4999 45.1998C36.1999 43.8998 36.8999 42.5998 37.5999 41.2998C37.7999 40.9998 37.2999 40.7998 37.1999 41.0998Z" fill="url(#paint8_radial_743_18240)"/>
<path d="M40.8 35.3998C41.4 40.5998 41.6 45.8998 40.6 50.9998C40.3 52.7998 39.8 54.5998 38.9 56.2998C38.3 57.4998 37.5 58.6998 36.4 59.4998C35.4 60.0998 34.3 60.3998 33.2 60.0998C31.8 59.7998 30.6 58.9998 29.6 57.9998C28.2 56.6998 27 55.1998 26 53.5998C24.7 51.5998 23.7 49.4998 22.8 47.2998C20.7 42.0998 19.2 36.5998 18.4 31.0998C17.6 25.7998 17.3 20.2998 18.1 14.8998C18.4 12.8998 18.8 10.9998 19.5 9.0998C20 7.6998 20.8 6.3998 21.8 5.2998C22.6 4.4998 23.7 3.9998 24.8 3.9998C26.1 3.9998 27.4 4.5998 28.4 5.3998C29.8 6.4998 31 7.8998 32 9.2998C33.3 11.0998 34.4 13.0998 35.3 15.1998C37.6 20.1998 39.1 25.5998 40.1 30.9998C40.5 32.4998 40.7 33.8998 40.8 35.3998C40.8 35.7998 41.4 35.7998 41.4 35.3998C40.7 29.5998 39.4 23.7998 37.3 18.3998C36.4 16.0998 35.4 13.7998 34.1 11.5998C33.1 9.7998 31.9 8.0998 30.5 6.5998C28.6 4.5998 25.8 2.6998 23 3.8998C21.8 4.3998 20.8 5.4998 20.1 6.5998C19.1 8.0998 18.5 9.7998 18.1 11.4998C16.8 16.3998 16.8 21.6998 17.3 26.6998C17.8 32.5998 19 38.4998 21 44.0998C21.8 46.4998 22.8 48.8998 24 51.1998C25 53.0998 26.1 54.9998 27.5 56.6998C29.3 58.8998 32 61.2998 35.1 60.5998C38.1 59.9998 39.6 56.6998 40.4 54.0998C41.1 51.9998 41.4 49.8998 41.6 47.6998C41.9 44.9998 41.9 42.3998 41.7 39.6998C41.6 38.1998 41.5 36.7998 41.3 35.3998C41.4 34.9998 40.8 34.9998 40.8 35.3998Z" fill="url(#paint9_radial_743_18240)"/>
<path d="M26.2 43.4998C21 44.0998 15.7 44.2998 10.6 43.2998C8.80001 42.9998 7.00001 42.4998 5.30001 41.5998C4.10001 40.9998 2.90001 40.1998 2.10001 39.0998C1.50001 38.0998 1.20001 36.9998 1.50001 35.8998C1.80001 34.4998 2.60001 33.2998 3.60001 32.2998C4.90001 30.8998 6.40001 29.6998 8.00001 28.6998C10 27.3998 12.1 26.3998 14.3 25.4998C19.5 23.3998 25 21.8998 30.5 21.0998C35.8 20.2998 41.3 19.9998 46.7 20.7998C48.7 21.0998 50.6 21.4998 52.5 22.1998C53.9 22.6998 55.2 23.4998 56.3 24.4998C57.1 25.2998 57.6 26.3998 57.6 27.4998C57.6 28.7998 57 30.0998 56.2 31.0998C55.1 32.4998 53.7 33.6998 52.3 34.6998C50.5 35.9998 48.5 37.0998 46.4 37.9998C41.4 40.2998 36 41.7998 30.6 42.7998C29.1 43.0998 27.7 43.2998 26.2 43.4998C25.8 43.4998 25.8 44.0998 26.2 44.0998C32 43.3998 37.8 42.0998 43.2 39.9998C45.5 39.0998 47.8 38.0998 50 36.7998C51.8 35.7998 53.5 34.5998 55 33.1998C57 31.2998 58.9 28.4998 57.7 25.6998C57.2 24.4998 56.1 23.4998 55 22.7998C53.5 21.7998 51.8 21.1998 50.1 20.7998C45.2 19.4998 39.9 19.4998 34.9 19.9998C29 20.4998 23.1 21.6998 17.5 23.6998C15.1 24.4998 12.7 25.4998 10.4 26.6998C8.50001 27.6998 6.60001 28.7998 4.90001 30.1998C2.70001 31.9998 0.300007 34.6998 1.00001 37.7998C1.60001 40.7998 4.90001 42.2998 7.50001 43.0998C9.60001 43.7998 11.7 44.0998 13.9 44.2998C16.6 44.5998 19.2 44.5998 21.9 44.3998C23.4 44.2998 24.8 44.1998 26.2 43.9998C26.6 43.9998 26.6 43.3998 26.2 43.4998Z" fill="url(#paint10_radial_743_18240)"/>
<path d="M39.8 26.3998C42.1 28.1998 44.3 30.1998 46.3 32.2998C48 33.9998 49.6 35.8998 51 37.9998C52 39.5998 52.9 41.2998 53.5 43.0998C53.9 44.3998 54.1 45.7998 53.6 47.0998C53.2 48.1998 52.4 49.0998 51.3 49.5998C50 50.1998 48.5 50.3998 47.1 50.3998C45.2 50.3998 43.3 49.9998 41.5 49.5998C39.3 48.9998 37.1 48.2998 35 47.3998C32.6 46.3998 30.3 45.1998 28 43.8998C25.6 42.4998 23.2 40.8998 20.9 39.1998C18.5 37.3998 16.2 35.4998 14.1 33.3998C12.3 31.5998 10.5 29.6998 9.00003 27.5998C7.80003 25.9998 6.70003 24.1998 6.00003 22.2998C5.40003 20.9998 5.00003 19.3998 5.20003 17.9998C5.40003 16.7998 6.00003 15.7998 6.90003 15.0998C8.00003 14.2998 9.40003 13.9998 10.7 13.8998C12.5 13.7998 14.3 13.9998 16 14.2998C18.2 14.6998 20.3 15.3998 22.4 16.1998C24.8 17.0998 27.1 18.1998 29.3 19.3998C31.7 20.6998 34.1 22.1998 36.4 23.7998C37.6 24.6998 38.7 25.4998 39.8 26.3998C40.1 26.5998 40.5 26.1998 40.2 25.9998C37.9 24.1998 35.5 22.4998 33 20.9998C30.7 19.5998 28.3 18.2998 25.8 17.0998C23.6 16.0998 21.3 15.1998 19 14.4998C17 13.8998 15 13.4998 13 13.2998C11.4 13.1998 9.80002 13.1998 8.30002 13.7998C7.00003 14.1998 5.90003 14.9998 5.20003 16.0998C4.50003 17.2998 4.50003 18.6998 4.70003 20.0998C5.00003 21.8998 5.70003 23.5998 6.60003 25.0998C7.80003 27.1998 9.20002 28.9998 10.8 30.7998C12.7 32.9998 14.8 34.9998 17 36.7998C19.3 38.6998 21.7 40.4998 24.2 42.0998C26.5 43.5998 29 44.9998 31.5 46.2998C33.7 47.3998 36.1 48.3998 38.4 49.1998C40.4 49.8998 42.5 50.3998 44.6 50.6998C46.3 50.8998 48 50.9998 49.7 50.6998C51 50.3998 52.3 49.8998 53.2 48.7998C54.1 47.7998 54.4 46.4998 54.4 45.1998C54.3 43.4998 53.8 41.8998 53 40.3998C52 38.3998 50.8 36.5998 49.4 34.7998C47.7 32.5998 45.7 30.6998 43.7 28.7998C42.6 27.7998 41.4 26.7998 40.2 25.8998C39.9 25.6998 39.5 26.0998 39.8 26.3998Z" fill="url(#paint11_radial_743_18240)"/>
<path d="M35.2 42.3998C33.4 44.6998 31.4 46.8998 29.3 48.8998C27.5 50.5998 25.6 52.1998 23.6 53.4998C22 54.4998 20.3 55.3998 18.5 55.9998C17.2 56.3998 15.8 56.5998 14.5 56.0998C13.4 55.6998 12.5 54.8998 12 53.7998C11.4 52.4998 11.2 50.9998 11.2 49.5998C11.2 47.6998 11.6 45.7998 12 43.9998C12.6 41.7998 13.3 39.5998 14.2 37.4998C15.2 35.0998 16.4 32.7998 17.7 30.4998C19.1 28.0998 20.7 25.6998 22.4 23.3998C24.2 20.9998 26.1 18.6998 28.2 16.5998C30 14.7998 31.9 12.9998 34 11.4998C35.6 10.2998 37.4 9.19981 39.3 8.49981C40.7 7.99981 42.2 7.59981 43.6 7.79981C44.8 7.99981 45.8 8.59981 46.5 9.49981C47.3 10.5998 47.6 11.9998 47.7 13.2998C47.8 15.0998 47.6 16.8998 47.3 18.5998C46.9 20.7998 46.2 22.8998 45.4 24.9998C44.5 27.3998 43.4 29.6998 42.2 31.8998C40.9 34.2998 39.4 36.6998 37.8 38.9998C36.9 40.1998 36.1 41.2998 35.2 42.3998C35 42.6998 35.4 43.0998 35.6 42.7998C37.4 40.4998 39.1 38.0998 40.6 35.5998C42 33.2998 43.3 30.8998 44.5 28.3998C45.5 26.1998 46.4 23.8998 47.1 21.5998C47.7 19.5998 48.1 17.5998 48.3 15.5998C48.4 13.9998 48.4 12.3998 47.8 10.8998C47.4 9.59981 46.6 8.49981 45.5 7.79981C44.3 7.09981 42.9 7.09981 41.5 7.29981C39.7 7.59981 38 8.29981 36.5 9.19981C34.4 10.3998 32.6 11.7998 30.8 13.3998C28.6 15.2998 26.6 17.3998 24.8 19.5998C22.9 21.8998 21.1 24.2998 19.5 26.7998C18 29.0998 16.6 31.5998 15.3 34.0998C14.2 36.2998 13.2 38.6998 12.4 40.9998C11.7 42.9998 11.2 45.0998 10.9 47.1998C10.7 48.8998 10.6 50.5998 10.9 52.2998C11.2 53.5998 11.7 54.8998 12.8 55.7998C13.8 56.6998 15.1 56.9998 16.4 56.9998C18.1 56.8998 19.7 56.3998 21.2 55.5998C23.2 54.5998 25 53.3998 26.8 51.9998C29 50.2998 30.9 48.2998 32.8 46.2998C33.8 45.1998 34.8 43.9998 35.7 42.7998C35.9 42.5998 35.5 42.0998 35.2 42.3998Z" fill="url(#paint12_radial_743_18240)"/>
<path d="M41.2002 30.7998C42.7002 33.3998 44.0002 36.1998 45.1002 38.9998C46.0002 41.2998 46.7002 43.6998 47.1002 46.0998C47.4002 47.8998 47.6002 49.8998 47.3002 51.6998C47.1002 52.9998 46.7002 54.3998 45.7002 55.2998C43.7002 57.2998 40.4002 56.3998 38.2002 55.2998C36.5002 54.4998 34.9002 53.3998 33.4002 52.2998C31.6002 50.8998 29.9002 49.3998 28.4002 47.6998C24.7002 43.8998 21.5002 39.5998 18.8002 34.9998C15.9002 30.1998 13.5002 24.9998 12.2002 19.4998C11.7002 17.4998 11.4002 15.4998 11.5002 13.3998C11.6002 11.9998 11.9002 10.3998 12.7002 9.1998C13.4002 8.1998 14.5002 7.5998 15.7002 7.3998C17.1002 7.1998 18.5002 7.5998 19.7002 7.9998C21.4002 8.5998 22.9002 9.5998 24.4002 10.5998C26.2002 11.8998 27.8002 13.2998 29.4002 14.7998C33.1002 18.3998 36.4002 22.5998 39.2002 26.9998C39.9002 28.3998 40.6002 29.5998 41.2002 30.7998C41.4002 31.0998 41.9002 30.7998 41.7002 30.4998C40.3002 27.9998 38.8002 25.5998 37.1002 23.2998C35.5002 21.0998 33.9002 18.9998 32.0002 17.0998C30.4002 15.2998 28.7002 13.5998 26.8002 12.0998C25.2002 10.7998 23.6002 9.5998 21.8002 8.6998C20.4002 7.8998 18.9002 7.2998 17.3002 7.0998C16.0002 6.8998 14.6002 7.0998 13.5002 7.7998C12.3002 8.5998 11.6002 9.7998 11.3002 11.0998C10.8002 12.7998 10.8002 14.6998 11.0002 16.4998C11.3002 18.8998 11.9002 21.1998 12.6002 23.4998C13.5002 26.2998 14.7002 28.9998 16.1002 31.5998C17.5002 34.1998 19.0002 36.7998 20.6002 39.1998C22.1002 41.4998 23.8002 43.5998 25.6002 45.6998C27.2002 47.5998 29.0002 49.3998 30.8002 50.9998C32.4002 52.3998 34.1002 53.6998 35.9002 54.7998C37.3002 55.6998 38.9002 56.3998 40.5002 56.7998C41.8002 57.0998 43.3002 57.1998 44.5002 56.6998C45.8002 56.1998 46.7002 55.1998 47.2002 53.9998C47.9002 52.4998 48.0002 50.6998 48.0002 49.0998C47.9002 46.7998 47.5002 44.5998 46.8002 42.4998C46.0002 39.7998 45.0002 37.1998 43.8002 34.5998C43.1002 33.1998 42.4002 31.7998 41.7002 30.3998C41.6002 30.1998 41.1002 30.4998 41.2002 30.7998Z" fill="url(#paint13_radial_743_18240)"/>
<path d="M30.8003 43.8998C28.2003 45.3998 25.4003 46.6998 22.6003 47.7998C20.3003 48.6998 17.9003 49.3998 15.5003 49.7998C13.7003 50.0998 11.7003 50.2998 9.90029 49.9998C8.60029 49.7998 7.20029 49.3998 6.30029 48.3998C4.30029 46.3998 5.20029 43.0998 6.30029 40.8998C7.10029 39.1998 8.20029 37.5998 9.30029 36.0998C10.7003 34.2998 12.2003 32.5998 13.9003 31.0998C17.7003 27.3998 22.0003 24.1998 26.6003 21.4998C31.4003 18.5998 36.6003 16.1998 42.1003 14.8998C44.1003 14.3998 46.1003 14.0998 48.2003 14.1998C49.6003 14.2998 51.2003 14.5998 52.4003 15.3998C53.4003 16.0998 54.0003 17.1998 54.2003 18.3998C54.4003 19.7998 54.0003 21.1998 53.6003 22.3998C53.0003 24.0998 52.0003 25.5998 51.0003 27.0998C49.7003 28.8998 48.3003 30.4998 46.8003 32.0998C43.2003 35.7998 39.0003 39.0998 34.6003 41.8998C33.2003 42.4998 32.0003 43.1998 30.8003 43.8998C30.5003 44.0998 30.8003 44.5998 31.1003 44.3998C33.6003 42.9998 36.0003 41.4998 38.3003 39.7998C40.5003 38.1998 42.6003 36.5998 44.5003 34.6998C46.3003 33.0998 48.0003 31.3998 49.5003 29.4998C50.8003 27.8998 52.0003 26.2998 52.9003 24.4998C53.7003 23.0998 54.3003 21.5998 54.5003 19.9998C54.7003 18.6998 54.5003 17.2998 53.8003 16.1998C53.0003 14.9998 51.8003 14.2998 50.5003 13.9998C48.8003 13.4998 46.9003 13.4998 45.1003 13.6998C42.7003 13.9998 40.4003 14.5998 38.1003 15.2998C35.3003 16.1998 32.6003 17.3998 30.0003 18.7998C27.4003 20.1998 24.8003 21.6998 22.4003 23.2998C20.1003 24.7998 18.0003 26.4998 15.9003 28.2998C14.0003 29.8998 12.2003 31.6998 10.6003 33.4998C9.20029 35.0998 7.90029 36.7998 6.80029 38.5998C5.90029 39.9998 5.20029 41.5998 4.80029 43.1998C4.50029 44.4998 4.40029 45.9998 4.90029 47.1998C5.40029 48.4998 6.40029 49.3998 7.60029 49.8998C9.10029 50.5998 10.9003 50.6998 12.5003 50.6998C14.8003 50.5998 17.0003 50.1998 19.1003 49.4998C21.8003 48.6998 24.4003 47.6998 27.0003 46.4998C28.4003 45.7998 29.8003 45.0998 31.2003 44.3998C31.4003 44.1998 31.1003 43.6998 30.8003 43.8998Z" fill="url(#paint14_radial_743_18240)"/>
<path d="M36.9002 22.8998C41.8002 24.2998 46.7002 26.1998 51.0002 28.8998C52.6002 29.8998 54.1002 31.0998 55.3002 32.3998C56.2002 33.3998 57.0002 34.5998 57.3002 35.8998C57.6002 36.9998 57.4002 38.0998 56.9002 39.0998C56.2002 40.2998 55.0002 41.1998 53.7002 41.7998C52.0002 42.5998 50.2002 43.0998 48.3002 43.4998C45.9002 43.8998 43.6002 44.0998 41.2002 44.0998C35.5002 44.0998 29.8002 43.2998 24.2002 41.8998C19.0002 40.5998 13.9002 38.7998 9.30022 36.0998C7.60022 35.0998 6.00022 33.9998 4.50022 32.5998C3.40022 31.5998 2.40022 30.3998 1.90022 29.0998C1.50022 28.0998 1.30022 26.8998 1.70022 25.7998C2.10022 24.5998 3.10022 23.5998 4.20022 22.9998C5.70022 21.9998 7.40022 21.4998 9.20022 20.9998C11.4002 20.4998 13.7002 20.1998 15.9002 20.0998C21.5002 19.8998 27.1002 20.4998 32.6002 21.6998C34.0002 22.0998 35.4002 22.4998 36.9002 22.8998C37.3002 22.9998 37.4002 22.3998 37.1002 22.2998C31.4002 20.6998 25.4002 19.6998 19.5002 19.5998C17.0002 19.4998 14.4002 19.5998 11.9002 19.9998C9.90022 20.2998 7.90022 20.6998 6.00022 21.4998C3.50022 22.4998 0.800222 24.4998 1.00022 27.4998C1.10022 28.8998 1.70022 30.0998 2.50022 31.1998C3.60022 32.5998 4.90022 33.7998 6.40022 34.8998C10.4002 37.7998 15.2002 39.7998 19.9002 41.2998C25.6002 43.0998 31.6002 44.2998 37.6002 44.5998C40.2002 44.6998 42.8002 44.6998 45.4002 44.4998C47.6002 44.2998 49.7002 43.8998 51.8002 43.2998C54.5002 42.3998 57.7002 40.6998 58.0002 37.5998C58.1002 36.2998 57.7002 35.0998 57.1002 33.9998C56.3002 32.5998 55.1002 31.3998 53.8002 30.3998C50.1002 27.2998 45.6002 25.2998 41.1002 23.6998C39.7002 23.1998 38.4002 22.7998 37.0002 22.3998C36.7002 22.1998 36.5002 22.7998 36.9002 22.8998Z" fill="url(#paint15_radial_743_18240)"/>
<path d="M38.7003 39.4998C37.3003 44.3998 35.4003 49.2998 32.7003 53.5998C31.7003 55.1998 30.5003 56.6998 29.2003 57.8998C28.2003 58.7998 27.0003 59.5998 25.7003 59.8998C24.6003 60.1998 23.5003 59.9998 22.5003 59.4998C21.3003 58.7998 20.4003 57.5998 19.8003 56.2998C19.0003 54.5998 18.5003 52.7998 18.1003 50.8998C17.7003 48.4998 17.5003 46.1998 17.5003 43.7998C17.5003 38.0998 18.3003 32.3998 19.7003 26.7998C21.0003 21.5998 22.8003 16.4998 25.5003 11.8998C26.5003 10.1998 27.6003 8.59979 29.0003 7.09979C30.0003 5.99979 31.2003 4.99979 32.5003 4.49979C33.5003 4.09979 34.7003 3.89979 35.8003 4.29979C37.0003 4.69979 38.0003 5.69979 38.6003 6.79979C39.6003 8.29979 40.1003 9.99979 40.6003 11.7998C41.1003 13.9998 41.4003 16.2998 41.5003 18.4998C41.7003 24.0998 41.1003 29.6998 39.9003 35.1998C39.5003 36.5998 39.1003 38.0998 38.7003 39.4998C38.6003 39.8998 39.2003 39.9998 39.3003 39.6998C40.9003 33.8998 41.9003 27.9998 42.0003 21.9998C42.1003 19.4998 42.0003 16.8998 41.6003 14.3998C41.3003 12.3998 40.9003 10.3998 40.1003 8.49979C39.1003 5.99979 37.1003 3.29979 34.1003 3.49979C32.7003 3.59979 31.5003 4.19979 30.4003 4.99979C29.0003 6.09979 27.8003 7.39979 26.7003 8.89979C23.8003 12.8998 21.8003 17.6998 20.3003 22.3998C18.5003 28.0998 17.3003 34.0998 17.0003 40.0998C16.9003 42.6998 16.9003 45.2998 17.1003 47.8998C17.3003 50.0998 17.7003 52.1998 18.3003 54.2998C19.2003 56.9998 20.9003 60.1998 24.0003 60.4998C25.3003 60.5998 26.5003 60.1998 27.6003 59.5998C29.0003 58.7998 30.2003 57.5998 31.2003 56.2998C34.3003 52.5998 36.3003 48.0998 37.9003 43.5998C38.4003 42.1998 38.8003 40.8998 39.2003 39.4998C39.4003 39.2998 38.8003 39.0998 38.7003 39.4998Z" fill="url(#paint16_radial_743_18240)"/>
<path d="M41.1 34.1998C42.2 39.2998 42.9 44.6998 42.4 49.9998C42.2 51.7998 41.9 53.6998 41.2 55.3998C40.7 56.5998 40 57.8998 38.9 58.6998C36.6 60.3998 33.8 59.0998 31.8 57.5998C30.3 56.3998 29 54.9998 27.9 53.4998C26.5 51.6998 25.3 49.6998 24.2 47.5998C21.6 42.6998 19.6 37.3998 18.3 31.9998C17 26.6998 16.1 21.2998 16.4 15.7998C16.5 13.7998 16.7 11.7998 17.3 9.7998C17.7 8.3998 18.3 6.9998 19.3 5.9998C20.1 5.0998 21.2 4.5998 22.4 4.5998C23.7 4.5998 25 5.1998 26.2 5.8998C27.7 6.8998 29 8.1998 30.1 9.4998C31.5 11.1998 32.8 13.0998 33.9 14.9998C36.6 19.6998 38.6 24.7998 40.1 29.9998C40.5 31.3998 40.8 32.7998 41.1 34.1998C41.2 34.5998 41.7 34.3998 41.7 33.9998C40.4 28.3998 38.6 22.8998 36 17.6998C34.9 15.4998 33.7 13.2998 32.2 11.2998C31 9.5998 29.7 7.9998 28.2 6.6998C26.2 4.8998 23.2 3.0998 20.4 4.4998C19.2 5.0998 18.3 6.1998 17.7 7.3998C16.9 8.9998 16.4 10.7998 16.1 12.4998C15.3 17.5998 15.8 22.8998 16.8 27.8998C17.9 33.6998 19.7 39.2998 22.1 44.5998C23.2 46.8998 24.4 49.1998 25.8 51.2998C27 53.0998 28.3 54.7998 29.8 56.3998C31.8 58.3998 34.7 60.6998 37.7 59.8998C40.7 59.0998 42 55.6998 42.5 52.9998C43 50.7998 43.1 48.5998 43.1 46.3998C43.1 43.6998 42.8 40.9998 42.4 38.2998C42.2 36.7998 41.9 35.3998 41.6 33.8998C41.6 33.6998 41 33.8998 41.1 34.1998Z" fill="url(#paint17_radial_743_18240)"/>
<path d="M27.4001 43.7998C22.3001 44.8998 16.9001 45.5998 11.6001 45.0998C9.80006 44.8998 7.90006 44.5998 6.20006 43.8998C5.00006 43.3998 3.70006 42.6998 2.90006 41.5998C1.20006 39.2998 2.50006 36.4998 4.00006 34.4998C5.20006 32.9998 6.60006 31.6998 8.10006 30.5998C9.90006 29.1998 11.9001 27.9998 14.0001 26.8998C18.9001 24.2998 24.2001 22.2998 29.6001 20.9998C34.9001 19.6998 40.3001 18.7998 45.8001 19.0998C47.8001 19.1998 49.8001 19.3998 51.8001 19.9998C53.2001 20.3998 54.6001 20.9998 55.6001 21.9998C56.5001 22.7998 57.0001 23.8998 57.0001 25.0998C57.0001 26.3998 56.4001 27.6998 55.7001 28.8998C54.7001 30.3998 53.4001 31.6998 52.1001 32.7998C50.4001 34.1998 48.5001 35.4998 46.6001 36.5998C41.9001 39.2998 36.8001 41.2998 31.6001 42.7998C30.1001 43.0998 28.8001 43.3998 27.4001 43.7998C27.0001 43.8998 27.2001 44.3998 27.6001 44.3998C33.2001 43.0998 38.7001 41.2998 43.9001 38.6998C46.1001 37.5998 48.3001 36.3998 50.3001 34.8998C52.0001 33.6998 53.6001 32.3998 54.9001 30.8998C56.7001 28.8998 58.5001 25.8998 57.1001 23.0998C56.5001 21.8998 55.4001 20.9998 54.2001 20.3998C52.6001 19.5998 50.8001 19.0998 49.1001 18.7998C44.0001 17.9998 38.7001 18.4998 33.6001 19.4998C27.8001 20.5998 22.2001 22.3998 16.9001 24.7998C14.6001 25.8998 12.3001 27.0998 10.2001 28.4998C8.40006 29.6998 6.70006 30.9998 5.10006 32.4998C3.10006 34.4998 0.800062 37.3998 1.60006 40.3998C2.40006 43.3998 5.80006 44.6998 8.50006 45.1998C10.7001 45.6998 12.9001 45.7998 15.1001 45.7998C17.8001 45.7998 20.5001 45.4998 23.2001 45.0998C24.7001 44.8998 26.1001 44.5998 27.6001 44.2998C27.9001 44.1998 27.7001 43.6998 27.4001 43.7998Z" fill="url(#paint18_radial_743_18240)"/>
<path d="M39.2001 25.3998C41.6001 26.8998 44.0001 28.5998 46.2001 30.4998C48.0001 32.0998 49.8001 33.6998 51.3001 35.5998C52.5001 36.9998 53.6001 38.5998 54.3001 40.2998C54.8001 41.4998 55.2001 42.8998 55.0001 44.1998C54.8001 45.3998 54.2001 46.3998 53.2001 47.0998C52.0001 47.8998 50.6001 48.2998 49.2001 48.3998C47.3001 48.5998 45.4001 48.4998 43.5001 48.2998C41.2001 47.9998 38.9001 47.3998 36.7001 46.7998C34.2001 45.9998 31.7001 45.0998 29.2001 43.9998C26.6001 42.7998 24.0001 41.4998 21.6001 39.9998C19.1001 38.4998 16.6001 36.7998 14.3001 34.9998C12.3001 33.3998 10.4001 31.6998 8.70007 29.8998C7.30007 28.3998 6.10007 26.7998 5.10007 24.9998C4.40007 23.6998 3.80007 22.2998 3.80007 20.7998C3.80007 19.5998 4.10007 18.4998 5.00007 17.6998C5.90007 16.6998 7.30007 16.1998 8.60007 15.9998C10.3001 15.5998 12.2001 15.5998 13.9001 15.7998C16.1001 15.9998 18.3001 16.3998 20.5001 16.9998C23.0001 17.6998 25.5001 18.4998 27.9001 19.4998C30.5001 20.5998 33.1001 21.7998 35.5001 23.1998C36.8001 23.8998 38.0001 24.5998 39.2001 25.3998C39.5001 25.5998 39.8001 25.0998 39.5001 24.8998C37.0001 23.2998 34.4001 21.8998 31.7001 20.5998C29.2001 19.3998 26.6001 18.2998 24.0001 17.4998C21.7001 16.6998 19.3001 16.0998 16.9001 15.6998C14.9001 15.3998 12.8001 15.0998 10.8001 15.2998C9.20007 15.3998 7.60007 15.6998 6.20007 16.3998C5.00007 16.7998 4.00007 17.7998 3.60007 18.9998C3.10007 20.2998 3.30007 21.6998 3.70007 22.9998C4.20007 24.6998 5.20007 26.2998 6.20007 27.6998C7.60007 29.5998 9.20007 31.2998 10.9001 32.8998C13.0001 34.7998 15.2001 36.4998 17.6001 38.0998C20.1001 39.7998 22.7001 41.2998 25.4001 42.6998C27.9001 43.9998 30.5001 45.1998 33.2001 46.0998C35.6001 46.9998 38.0001 47.6998 40.5001 48.2998C42.6001 48.7998 44.8001 49.0998 46.9001 49.0998C48.6001 49.0998 50.3001 48.9998 51.9001 48.3998C53.2001 47.8998 54.3001 47.1998 55.0001 45.9998C55.7001 44.8998 55.8001 43.4998 55.5001 42.2998C55.2001 40.6998 54.4001 39.0998 53.6001 37.6998C52.4001 35.7998 51.0001 34.1998 49.4001 32.5998C47.5001 30.6998 45.4001 28.9998 43.2001 27.3998C42.0001 26.4998 40.8001 25.6998 39.5001 24.8998C39.2001 24.6998 38.9001 25.1998 39.2001 25.3998Z" fill="url(#paint19_radial_743_18240)"/>
<path d="M36.2001 41.7998C34.7001 44.1998 33 46.5998 31.1 48.7998C29.5 50.5998 27.9 52.3998 26 53.8998C24.6 55.0998 23 56.1998 21.3 56.8998C20.1 57.3998 18.7 57.7998 17.4 57.5998C16.2 57.3998 15.2 56.7998 14.5 55.7998C13.7 54.5998 13.3001 53.1998 13.2001 51.7998C13.0001 49.8998 13.1 47.9998 13.3 46.0998C13.6 43.7998 14.2 41.4998 14.8 39.2998C15.6 36.7998 16.5 34.2998 17.6 31.7998C18.8001 29.1998 20.1 26.5998 21.6 24.1998C23.1 21.6998 24.8 19.1998 26.6 16.8998C28.2 14.8998 29.9001 12.9998 31.7001 11.2998C33.2001 9.8998 34.8 8.6998 36.6 7.6998C37.9 6.9998 39.3 6.3998 40.8 6.3998C42 6.3998 43.1001 6.6998 43.9001 7.5998C44.9001 8.4998 45.4 9.8998 45.6 11.1998C46 12.8998 46 14.7998 45.8 16.4998C45.6 18.6998 45.2 20.8998 44.6 23.0998C43.9 25.5998 43.1 28.0998 42.1 30.4998C41 33.0998 39.8001 35.6998 38.4001 38.0998C37.7001 39.3998 37.0001 40.5998 36.2001 41.7998C36.0001 42.0998 36.5001 42.3998 36.7001 42.0998C38.3001 39.5998 39.7 36.9998 41 34.2998C42.2 31.7998 43.3 29.1998 44.1 26.5998C44.9 24.2998 45.5001 21.8998 45.9001 19.4998C46.2001 17.4998 46.5 15.3998 46.3 13.3998C46.2 11.7998 45.9001 10.1998 45.2001 8.7998C44.6001 7.5998 43.7001 6.6998 42.4001 6.2998C41.1001 5.7998 39.7001 5.9998 38.4001 6.3998C36.7001 6.8998 35.1001 7.8998 33.7001 8.8998C31.8001 10.2998 30.1 11.8998 28.5 13.5998C26.6 15.6998 24.9 17.8998 23.3 20.2998C21.6 22.7998 20.1001 25.3998 18.7001 28.0998C17.4001 30.5998 16.2 33.1998 15.3 35.8998C14.4 38.2998 13.7 40.6998 13.1 43.1998C12.6 45.2998 12.3 47.4998 12.3 49.5998C12.3 51.2998 12.4 52.9998 13 54.5998C13.5 55.8998 14.2 56.9998 15.4 57.6998C16.5 58.3998 17.9 58.4998 19.1 58.1998C20.7 57.8998 22.3001 57.0998 23.7001 56.2998C25.6001 55.0998 27.2 53.6998 28.8 52.0998C30.7 50.1998 32.4 48.0998 34 45.8998C34.9 44.6998 35.7 43.4998 36.5 42.1998C36.9 41.7998 36.4001 41.4998 36.2001 41.7998Z" fill="url(#paint20_radial_743_18240)"/>
<path d="M41.0002 29.5998C42.7002 32.0998 44.3002 34.5998 45.7002 37.2998C46.8002 39.4998 47.8002 41.7998 48.5002 44.1998C49.0002 45.9998 49.4002 47.8998 49.3002 49.7998C49.2002 51.0998 48.9002 52.4998 48.1002 53.5998C47.3002 54.5998 46.1002 54.9998 44.9002 55.0998C43.4002 55.1998 42.0002 54.8998 40.6002 54.3998C38.8002 53.7998 37.2002 52.8998 35.6002 51.8998C33.7002 50.6998 31.8002 49.2998 30.1002 47.8998C28.1002 46.1998 26.3002 44.4998 24.5002 42.5998C22.6002 40.5998 20.9002 38.4998 19.2002 36.2998C17.4002 33.8998 15.7002 31.3998 14.3002 28.6998C13.0002 26.3998 11.8002 23.9998 11.0002 21.5998C10.3002 19.6998 9.80021 17.6998 9.70021 15.5998C9.60021 14.1998 9.70021 12.5998 10.5002 11.2998C11.1002 10.1998 12.1002 9.49979 13.4002 9.19979C14.7002 8.89979 16.1002 9.09979 17.4002 9.39979C19.1002 9.89979 20.7002 10.5998 22.3002 11.4998C24.2002 12.5998 26.0002 13.7998 27.7002 15.1998C29.7002 16.7998 31.5002 18.3998 33.3002 20.1998C35.2002 22.0998 37.0002 24.1998 38.7002 26.2998C39.4002 27.3998 40.2002 28.4998 41.0002 29.5998C41.2002 29.8998 41.7002 29.5998 41.5002 29.2998C39.9002 26.9998 38.1002 24.6998 36.2002 22.5998C34.4002 20.5998 32.6002 18.6998 30.6002 16.8998C28.8002 15.2998 26.9002 13.7998 24.9002 12.4998C23.2002 11.3998 21.5002 10.3998 19.6002 9.59979C18.1002 8.99979 16.6002 8.49979 15.0002 8.49979C13.7002 8.49979 12.3002 8.69979 11.2002 9.59979C10.1002 10.3998 9.50021 11.6998 9.30021 13.0998C9.00021 14.8998 9.20021 16.6998 9.60021 18.4998C10.1002 20.7998 10.9002 23.0998 11.9002 25.2998C13.1002 27.9998 14.6002 30.5998 16.2002 33.0998C17.8002 35.5998 19.6002 37.9998 21.5002 40.1998C23.2002 42.2998 25.1002 44.2998 27.1002 46.0998C28.9002 47.7998 30.8002 49.3998 32.8002 50.8998C34.5002 52.0998 36.3002 53.2998 38.2002 54.1998C39.7002 54.8998 41.3002 55.4998 43.0002 55.7998C44.4002 55.9998 45.8002 55.8998 47.1002 55.2998C48.3002 54.6998 49.1002 53.5998 49.6002 52.2998C50.1002 50.6998 50.1002 48.9998 49.9002 47.2998C49.6002 45.0998 48.9002 42.8998 48.1002 40.7998C47.0002 38.1998 45.7002 35.5998 44.3002 33.1998C43.5002 31.8998 42.6002 30.5998 41.8002 29.2998C41.3002 28.9998 40.8002 29.2998 41.0002 29.5998Z" fill="url(#paint21_radial_743_18240)"/>
<path d="M32.0002 43.6998C29.5002 45.3998 27.0002 46.9998 24.3002 48.3998C22.1002 49.4998 19.8002 50.4998 17.4002 51.1998C15.6002 51.6998 13.7002 52.0998 11.8002 51.9998C10.5002 51.8998 9.10015 51.5998 8.00015 50.7998C7.00015 49.9998 6.60015 48.7998 6.50015 47.5998C6.40015 46.0998 6.70015 44.6998 7.20015 43.2998C7.80015 41.4998 8.70015 39.8998 9.70015 38.2998C10.9002 36.3998 12.3002 34.4998 13.7002 32.7998C15.4002 30.7998 17.1002 28.9998 19.0002 27.1998C21.0002 25.2998 23.1002 23.5998 25.3002 21.8998C27.7002 20.0998 30.2002 18.3998 32.9002 16.9998C35.2002 15.6998 37.6002 14.5998 40.1002 13.6998C42.0002 12.9998 44.0002 12.4998 46.1002 12.3998C47.5002 12.2998 49.1002 12.3998 50.4002 13.1998C51.5002 13.7998 52.2002 14.7998 52.5002 16.0998C52.8002 17.3998 52.6002 18.7998 52.3002 20.0998C51.8002 21.7998 51.1001 23.3998 50.2001 24.9998C49.1001 26.8998 47.9002 28.6998 46.5002 30.3998C44.9002 32.3998 43.3002 34.1998 41.5002 35.9998C39.6002 37.8998 37.5002 39.6998 35.4002 41.3998C34.2002 42.0998 33.1002 42.8998 32.0002 43.6998C31.7002 43.8998 32.0002 44.3998 32.3002 44.1998C34.6002 42.5998 36.9002 40.7998 39.0002 38.8998C41.0002 37.0998 42.9002 35.2998 44.7002 33.2998C46.3002 31.4998 47.8002 29.5998 49.1002 27.5998C50.2002 25.8998 51.2002 24.1998 52.0002 22.2998C52.6002 20.7998 53.1002 19.2998 53.1002 17.6998C53.1002 16.3998 52.9002 14.9998 52.0002 13.8998C51.2002 12.7998 49.9002 12.1998 48.5002 11.9998C46.7002 11.6998 44.9002 11.8998 43.1002 12.2998C40.8002 12.7998 38.5002 13.5998 36.3002 14.5998C33.6002 15.7998 31.0002 17.2998 28.5002 18.8998C26.0002 20.4998 23.6002 22.2998 21.4002 24.1998C19.3002 25.8998 17.3002 27.7998 15.5002 29.7998C13.8002 31.5998 12.2002 33.4998 10.7002 35.4998C9.50015 37.1998 8.30015 38.9998 7.40015 40.8998C6.70015 42.3998 6.10015 43.9998 5.80015 45.6998C5.60015 47.0998 5.70015 48.4998 6.30015 49.7998C6.90015 50.9998 8.00015 51.7998 9.30015 52.2998C10.9002 52.7998 12.6002 52.7998 14.3002 52.5998C16.5002 52.2998 18.7002 51.5998 20.8002 50.7998C23.4002 49.6998 26.0002 48.3998 28.4002 46.9998C29.7002 46.1998 31.0002 45.2998 32.3002 44.4998C32.6002 43.8998 32.3002 43.3998 32.0002 43.6998Z" fill="url(#paint22_radial_743_18240)"/>
<path d="M35.8002 22.1998C40.8002 23.0998 45.9002 24.3998 50.5002 26.7998C52.1002 27.5998 53.7002 28.5998 55.1002 29.8998C56.1002 30.7998 57.0002 31.8998 57.5002 33.1998C57.9002 34.2998 57.9002 35.3998 57.4002 36.3998C56.8002 37.6998 55.7002 38.6998 54.5002 39.3998C52.9002 40.3998 51.1002 41.0998 49.2002 41.5998C46.9002 42.1998 44.6002 42.6998 42.2002 42.8998C36.6002 43.4998 30.8002 43.2998 25.2002 42.4998C19.9002 41.6998 14.6002 40.4998 9.70021 38.1998C7.90021 37.3998 6.10021 36.3998 4.60021 35.1998C3.40021 34.2998 2.30021 33.1998 1.60021 31.9998C1.10021 30.9998 0.800212 29.8998 1.10021 28.7998C1.40021 27.4998 2.30021 26.4998 3.30021 25.6998C4.70021 24.5998 6.40021 23.8998 8.00021 23.2998C10.1002 22.5998 12.4002 22.0998 14.6002 21.7998C20.1002 20.9998 25.7002 21.0998 31.2002 21.6998C32.9002 21.6998 34.4002 21.8998 35.8002 22.1998C36.2002 22.2998 36.3002 21.6998 36.0002 21.5998C30.1002 20.5998 24.1002 20.1998 18.2002 20.6998C15.7002 20.8998 13.2002 21.1998 10.7002 21.7998C8.70021 22.2998 6.70021 22.8998 4.90021 23.8998C2.50021 25.1998 0.000211976 27.3998 0.500212 30.3998C0.700212 31.6998 1.50021 32.8998 2.40021 33.8998C3.60021 35.1998 5.10021 36.2998 6.60021 37.1998C10.9002 39.6998 15.9002 41.1998 20.8002 42.1998C26.7002 43.3998 32.7002 43.8998 38.7002 43.6998C41.3002 43.5998 43.9002 43.2998 46.4002 42.7998C48.5002 42.3998 50.7002 41.7998 52.7002 40.8998C55.2002 39.7998 58.3002 37.7998 58.4002 34.6998C58.5002 31.6998 55.8002 29.3998 53.5002 27.7998C51.7002 26.5998 49.7002 25.5998 47.7002 24.7998C45.3002 23.7998 42.7002 22.9998 40.1002 22.3998C38.7002 22.0998 37.3002 21.7998 35.9002 21.4998C35.6002 21.4998 35.5002 22.0998 35.8002 22.1998Z" fill="url(#paint23_radial_743_18240)"/>
<path d="M39.4003 38.4998C38.5003 43.4998 37.2003 48.5998 34.8003 53.1998C34.0003 54.7998 33.0003 56.3998 31.7003 57.7998C30.8003 58.7998 29.7003 59.6998 28.4003 60.1998C27.3003 60.5998 26.2003 60.5998 25.2003 60.0998C23.9003 59.4998 22.9003 58.3998 22.2003 57.1998C21.2003 55.5998 20.5003 53.7998 20.0003 51.8998C19.4003 49.5998 18.9003 47.2998 18.7003 44.8998C18.1003 39.2998 18.3003 33.4998 19.1003 27.8998C19.9003 22.5998 21.1003 17.2998 23.4003 12.3998C24.2003 10.5998 25.2003 8.7998 26.4003 7.2998C27.3003 6.0998 28.4003 4.9998 29.6003 4.2998C30.6003 3.7998 31.7003 3.4998 32.8003 3.7998C34.1003 4.0998 35.1003 4.9998 35.9003 5.9998C37.0003 7.3998 37.7003 9.0998 38.3003 10.6998C39.0003 12.7998 39.5003 15.0998 39.8003 17.2998C40.6003 22.7998 40.5003 28.3998 39.9003 33.8998C39.9003 35.4998 39.7003 36.9998 39.4003 38.4998C39.3003 38.8998 39.9003 38.9998 40.0003 38.6998C41.0003 32.7998 41.4003 26.7998 40.9003 20.8998C40.7003 18.3998 40.4003 15.8998 39.8003 13.3998C39.3003 11.3998 38.7003 9.3998 37.7003 7.5998C36.4003 5.1998 34.2003 2.6998 31.2003 3.1998C29.9003 3.3998 28.7003 4.1998 27.7003 5.0998C26.4003 6.2998 25.3003 7.7998 24.4003 9.2998C21.9003 13.5998 20.4003 18.5998 19.4003 23.4998C18.2003 29.3998 17.7003 35.3998 17.9003 41.3998C18.0003 43.9998 18.3003 46.5998 18.8003 49.0998C19.2003 51.1998 19.8003 53.3998 20.7003 55.3998C21.8003 57.8998 23.8003 60.9998 26.9003 61.0998C29.9003 61.1998 32.2003 58.4998 33.8003 56.1998C35.0003 54.3998 36.0003 52.3998 36.8003 50.3998C37.8003 47.9998 38.6003 45.3998 39.2003 42.7998C39.5003 41.3998 39.8003 39.9998 40.1003 38.5998C40.1003 38.2998 39.5003 38.0998 39.4003 38.4998Z" fill="url(#paint24_radial_743_18240)"/>
<path d="M41.3 31.9998C42.5 34.6998 43.5 37.5998 44.3 40.4998C45 42.8998 45.5 45.2998 45.7 47.7998C45.8 49.6998 45.8 51.5998 45.4 53.3998C45.1 54.6998 44.5 55.9998 43.5 56.8998C41.3 58.6998 38.2 57.5998 36.1 56.2998C34.5 55.2998 33 54.0998 31.6 52.8998C29.9 51.3998 28.4 49.6998 27 47.8998C23.7 43.6998 20.9 39.0998 18.6 34.1998C16.2 29.1998 14.3 23.7998 13.5 18.1998C13.2 16.1998 13.1 14.1998 13.4 12.1998C13.6 10.7998 14 9.29981 14.9 8.09981C15.7 7.09981 16.8 6.59981 18 6.49981C19.3 6.39981 20.7 6.89981 21.9 7.39981C23.5 8.19981 25 9.19981 26.4 10.3998C28.1 11.7998 29.6 13.3998 31 15.0998C34.4 19.0998 37.3 23.5998 39.7 28.2998C40.2 29.4998 40.8 30.6998 41.3 31.9998C41.4 32.2998 41.9 31.9998 41.8 31.6998C39.6 26.5998 36.8 21.6998 33.4 17.2998C30.8 13.7998 27.7 10.3998 24 7.99981C21.7 6.49981 18.4 4.99981 15.8 6.49981C14.6 7.19981 13.8 8.39981 13.3 9.69981C12.7 11.3998 12.5 13.2998 12.6 14.9998C12.6 17.3998 13 19.7998 13.6 22.0998C14.3 24.9998 15.2 27.7998 16.3 30.4998C18.4 35.7998 21.2 40.8998 24.5 45.4998C27.2 49.1998 30.2 52.7998 33.9 55.5998C35.3 56.5998 36.7 57.4998 38.3 57.9998C39.6 58.3998 41 58.5998 42.3 58.1998C45.4 57.1998 46.2 53.5998 46.3 50.7998C46.4 48.5998 46.2 46.2998 45.7 44.0998C45.2 41.3998 44.4 38.6998 43.5 35.9998C43 34.4998 42.4 33.0998 41.8 31.6998C41.7 31.2998 41.2 31.5998 41.3 31.9998Z" fill="url(#paint25_radial_743_18240)"/>
<path d="M29.5999 43.9998C26.8999 45.1998 23.9999 46.1998 21.0999 46.9998C18.6999 47.6998 16.2999 48.1998 13.7999 48.3998C11.8999 48.4998 9.99992 48.4998 8.19992 48.0998C6.89992 47.7998 5.59992 47.1998 4.69992 46.1998C2.89992 43.9998 3.99992 40.8998 5.29992 38.7998C6.29992 37.1998 7.49992 35.6998 8.69992 34.2998C10.1999 32.5998 11.8999 31.0998 13.6999 29.6998C17.8999 26.3998 22.4999 23.5998 27.3999 21.2998C32.3999 18.8998 37.7999 16.9998 43.3999 16.1998C45.3999 15.8998 47.3999 15.7998 49.3999 16.0998C50.7999 16.2998 52.2999 16.6998 53.4999 17.5998C54.4999 18.3998 54.9999 19.4998 55.0999 20.6998C55.1999 21.9998 54.6999 23.3998 54.1999 24.5998C53.3999 26.1998 52.3999 27.6998 51.1999 29.0998C49.7999 30.7998 48.1999 32.2998 46.4999 33.6998C42.4999 37.0998 37.9999 39.9998 33.2999 42.3998C32.0999 42.7998 30.8999 43.3998 29.5999 43.9998C29.2999 44.0998 29.5999 44.5998 29.8999 44.4998C34.9999 42.2998 39.8999 39.4998 44.2999 36.0998C47.7999 33.4998 51.1999 30.3998 53.5999 26.6998C55.0999 24.3998 56.5999 21.0998 55.0999 18.4998C54.3999 17.2998 53.1999 16.4998 51.8999 15.9998C50.1999 15.3998 48.2999 15.1998 46.5999 15.2998C44.1999 15.2998 41.7999 15.6998 39.4999 16.2998C36.5999 16.9998 33.7999 17.8998 31.0999 18.9998C25.7999 21.0998 20.6999 23.8998 16.0999 27.1998C12.3999 29.8998 8.79992 32.8998 5.99992 36.5998C4.99992 37.9998 4.09992 39.3998 3.59992 40.9998C3.19992 42.2998 2.99992 43.6998 3.39992 44.9998C4.39992 48.0998 7.99992 48.8998 10.7999 48.9998C12.9999 49.0998 15.2999 48.8998 17.4999 48.3998C20.1999 47.8998 22.8999 47.0998 25.5999 46.1998C27.0999 45.6998 28.4999 45.0998 29.8999 44.4998C30.2999 44.2998 29.9999 43.7998 29.5999 43.9998Z" fill="url(#paint26_radial_743_18240)"/>
<path d="M37.7 23.5998C42.5 25.4998 47.2 27.7998 51.2 30.9998C52.6 32.1998 54 33.3998 55.1 34.8998C55.9 35.9998 56.6 37.1998 56.8 38.5998C57 39.6998 56.7 40.7998 56 41.6998C55.1 42.7998 53.8 43.4998 52.5 43.9998C50.7 44.6998 48.8 44.9998 46.9 45.0998C44.6 45.2998 42.2 45.1998 39.9 44.9998C34.2 44.4998 28.6 43.0998 23.2 41.1998C18.2 39.3998 13.3 37.0998 8.9 33.9998C7.3 32.7998 5.8 31.4998 4.5 29.9998C3.5 28.8998 2.7 27.5998 2.2 26.1998C1.9 25.0998 1.9 23.8998 2.4 22.8998C3 21.6998 4.1 20.8998 5.2 20.2998C6.8 19.4998 8.6 19.0998 10.3 18.8998C12.6 18.5998 14.8 18.5998 17.1 18.6998C22.7 18.9998 28.2 20.1998 33.5 21.8998C35 22.5998 36.4 23.0998 37.7 23.5998C38 23.6998 38.2 23.1998 37.9 22.9998C32.4 20.7998 26.6 19.2998 20.7 18.5998C18.2 18.2998 15.7 18.1998 13.2 18.2998C11.2 18.3998 9.1 18.5998 7.1 19.1998C4.5 19.9998 1.6 21.6998 1.5 24.6998C1.5 25.9998 2 27.3998 2.6 28.4998C3.5 29.9998 4.8 31.3998 6.1 32.4998C9.9 35.8998 14.4 38.2998 19 40.1998C24.5 42.5998 30.4 44.2998 36.3 45.1998C38.9 45.5998 41.5 45.7998 44.1 45.7998C46.3 45.7998 48.4 45.6998 50.6 45.1998C53.3 44.5998 56.7 43.2998 57.4 40.1998C58.1 37.2998 55.9 34.3998 53.9 32.4998C52.4 30.9998 50.6 29.5998 48.8 28.4998C46.6 26.9998 44.3 25.7998 41.9 24.6998C40.6 24.0998 39.3 23.4998 37.9 22.9998C37.5 22.8998 37.4 23.4998 37.7 23.5998Z" fill="url(#paint27_radial_743_18240)"/>
<path d="M38 40.3998C36.1 45.1998 33.8 49.8998 30.6 53.8998C29.4 55.2998 28.2001 56.6998 26.7001 57.7998C25.6001 58.5998 24.4 59.2998 23 59.4998C21.9 59.6998 20.8001 59.3998 19.9001 58.6998C18.8001 57.7998 18.1 56.4998 17.6 55.1998C16.9 53.3998 16.6 51.4998 16.5 49.5998C16.3 47.2998 16.4 44.8998 16.6 42.5998C17.1 36.8998 18.5001 31.2998 20.4001 25.8998C22.2001 20.8998 24.5 15.9998 27.6 11.5998C28.8 9.9998 30.1 8.4998 31.6 7.1998C32.7 6.1998 34.0001 5.3998 35.4001 4.8998C36.5001 4.5998 37.7001 4.5998 38.7001 5.0998C39.9001 5.6998 40.7 6.7998 41.3 7.8998C42.1 9.4998 42.5001 11.2998 42.7001 12.9998C43.0001 15.2998 43.0001 17.4998 42.9001 19.7998C42.6001 25.3998 41.4001 30.8998 39.7001 36.1998C39.0001 37.5998 38.5 38.9998 38 40.3998C37.9 40.6998 38.4 40.8998 38.6 40.5998C40.8 35.0998 42.3 29.2998 43 23.3998C43.3 20.8998 43.4 18.3998 43.3 15.8998C43.2 13.8998 43.0001 11.7998 42.4001 9.7998C41.6001 7.1998 39.9001 4.2998 36.9001 4.1998C35.6001 4.1998 34.2 4.6998 33.1 5.2998C31.6 6.1998 30.2 7.4998 29.1 8.7998C25.7 12.5998 23.3001 17.0998 21.4001 21.6998C19.0001 27.1998 17.3 33.0998 16.4 38.9998C16 41.5998 15.8 44.1998 15.8 46.7998C15.8 48.9998 15.9 51.0998 16.4 53.2998C17 55.9998 18.3001 59.3998 21.4001 60.0998C24.3001 60.7998 27.2 58.5998 29.1 56.5998C30.6 55.0998 32 53.2998 33.1 51.4998C34.6 49.2998 35.8001 46.9998 36.9001 44.5998C37.5001 43.2998 38.1 41.9998 38.6 40.5998C38.7 40.1998 38.1 39.9998 38 40.3998Z" fill="url(#paint28_radial_743_18240)"/>
<path d="M40.3 27.3998C42.5 29.4998 44.5 31.6998 46.3 33.9998C47.8 35.9998 49.2 37.9998 50.4 40.1998C51.3 41.8998 52 43.6998 52.3 45.4998C52.4 46.1998 52.5 46.9998 52.4 47.6998C52.3 48.2998 52.2 48.8998 51.9 49.4998C51.3 50.5998 50.3 51.2998 49.1 51.6998C47.7 52.0998 46.2 52.0998 44.8 51.8998C42.9 51.6998 41.1 51.0998 39.3 50.4998C37.2 49.6998 35.1 48.6998 33.1 47.5998C30.8 46.2998 28.7 44.8998 26.6 43.3998C24.3 41.7998 22.2 39.9998 20.1 38.1998C17.9 36.1998 15.8 33.9998 13.8 31.6998C12.1 29.6998 10.6 27.5998 9.29997 25.2998C8.29997 23.4998 7.39997 21.6998 6.89997 19.6998C6.49997 18.2998 6.29997 16.7998 6.79997 15.3998C7.09997 14.1998 7.89997 13.2998 9.09997 12.6998C10.3 12.0998 11.7 11.9998 13.1 12.0998C14.9 12.1998 16.6 12.5998 18.3 13.1998C20.4 13.8998 22.4 14.7998 24.4 15.7998C26.6 16.8998 28.8 18.2998 30.9 19.6998C33.2 21.1998 35.4 22.8998 37.4 24.6998C38.3 25.5998 39.3 26.4998 40.3 27.3998C40.6 27.6998 41 27.1998 40.7 26.9998C38.6 24.9998 36.5 23.1998 34.2 21.3998C32.1 19.7998 29.8 18.2998 27.5 16.8998C25.4 15.6998 23.3 14.5998 21 13.5998C19.1 12.7998 17.2 12.1998 15.2 11.7998C13.6 11.4998 12 11.3998 10.4 11.6998C9.09997 11.8998 7.79997 12.4998 6.99997 13.5998C6.09997 14.6998 5.79997 16.0998 5.89997 17.3998C5.99997 19.1998 6.49997 20.9998 7.29997 22.6998C8.19997 24.8998 9.49997 26.8998 10.9 28.7998C12.6 31.1998 14.5 33.3998 16.6 35.4998C18.7 37.5998 20.9 39.5998 23.2 41.4998C25.3 43.1998 27.6 44.7998 29.9 46.2998C32 47.5998 34.2 48.7998 36.4 49.8998C38.3 50.7998 40.3 51.5998 42.4 52.0998C44 52.4998 45.8 52.7998 47.4 52.6998C48.8 52.5998 50.2 52.1998 51.2 51.2998C52.2 50.3998 52.8 49.1998 52.9 47.8998C53.1 46.2998 52.7 44.5998 52.1 42.9998C51.3 40.8998 50.3 38.8998 49 36.9998C47.5 34.6998 45.7 32.4998 43.8 30.3998C42.8 29.2998 41.7 28.1998 40.6 27.0998C40.5 26.7998 40.1 27.1998 40.3 27.3998Z" fill="url(#paint29_radial_743_18240)"/>
<path d="M34.2 42.9998C32.1 45.1998 29.9 47.1998 27.6 48.9998C25.6 50.4998 23.6 51.8998 21.4 53.0998C19.7 53.9998 17.9 54.6998 16.1 54.9998C15.4 55.0998 14.6 55.1998 13.9 55.0998C13.3 54.9998 12.7 54.8998 12.1 54.5998C11 53.9998 10.3 52.9998 9.9 51.7998C9.5 50.3998 9.5 48.8998 9.7 47.4998C9.9 45.5998 10.5 43.7998 11.1 41.9998C11.9 39.8998 12.9 37.7998 14 35.7998C15.3 33.4998 16.7 31.3998 18.2 29.2998C19.8 26.9998 21.6 24.8998 23.4 22.7998C25.4 20.5998 27.6 18.4998 29.9 16.4998C31.9 14.7998 34 13.2998 36.3 11.9998C38.1 10.9998 39.9 10.0998 41.9 9.5998C43.3 9.1998 44.8 8.9998 46.2 9.4998C47.4 9.7998 48.3 10.5998 48.9 11.7998C49.5 12.9998 49.6 14.3998 49.5 15.7998C49.4 17.5998 49 19.2998 48.4 20.9998C47.7 23.0998 46.8 25.0998 45.8 27.0998C44.7 29.2998 43.3 31.4998 41.9 33.5998C40.4 35.8998 38.7 38.0998 36.9 40.0998C36 40.9998 35.1 41.9998 34.2 42.9998C33.9 43.2998 34.4 43.6998 34.6 43.3998C36.6 41.2998 38.4 39.1998 40.2 36.8998C41.8 34.7998 43.3 32.4998 44.7 30.1998C45.9 28.0998 47 25.9998 48 23.6998C48.8 21.7998 49.4 19.8998 49.8 17.8998C50.1 16.2998 50.2 14.6998 49.9 13.0998C49.7 11.7998 49.1 10.4998 48 9.6998C46.9 8.7998 45.5 8.4998 44.2 8.5998C42.4 8.6998 40.6 9.1998 38.9 9.9998C36.7 10.8998 34.7 12.1998 32.8 13.5998C30.4 15.2998 28.2 17.1998 26.1 19.2998C24 21.3998 22 23.5998 20.1 25.8998C18.4 27.9998 16.8 30.2998 15.3 32.5998C14 34.6998 12.8 36.8998 11.7 39.0998C10.8 40.9998 10 42.9998 9.5 45.0998C9.1 46.6998 8.8 48.4998 8.9 50.0998C9 51.4998 9.4 52.8998 10.3 53.8998C11.2 54.8998 12.4 55.4998 13.7 55.5998C15.3 55.7998 17 55.3998 18.6 54.7998C20.7 53.9998 22.7 52.9998 24.6 51.6998C26.9 50.1998 29.1 48.3998 31.2 46.4998C32.3 45.4998 33.4 44.3998 34.5 43.2998C34.8 43.0998 34.4 42.6998 34.2 42.9998Z" fill="url(#paint30_radial_743_18240)"/>
<path d="M33.8001 21.0998C39.0001 20.9998 44.3001 21.3998 49.2001 22.7998C51.0001 23.2998 52.8001 23.9998 54.4001 24.9998C55.6001 25.6998 56.7001 26.5998 57.3001 27.7998C57.9001 28.7998 58.0001 29.9998 57.6001 31.0998C57.2001 32.4998 56.2001 33.5998 55.2001 34.4998C53.8001 35.7998 52.1001 36.7998 50.4001 37.5998C48.3001 38.5998 46.1001 39.4998 43.8001 40.1998C38.4001 41.7998 32.8001 42.6998 27.2001 42.9998C21.8001 43.2998 16.3001 42.9998 11.1001 41.7998C9.20006 41.2998 7.20006 40.6998 5.50006 39.7998C4.20006 39.0998 2.90006 38.2998 2.00006 37.0998C1.30006 36.1998 0.900058 35.0998 1.00006 33.8998C1.10006 32.5998 1.90006 31.3998 2.80006 30.4998C4.00006 29.1998 5.50006 28.1998 7.00006 27.2998C9.00006 26.1998 11.0001 25.2998 13.2001 24.5998C18.4001 22.7998 23.9001 21.7998 29.4001 21.3998C30.9001 21.1998 32.4001 21.1998 33.8001 21.0998C34.2001 21.0998 34.2001 20.4998 33.8001 20.4998C28.0001 20.6998 22.1001 21.3998 16.4001 22.9998C14.0001 23.6998 11.6001 24.4998 9.40006 25.4998C7.50006 26.2998 5.70006 27.2998 4.10006 28.5998C2.00006 30.2998 -0.199942 32.8998 0.800058 35.7998C1.20006 37.0998 2.20006 38.0998 3.20006 38.8998C4.60006 39.9998 6.20006 40.6998 7.90006 41.2998C10.1001 42.0998 12.3001 42.5998 14.6001 42.8998C17.4001 43.2998 20.1001 43.4998 22.9001 43.4998C28.8001 43.5998 34.8001 42.8998 40.5001 41.4998C43.0001 40.8998 45.5001 40.0998 47.9001 39.1998C49.9001 38.3998 51.9001 37.3998 53.7001 36.1998C56.0001 34.5998 58.7001 32.0998 58.3001 29.0998C57.9001 26.0998 54.8001 24.1998 52.3001 23.1998C47.9001 21.2998 42.9001 20.6998 38.1001 20.4998C36.6001 20.3998 35.2001 20.3998 33.7001 20.4998C33.5001 20.5998 33.5001 21.0998 33.8001 21.0998Z" fill="url(#paint31_radial_743_18240)"/>
<path d="M40.5 36.4998C40.6 41.6998 40.2 46.9998 38.8 51.8998C38.3 53.6998 37.6 55.4998 36.6 57.0998C35.9 58.2998 35 59.3998 33.8 59.9998C32.8 60.5998 31.6 60.6998 30.5 60.2998C29.1 59.8998 28 58.8998 27.1 57.8998C25.8 56.4998 24.8 54.7998 24 53.0998C23 50.9998 22.1 48.7998 21.4 46.4998C19.8 41.0998 18.9 35.4998 18.6 29.8998C18.3 24.4998 18.6 18.9998 19.8 13.7998C20.3 11.8998 20.9 9.8998 21.8 8.1998C22.5 6.8998 23.3 5.5998 24.5 4.6998C25.4 3.9998 26.5 3.5998 27.7 3.6998C29 3.7998 30.2 4.5998 31.1 5.4998C32.4 6.6998 33.4 8.1998 34.3 9.6998C35.4 11.6998 36.3 13.6998 37 15.8998C38.8 21.0998 39.8 26.5998 40.2 32.0998C40.4 33.4998 40.4 34.9998 40.5 36.4998C40.5 36.8998 41.1 36.8998 41.1 36.4998C41 30.5998 40.2 24.6998 38.6 19.0998C37.9 16.6998 37.1 14.2998 36.1 12.0998C35.3 10.1998 34.3 8.39979 33 6.79979C31.3 4.69979 28.7 2.4998 25.8 3.4998C24.5 3.8998 23.5 4.8998 22.7 5.8998C21.6 7.2998 20.9 8.8998 20.3 10.5998C19.5 12.7998 19 14.9998 18.7 17.2998C18.3 20.0998 18.1 22.7998 18.1 25.5998C18 31.4998 18.7 37.4998 20.1 43.1998C20.7 45.6998 21.5 48.1998 22.4 50.5998C23.2 52.5998 24.2 54.5998 25.4 56.3998C27 58.6998 29.5 61.3998 32.5 60.9998C35.5 60.5998 37.4 57.4998 38.4 54.9998C40.3 50.5998 40.9 45.5998 41.1 40.7998C41.2 39.2998 41.2 37.8998 41.1 36.3998C41 36.0998 40.5 36.0998 40.5 36.4998Z" fill="url(#paint32_radial_743_18240)"/>
<path d="M77.8929 26.1634C76.459 26.1634 75.134 25.9274 73.918 25.4555C72.7019 24.9654 71.6492 24.2848 70.7598 23.4136C69.8705 22.5424 69.1717 21.5169 68.6635 20.3372C68.1735 19.1574 67.9284 17.8687 67.9284 16.4712C67.9284 15.0736 68.1735 13.785 68.6635 12.6052C69.1717 11.4254 69.8705 10.4 70.7598 9.52875C71.6674 8.65755 72.7291 7.98599 73.9452 7.51409C75.1613 7.02403 76.4862 6.77901 77.9201 6.77901C79.2995 6.77901 80.5972 7.01496 81.8133 7.48686C83.0293 7.94062 84.0548 8.63032 84.8897 9.55598L83.6101 10.8356C82.8297 10.037 81.9676 9.46523 81.0237 9.12038C80.0799 8.75737 79.0635 8.57587 77.9745 8.57587C76.8311 8.57587 75.7693 8.77552 74.7892 9.17483C73.8091 9.55598 72.956 10.1096 72.23 10.8356C71.504 11.5434 70.9323 12.3783 70.5148 13.3403C70.1155 14.2841 69.9159 15.3277 69.9159 16.4712C69.9159 17.6146 70.1155 18.6673 70.5148 19.6293C70.9323 20.5731 71.504 21.408 72.23 22.134C72.956 22.8419 73.8091 23.3955 74.7892 23.7948C75.7693 24.1759 76.8311 24.3665 77.9745 24.3665C79.0635 24.3665 80.0799 24.185 81.0237 23.822C81.9676 23.459 82.8297 22.8782 83.6101 22.0796L84.8897 23.3592C84.0548 24.2848 83.0293 24.9836 81.8133 25.4555C80.5972 25.9274 79.2904 26.1634 77.8929 26.1634ZM88.5875 26V11.7068H94.9037C96.5191 11.7068 97.7896 12.0153 98.7152 12.6324C99.659 13.2495 100.131 14.157 100.131 15.3549C100.131 16.5166 99.6863 17.415 98.7969 18.0502C97.9076 18.6673 96.7369 18.9759 95.2849 18.9759L95.666 18.4042C97.3721 18.4042 98.6245 18.7218 99.4231 19.3571C100.222 19.9923 100.621 20.9089 100.621 22.1068C100.621 23.341 100.167 24.303 99.2597 24.9927C98.3704 25.6642 96.9819 26 95.0943 26H88.5875ZM90.466 24.4754H95.0126C96.2287 24.4754 97.1453 24.2848 97.7624 23.9037C98.3976 23.5044 98.7152 22.8691 98.7152 21.9979C98.7152 21.1267 98.4339 20.4914 97.8713 20.0921C97.3086 19.6928 96.4192 19.4932 95.2032 19.4932H90.466V24.4754ZM90.466 18.0502H94.7676C95.8747 18.0502 96.7187 17.8415 97.2995 17.4241C97.8985 17.0066 98.198 16.3986 98.198 15.6C98.198 14.8014 97.8985 14.2024 97.2995 13.8031C96.7187 13.4038 95.8747 13.2042 94.7676 13.2042H90.466V18.0502ZM111.277 26.1361C109.789 26.1361 108.482 25.8276 107.356 25.2105C106.231 24.5752 105.351 23.7131 104.716 22.6241C104.08 21.5169 103.763 20.2555 103.763 18.8398C103.763 17.4241 104.062 16.1717 104.661 15.0827C105.278 13.9937 106.113 13.1406 107.166 12.5235C108.237 11.8883 109.435 11.5706 110.76 11.5706C112.103 11.5706 113.292 11.8792 114.326 12.4963C115.379 13.0953 116.205 13.9483 116.804 15.0555C117.403 16.1445 117.702 17.4059 117.702 18.8398C117.702 18.9305 117.693 19.0303 117.675 19.1392C117.675 19.23 117.675 19.3298 117.675 19.4387H105.233V17.9958H116.64L115.878 18.5675C115.878 17.533 115.651 16.6164 115.197 15.8178C114.762 15.001 114.163 14.3658 113.4 13.912C112.638 13.4583 111.758 13.2314 110.76 13.2314C109.78 13.2314 108.899 13.4583 108.119 13.912C107.338 14.3658 106.73 15.001 106.295 15.8178C105.859 16.6345 105.641 17.5693 105.641 18.622V18.9214C105.641 20.0105 105.877 20.9724 106.349 21.8073C106.839 22.6241 107.511 23.2684 108.364 23.7403C109.235 24.1941 110.224 24.4209 111.331 24.4209C112.203 24.4209 113.01 24.2667 113.754 23.9581C114.517 23.6496 115.17 23.1777 115.715 22.5424L116.804 23.7948C116.168 24.5571 115.37 25.1379 114.408 25.5372C113.464 25.9365 112.42 26.1361 111.277 26.1361ZM124.065 26V12.8775L124.555 13.3947H118.647V11.7068H131.416V13.3947H125.508L125.998 12.8775V26H124.065ZM139.427 26.1361C138.048 26.1361 136.804 25.8276 135.697 25.2105C134.608 24.5752 133.746 23.7131 133.111 22.6241C132.475 21.5169 132.158 20.2555 132.158 18.8398C132.158 17.4059 132.475 16.1445 133.111 15.0555C133.746 13.9665 134.608 13.1134 135.697 12.4963C136.786 11.8792 138.029 11.5706 139.427 11.5706C140.843 11.5706 142.095 11.8792 143.184 12.4963C144.291 13.1134 145.153 13.9665 145.77 15.0555C146.406 16.1445 146.723 17.4059 146.723 18.8398C146.723 20.2555 146.406 21.5169 145.77 22.6241C145.153 23.7131 144.291 24.5752 143.184 25.2105C142.077 25.8276 140.824 26.1361 139.427 26.1361ZM139.427 24.4209C140.461 24.4209 141.378 24.1941 142.177 23.7403C142.975 23.2684 143.601 22.615 144.055 21.7801C144.527 20.927 144.763 19.9469 144.763 18.8398C144.763 17.7145 144.527 16.7344 144.055 15.8994C143.601 15.0645 142.975 14.4202 142.177 13.9665C141.378 13.4946 140.471 13.2586 139.454 13.2586C138.438 13.2586 137.53 13.4946 136.732 13.9665C135.933 14.4202 135.298 15.0645 134.826 15.8994C134.354 16.7344 134.118 17.7145 134.118 18.8398C134.118 19.9469 134.354 20.927 134.826 21.7801C135.298 22.615 135.933 23.2684 136.732 23.7403C137.53 24.1941 138.429 24.4209 139.427 24.4209ZM160.576 25.0743V13.3947H153.688L153.524 16.5801C153.488 17.542 153.425 18.4858 153.334 19.4115C153.261 20.3372 153.125 21.1902 152.925 21.9707C152.744 22.733 152.481 23.3592 152.136 23.8492C151.791 24.3211 151.346 24.5934 150.802 24.666L148.869 24.312C149.432 24.3302 149.894 24.1305 150.257 23.7131C150.62 23.2775 150.902 22.6876 151.101 21.9434C151.301 21.1993 151.446 20.3553 151.537 19.4115C151.628 18.4495 151.7 17.4694 151.755 16.4712L151.945 11.7068H162.509V25.0743H160.576ZM148.27 29.4576V24.312H164.741V29.4576H162.917V26H150.094V29.4576H148.27ZM168.508 26V11.7068H170.441V23.0597L179.997 11.7068H181.713V26H179.78V14.6199L170.251 26H168.508ZM193.133 26.1361C191.753 26.1361 190.51 25.8276 189.403 25.2105C188.314 24.5752 187.452 23.7131 186.817 22.6241C186.181 21.5169 185.864 20.2555 185.864 18.8398C185.864 17.4059 186.181 16.1445 186.817 15.0555C187.452 13.9665 188.314 13.1134 189.403 12.4963C190.492 11.8792 191.735 11.5706 193.133 11.5706C194.549 11.5706 195.801 11.8792 196.89 12.4963C197.997 13.1134 198.859 13.9665 199.476 15.0555C200.112 16.1445 200.429 17.4059 200.429 18.8398C200.429 20.2555 200.112 21.5169 199.476 22.6241C198.859 23.7131 197.997 24.5752 196.89 25.2105C195.783 25.8276 194.53 26.1361 193.133 26.1361ZM193.133 24.4209C194.167 24.4209 195.084 24.1941 195.883 23.7403C196.681 23.2684 197.307 22.615 197.761 21.7801C198.233 20.927 198.469 19.9469 198.469 18.8398C198.469 17.7145 198.233 16.7344 197.761 15.8994C197.307 15.0645 196.681 14.4202 195.883 13.9665C195.084 13.4946 194.177 13.2586 193.16 13.2586C192.144 13.2586 191.236 13.4946 190.438 13.9665C189.639 14.4202 189.004 15.0645 188.532 15.8994C188.06 16.7344 187.824 17.7145 187.824 18.8398C187.824 19.9469 188.06 20.927 188.532 21.7801C189.004 22.615 189.639 23.2684 190.438 23.7403C191.236 24.1941 192.135 24.4209 193.133 24.4209ZM214.282 25.0743V13.3947H207.394L207.23 16.5801C207.194 17.542 207.131 18.4858 207.04 19.4115C206.967 20.3372 206.831 21.1902 206.631 21.9707C206.45 22.733 206.187 23.3592 205.842 23.8492C205.497 24.3211 205.052 24.5934 204.508 24.666L202.575 24.312C203.138 24.3302 203.6 24.1305 203.963 23.7131C204.326 23.2775 204.608 22.6876 204.807 21.9434C205.007 21.1993 205.152 20.3553 205.243 19.4115C205.334 18.4495 205.406 17.4694 205.461 16.4712L205.651 11.7068H216.215V25.0743H214.282ZM201.976 29.4576V24.312H218.447V29.4576H216.623V26H203.8V29.4576H201.976ZM236.154 26V11.7068H238.087V26H236.154ZM228.231 16.7434C230.028 16.7616 231.398 17.1609 232.342 17.9413C233.286 18.7218 233.758 19.8471 233.758 21.3173C233.758 22.8419 233.25 24.0126 232.233 24.8293C231.217 25.6461 229.765 26.0454 227.877 26.0272L222.214 26V11.7068H224.147V16.689L228.231 16.7434ZM227.741 24.5571C229.084 24.5752 230.091 24.312 230.763 23.7675C231.453 23.2049 231.798 22.3881 231.798 21.3173C231.798 20.2464 231.462 19.466 230.79 18.9759C230.119 18.4677 229.102 18.2045 227.741 18.1864L224.147 18.1319V24.5026L227.741 24.5571Z" fill="black"/>
<path d="M69.5619 55V35.9424H76.6949C78.3103 35.9424 79.6988 36.2055 80.8604 36.7319C82.022 37.2401 82.9114 37.9842 83.5285 38.9644C84.1637 39.9263 84.4813 41.097 84.4813 42.4764C84.4813 43.8195 84.1637 44.9811 83.5285 45.9612C82.9114 46.9232 82.022 47.6673 80.8604 48.1937C79.6988 48.7201 78.3103 48.9832 76.6949 48.9832H70.6782L71.5766 48.0303V55H69.5619ZM71.5766 48.1937L70.6782 47.2136H76.6405C78.5463 47.2136 79.9892 46.8052 80.9693 45.9885C81.9676 45.1536 82.4667 43.9829 82.4667 42.4764C82.4667 40.9518 81.9676 39.772 80.9693 38.9371C79.9892 38.1022 78.5463 37.6848 76.6405 37.6848H70.6782L71.5766 36.7319V48.1937ZM93.9364 55.1361C92.557 55.1361 91.3137 54.8276 90.2065 54.2105C89.1175 53.5752 88.2554 52.7131 87.6201 51.6241C86.9849 50.5169 86.6672 49.2555 86.6672 47.8398C86.6672 46.4059 86.9849 45.1445 87.6201 44.0555C88.2554 42.9665 89.1175 42.1134 90.2065 41.4963C91.2955 40.8792 92.5388 40.5706 93.9364 40.5706C95.3521 40.5706 96.6044 40.8792 97.6934 41.4963C98.8006 42.1134 99.6627 42.9665 100.28 44.0555C100.915 45.1445 101.233 46.4059 101.233 47.8398C101.233 49.2555 100.915 50.5169 100.28 51.6241C99.6627 52.7131 98.8006 53.5752 97.6934 54.2105C96.5863 54.8276 95.3339 55.1361 93.9364 55.1361ZM93.9364 53.4209C94.9709 53.4209 95.8875 53.1941 96.6861 52.7403C97.4847 52.2684 98.1109 51.615 98.5646 50.7801C99.0366 49.927 99.2725 48.9469 99.2725 47.8398C99.2725 46.7145 99.0366 45.7344 98.5646 44.8994C98.1109 44.0645 97.4847 43.4202 96.6861 42.9665C95.8875 42.4946 94.98 42.2586 93.9636 42.2586C92.9472 42.2586 92.0397 42.4946 91.2411 42.9665C90.4425 43.4202 89.8072 44.0645 89.3353 44.8994C88.8634 45.7344 88.6274 46.7145 88.6274 47.8398C88.6274 48.9469 88.8634 49.927 89.3353 50.7801C89.8072 51.615 90.4425 52.2684 91.2411 52.7403C92.0397 53.1941 92.9381 53.4209 93.9364 53.4209ZM111.353 55.1361C109.938 55.1361 108.667 54.8276 107.542 54.2105C106.435 53.5752 105.564 52.7131 104.928 51.6241C104.293 50.5169 103.975 49.2555 103.975 47.8398C103.975 46.4059 104.293 45.1445 104.928 44.0555C105.564 42.9665 106.435 42.1134 107.542 41.4963C108.667 40.8792 109.938 40.5706 111.353 40.5706C112.57 40.5706 113.668 40.8066 114.648 41.2785C115.628 41.7504 116.399 42.4583 116.962 43.4021L115.519 44.3822C115.029 43.6562 114.421 43.1207 113.695 42.7759C112.969 42.431 112.179 42.2586 111.326 42.2586C110.31 42.2586 109.393 42.4946 108.577 42.9665C107.76 43.4202 107.115 44.0645 106.644 44.8994C106.172 45.7344 105.936 46.7145 105.936 47.8398C105.936 48.9651 106.172 49.9452 106.644 50.7801C107.115 51.615 107.76 52.2684 108.577 52.7403C109.393 53.1941 110.31 53.4209 111.326 53.4209C112.179 53.4209 112.969 53.2485 113.695 52.9037C114.421 52.5588 115.029 52.0325 115.519 51.3246L116.962 52.3047C116.399 53.2304 115.628 53.9382 114.648 54.4283C113.668 54.9002 112.57 55.1361 111.353 55.1361ZM126.455 55.1361C125.039 55.1361 123.769 54.8276 122.643 54.2105C121.536 53.5752 120.665 52.7131 120.03 51.6241C119.395 50.5169 119.077 49.2555 119.077 47.8398C119.077 46.4059 119.395 45.1445 120.03 44.0555C120.665 42.9665 121.536 42.1134 122.643 41.4963C123.769 40.8792 125.039 40.5706 126.455 40.5706C127.671 40.5706 128.769 40.8066 129.749 41.2785C130.729 41.7504 131.501 42.4583 132.063 43.4021L130.62 44.3822C130.13 43.6562 129.522 43.1207 128.796 42.7759C128.07 42.431 127.281 42.2586 126.428 42.2586C125.411 42.2586 124.495 42.4946 123.678 42.9665C122.861 43.4202 122.217 44.0645 121.745 44.8994C121.273 45.7344 121.037 46.7145 121.037 47.8398C121.037 48.9651 121.273 49.9452 121.745 50.7801C122.217 51.615 122.861 52.2684 123.678 52.7403C124.495 53.1941 125.411 53.4209 126.428 53.4209C127.281 53.4209 128.07 53.2485 128.796 52.9037C129.522 52.5588 130.13 52.0325 130.62 51.3246L132.063 52.3047C131.501 53.2304 130.729 53.9382 129.749 54.4283C128.769 54.9002 127.671 55.1361 126.455 55.1361ZM135.806 55V40.7068H137.739V52.0597L147.295 40.7068H149.01V55H147.077V43.6199L137.549 55H135.806ZM154.55 55V40.7068H156.483V52.0597L166.039 40.7068H167.754V55H165.821V43.6199L156.292 55H154.55Z" fill="black"/>
<defs>
<radialGradient id="paint0_radial_743_18240" cx="0" cy="0" r="1" gradientUnits="userSpaceOnUse" gradientTransform="translate(29.4814 32.1156) scale(29.075)">
<stop offset="0.0812092" stop-color="#E41824"/>
<stop offset="0.2171" stop-color="#EA5927"/>
<stop offset="0.3639" stop-color="#F08727"/>
<stop offset="0.5084" stop-color="#F5AA23"/>
<stop offset="0.647" stop-color="#FAC31D"/>
<stop offset="0.7783" stop-color="#FDD314"/>
<stop offset="0.8991" stop-color="#FFDD0B"/>
<stop offset="1" stop-color="#FFE006"/>
</radialGradient>
<radialGradient id="paint1_radial_743_18240" cx="0" cy="0" r="1" gradientUnits="userSpaceOnUse" gradientTransform="translate(29.4815 32.1166) scale(22.0618)">
<stop offset="0.0812092" stop-color="#E41824"/>
<stop offset="0.2171" stop-color="#EA5927"/>
<stop offset="0.3639" stop-color="#F08727"/>
<stop offset="0.5084" stop-color="#F5AA23"/>
<stop offset="0.647" stop-color="#FAC31D"/>
<stop offset="0.7783" stop-color="#FDD314"/>
<stop offset="0.8991" stop-color="#FFDD0B"/>
<stop offset="1" stop-color="#FFE006"/>
</radialGradient>
<radialGradient id="paint2_radial_743_18240" cx="0" cy="0" r="1" gradientUnits="userSpaceOnUse" gradientTransform="translate(29.4816 32.1138) scale(22.0618 22.0618)">
<stop offset="0.0812092" stop-color="#E41824"/>
<stop offset="0.2171" stop-color="#EA5927"/>
<stop offset="0.3639" stop-color="#F08727"/>
<stop offset="0.5084" stop-color="#F5AA23"/>
<stop offset="0.647" stop-color="#FAC31D"/>
<stop offset="0.7783" stop-color="#FDD314"/>
<stop offset="0.8991" stop-color="#FFDD0B"/>
<stop offset="1" stop-color="#FFE006"/>
</radialGradient>
<radialGradient id="paint3_radial_743_18240" cx="0" cy="0" r="1" gradientUnits="userSpaceOnUse" gradientTransform="translate(29.4837 32.1145) scale(22.0867 22.0867)">
<stop offset="0.0812092" stop-color="#E41824"/>
<stop offset="0.2171" stop-color="#EA5927"/>
<stop offset="0.3639" stop-color="#F08727"/>
<stop offset="0.5084" stop-color="#F5AA23"/>
<stop offset="0.647" stop-color="#FAC31D"/>
<stop offset="0.7783" stop-color="#FDD314"/>
<stop offset="0.8991" stop-color="#FFDD0B"/>
<stop offset="1" stop-color="#FFE006"/>
</radialGradient>
<radialGradient id="paint4_radial_743_18240" cx="0" cy="0" r="1" gradientUnits="userSpaceOnUse" gradientTransform="translate(29.4835 32.116) scale(22.0867 22.0867)">
<stop offset="0.0812092" stop-color="#E41824"/>
<stop offset="0.2171" stop-color="#EA5927"/>
<stop offset="0.3639" stop-color="#F08727"/>
<stop offset="0.5084" stop-color="#F5AA23"/>
<stop offset="0.647" stop-color="#FAC31D"/>
<stop offset="0.7783" stop-color="#FDD314"/>
<stop offset="0.8991" stop-color="#FFDD0B"/>
<stop offset="1" stop-color="#FFE006"/>
</radialGradient>
<radialGradient id="paint5_radial_743_18240" cx="0" cy="0" r="1" gradientUnits="userSpaceOnUse" gradientTransform="translate(29.4834 32.1117) scale(22.074)">
<stop offset="0.0812092" stop-color="#E41824"/>
<stop offset="0.2171" stop-color="#EA5927"/>
<stop offset="0.3639" stop-color="#F08727"/>
<stop offset="0.5084" stop-color="#F5AA23"/>
<stop offset="0.647" stop-color="#FAC31D"/>
<stop offset="0.7783" stop-color="#FDD314"/>
<stop offset="0.8991" stop-color="#FFDD0B"/>
<stop offset="1" stop-color="#FFE006"/>
</radialGradient>
<radialGradient id="paint6_radial_743_18240" cx="0" cy="0" r="1" gradientUnits="userSpaceOnUse" gradientTransform="translate(29.4863 32.116) scale(22.074)">
<stop offset="0.0812092" stop-color="#E41824"/>
<stop offset="0.2171" stop-color="#EA5927"/>
<stop offset="0.3639" stop-color="#F08727"/>
<stop offset="0.5084" stop-color="#F5AA23"/>
<stop offset="0.647" stop-color="#FAC31D"/>
<stop offset="0.7783" stop-color="#FDD314"/>
<stop offset="0.8991" stop-color="#FFDD0B"/>
<stop offset="1" stop-color="#FFE006"/>
</radialGradient>
<radialGradient id="paint7_radial_743_18240" cx="0" cy="0" r="1" gradientUnits="userSpaceOnUse" gradientTransform="translate(29.4926 32.116) scale(22.0807 22.0807)">
<stop offset="0.0812092" stop-color="#E41824"/>
<stop offset="0.2171" stop-color="#EA5927"/>
<stop offset="0.3639" stop-color="#F08727"/>
<stop offset="0.5084" stop-color="#F5AA23"/>
<stop offset="0.647" stop-color="#FAC31D"/>
<stop offset="0.7783" stop-color="#FDD314"/>
<stop offset="0.8991" stop-color="#FFDD0B"/>
<stop offset="1" stop-color="#FFE006"/>
</radialGradient>
<radialGradient id="paint8_radial_743_18240" cx="0" cy="0" r="1" gradientUnits="userSpaceOnUse" gradientTransform="translate(29.482 32.1251) scale(22.0807 22.0807)">
<stop offset="0.0812092" stop-color="#E41824"/>
<stop offset="0.2171" stop-color="#EA5927"/>
<stop offset="0.3639" stop-color="#F08727"/>
<stop offset="0.5084" stop-color="#F5AA23"/>
<stop offset="0.647" stop-color="#FAC31D"/>
<stop offset="0.7783" stop-color="#FDD314"/>
<stop offset="0.8991" stop-color="#FFDD0B"/>
<stop offset="1" stop-color="#FFE006"/>
</radialGradient>
<radialGradient id="paint9_radial_743_18240" cx="0" cy="0" r="1" gradientUnits="userSpaceOnUse" gradientTransform="translate(29.474 32.1191) scale(22.0661 22.0661)">
<stop offset="0.0812092" stop-color="#E41824"/>
<stop offset="0.2171" stop-color="#EA5927"/>
<stop offset="0.3639" stop-color="#F08727"/>
<stop offset="0.5084" stop-color="#F5AA23"/>
<stop offset="0.647" stop-color="#FAC31D"/>
<stop offset="0.7783" stop-color="#FDD314"/>
<stop offset="0.8991" stop-color="#FFDD0B"/>
<stop offset="1" stop-color="#FFE006"/>
</radialGradient>
<radialGradient id="paint10_radial_743_18240" cx="0" cy="0" r="1" gradientUnits="userSpaceOnUse" gradientTransform="translate(29.479 32.1065) scale(22.0661 22.0661)">
<stop offset="0.0812092" stop-color="#E41824"/>
<stop offset="0.2171" stop-color="#EA5927"/>
<stop offset="0.3639" stop-color="#F08727"/>
<stop offset="0.5084" stop-color="#F5AA23"/>
<stop offset="0.647" stop-color="#FAC31D"/>
<stop offset="0.7783" stop-color="#FDD314"/>
<stop offset="0.8991" stop-color="#FFDD0B"/>
<stop offset="1" stop-color="#FFE006"/>
</radialGradient>
<radialGradient id="paint11_radial_743_18240" cx="0" cy="0" r="1" gradientUnits="userSpaceOnUse" gradientTransform="translate(29.485 32.115) scale(22.0839 22.0839)">
<stop offset="0.0812092" stop-color="#E41824"/>
<stop offset="0.2171" stop-color="#EA5927"/>
<stop offset="0.3639" stop-color="#F08727"/>
<stop offset="0.5084" stop-color="#F5AA23"/>
<stop offset="0.647" stop-color="#FAC31D"/>
<stop offset="0.7783" stop-color="#FDD314"/>
<stop offset="0.8991" stop-color="#FFDD0B"/>
<stop offset="1" stop-color="#FFE006"/>
</radialGradient>
<radialGradient id="paint12_radial_743_18240" cx="0" cy="0" r="1" gradientUnits="userSpaceOnUse" gradientTransform="translate(29.4831 32.1175) scale(22.0839 22.0839)">
<stop offset="0.0812092" stop-color="#E41824"/>
<stop offset="0.2171" stop-color="#EA5927"/>
<stop offset="0.3639" stop-color="#F08727"/>
<stop offset="0.5084" stop-color="#F5AA23"/>
<stop offset="0.647" stop-color="#FAC31D"/>
<stop offset="0.7783" stop-color="#FDD314"/>
<stop offset="0.8991" stop-color="#FFDD0B"/>
<stop offset="1" stop-color="#FFE006"/>
</radialGradient>
<radialGradient id="paint13_radial_743_18240" cx="0" cy="0" r="1" gradientUnits="userSpaceOnUse" gradientTransform="translate(29.4808 32.117) scale(22.0801)">
<stop offset="0.0812092" stop-color="#E41824"/>
<stop offset="0.2171" stop-color="#EA5927"/>
<stop offset="0.3639" stop-color="#F08727"/>
<stop offset="0.5084" stop-color="#F5AA23"/>
<stop offset="0.647" stop-color="#FAC31D"/>
<stop offset="0.7783" stop-color="#FDD314"/>
<stop offset="0.8991" stop-color="#FFDD0B"/>
<stop offset="1" stop-color="#FFE006"/>
</radialGradient>
<radialGradient id="paint14_radial_743_18240" cx="0" cy="0" r="1" gradientUnits="userSpaceOnUse" gradientTransform="translate(29.4813 32.1131) scale(22.0801 22.0801)">
<stop offset="0.0812092" stop-color="#E41824"/>
<stop offset="0.2171" stop-color="#EA5927"/>
<stop offset="0.3639" stop-color="#F08727"/>
<stop offset="0.5084" stop-color="#F5AA23"/>
<stop offset="0.647" stop-color="#FAC31D"/>
<stop offset="0.7783" stop-color="#FDD314"/>
<stop offset="0.8991" stop-color="#FFDD0B"/>
<stop offset="1" stop-color="#FFE006"/>
</radialGradient>
<radialGradient id="paint15_radial_743_18240" cx="0" cy="0" r="1" gradientUnits="userSpaceOnUse" gradientTransform="translate(29.4826 32.1159) scale(22.0668 22.0668)">
<stop offset="0.0812092" stop-color="#E41824"/>
<stop offset="0.2171" stop-color="#EA5927"/>
<stop offset="0.3639" stop-color="#F08727"/>
<stop offset="0.5084" stop-color="#F5AA23"/>
<stop offset="0.647" stop-color="#FAC31D"/>
<stop offset="0.7783" stop-color="#FDD314"/>
<stop offset="0.8991" stop-color="#FFDD0B"/>
<stop offset="1" stop-color="#FFE006"/>
</radialGradient>
<radialGradient id="paint16_radial_743_18240" cx="0" cy="0" r="1" gradientUnits="userSpaceOnUse" gradientTransform="translate(29.4825 32.1149) scale(22.0668 22.0668)">
<stop offset="0.0812092" stop-color="#E41824"/>
<stop offset="0.2171" stop-color="#EA5927"/>
<stop offset="0.3639" stop-color="#F08727"/>
<stop offset="0.5084" stop-color="#F5AA23"/>
<stop offset="0.647" stop-color="#FAC31D"/>
<stop offset="0.7783" stop-color="#FDD314"/>
<stop offset="0.8991" stop-color="#FFDD0B"/>
<stop offset="1" stop-color="#FFE006"/>
</radialGradient>
<radialGradient id="paint17_radial_743_18240" cx="0" cy="0" r="1" gradientUnits="userSpaceOnUse" gradientTransform="translate(29.473 32.1201) scale(22.0732 22.0732)">
<stop offset="0.0812092" stop-color="#E41824"/>
<stop offset="0.2171" stop-color="#EA5927"/>
<stop offset="0.3639" stop-color="#F08727"/>
<stop offset="0.5084" stop-color="#F5AA23"/>
<stop offset="0.647" stop-color="#FAC31D"/>
<stop offset="0.7783" stop-color="#FDD314"/>
<stop offset="0.8991" stop-color="#FFDD0B"/>
<stop offset="1" stop-color="#FFE006"/>
</radialGradient>
<radialGradient id="paint18_radial_743_18240" cx="0" cy="0" r="1" gradientUnits="userSpaceOnUse" gradientTransform="translate(29.4781 32.1055) scale(22.0732 22.0732)">
<stop offset="0.0812092" stop-color="#E41824"/>
<stop offset="0.2171" stop-color="#EA5927"/>
<stop offset="0.3639" stop-color="#F08727"/>
<stop offset="0.5084" stop-color="#F5AA23"/>
<stop offset="0.647" stop-color="#FAC31D"/>
<stop offset="0.7783" stop-color="#FDD314"/>
<stop offset="0.8991" stop-color="#FFDD0B"/>
<stop offset="1" stop-color="#FFE006"/>
</radialGradient>
<radialGradient id="paint19_radial_743_18240" cx="0" cy="0" r="1" gradientUnits="userSpaceOnUse" gradientTransform="translate(29.4797 32.1147) scale(22.0796)">
<stop offset="0.0812092" stop-color="#E41824"/>
<stop offset="0.2171" stop-color="#EA5927"/>
<stop offset="0.3639" stop-color="#F08727"/>
<stop offset="0.5084" stop-color="#F5AA23"/>
<stop offset="0.647" stop-color="#FAC31D"/>
<stop offset="0.7783" stop-color="#FDD314"/>
<stop offset="0.8991" stop-color="#FFDD0B"/>
<stop offset="1" stop-color="#FFE006"/>
</radialGradient>
<radialGradient id="paint20_radial_743_18240" cx="0" cy="0" r="1" gradientUnits="userSpaceOnUse" gradientTransform="translate(29.4834 32.1122) scale(22.0796)">
<stop offset="0.0812092" stop-color="#E41824"/>
<stop offset="0.2171" stop-color="#EA5927"/>
<stop offset="0.3639" stop-color="#F08727"/>
<stop offset="0.5084" stop-color="#F5AA23"/>
<stop offset="0.647" stop-color="#FAC31D"/>
<stop offset="0.7783" stop-color="#FDD314"/>
<stop offset="0.8991" stop-color="#FFDD0B"/>
<stop offset="1" stop-color="#FFE006"/>
</radialGradient>
<radialGradient id="paint21_radial_743_18240" cx="0" cy="0" r="1" gradientUnits="userSpaceOnUse" gradientTransform="translate(29.4838 32.1135) scale(22.0832)">
<stop offset="0.0812092" stop-color="#E41824"/>
<stop offset="0.2171" stop-color="#EA5927"/>
<stop offset="0.3639" stop-color="#F08727"/>
<stop offset="0.5084" stop-color="#F5AA23"/>
<stop offset="0.647" stop-color="#FAC31D"/>
<stop offset="0.7783" stop-color="#FDD314"/>
<stop offset="0.8991" stop-color="#FFDD0B"/>
<stop offset="1" stop-color="#FFE006"/>
</radialGradient>
<radialGradient id="paint22_radial_743_18240" cx="0" cy="0" r="1" gradientUnits="userSpaceOnUse" gradientTransform="translate(29.4847 32.1161) scale(22.0832 22.0832)">
<stop offset="0.0812092" stop-color="#E41824"/>
<stop offset="0.2171" stop-color="#EA5927"/>
<stop offset="0.3639" stop-color="#F08727"/>
<stop offset="0.5084" stop-color="#F5AA23"/>
<stop offset="0.647" stop-color="#FAC31D"/>
<stop offset="0.7783" stop-color="#FDD314"/>
<stop offset="0.8991" stop-color="#FFDD0B"/>
<stop offset="1" stop-color="#FFE006"/>
</radialGradient>
<radialGradient id="paint23_radial_743_18240" cx="0" cy="0" r="1" gradientUnits="userSpaceOnUse" gradientTransform="translate(29.486 32.114) scale(22.0625)">
<stop offset="0.0812092" stop-color="#E41824"/>
<stop offset="0.2171" stop-color="#EA5927"/>
<stop offset="0.3639" stop-color="#F08727"/>
<stop offset="0.5084" stop-color="#F5AA23"/>
<stop offset="0.647" stop-color="#FAC31D"/>
<stop offset="0.7783" stop-color="#FDD314"/>
<stop offset="0.8991" stop-color="#FFDD0B"/>
<stop offset="1" stop-color="#FFE006"/>
</radialGradient>
<radialGradient id="paint24_radial_743_18240" cx="0" cy="0" r="1" gradientUnits="userSpaceOnUse" gradientTransform="translate(29.4844 32.1183) scale(22.0625 22.0625)">
<stop offset="0.0812092" stop-color="#E41824"/>
<stop offset="0.2171" stop-color="#EA5927"/>
<stop offset="0.3639" stop-color="#F08727"/>
<stop offset="0.5084" stop-color="#F5AA23"/>
<stop offset="0.647" stop-color="#FAC31D"/>
<stop offset="0.7783" stop-color="#FDD314"/>
<stop offset="0.8991" stop-color="#FFDD0B"/>
<stop offset="1" stop-color="#FFE006"/>
</radialGradient>
<radialGradient id="paint25_radial_743_18240" cx="0" cy="0" r="1" gradientUnits="userSpaceOnUse" gradientTransform="translate(29.4832 32.1089) scale(22.0798)">
<stop offset="0.0812092" stop-color="#E41824"/>
<stop offset="0.2171" stop-color="#EA5927"/>
<stop offset="0.3639" stop-color="#F08727"/>
<stop offset="0.5084" stop-color="#F5AA23"/>
<stop offset="0.647" stop-color="#FAC31D"/>
<stop offset="0.7783" stop-color="#FDD314"/>
<stop offset="0.8991" stop-color="#FFDD0B"/>
<stop offset="1" stop-color="#FFE006"/>
</radialGradient>
<radialGradient id="paint26_radial_743_18240" cx="0" cy="0" r="1" gradientUnits="userSpaceOnUse" gradientTransform="translate(29.4891 32.1157) scale(22.0798 22.0798)">
<stop offset="0.0812092" stop-color="#E41824"/>
<stop offset="0.2171" stop-color="#EA5927"/>
<stop offset="0.3639" stop-color="#F08727"/>
<stop offset="0.5084" stop-color="#F5AA23"/>
<stop offset="0.647" stop-color="#FAC31D"/>
<stop offset="0.7783" stop-color="#FDD314"/>
<stop offset="0.8991" stop-color="#FFDD0B"/>
<stop offset="1" stop-color="#FFE006"/>
</radialGradient>
<radialGradient id="paint27_radial_743_18240" cx="0" cy="0" r="1" gradientUnits="userSpaceOnUse" gradientTransform="translate(29.4849 32.1148) scale(22.0727)">
<stop offset="0.0812092" stop-color="#E41824"/>
<stop offset="0.2171" stop-color="#EA5927"/>
<stop offset="0.3639" stop-color="#F08727"/>
<stop offset="0.5084" stop-color="#F5AA23"/>
<stop offset="0.647" stop-color="#FAC31D"/>
<stop offset="0.7783" stop-color="#FDD314"/>
<stop offset="0.8991" stop-color="#FFDD0B"/>
<stop offset="1" stop-color="#FFE006"/>
</radialGradient>
<radialGradient id="paint28_radial_743_18240" cx="0" cy="0" r="1" gradientUnits="userSpaceOnUse" gradientTransform="translate(29.4832 32.1174) scale(22.0727 22.0727)">
<stop offset="0.0812092" stop-color="#E41824"/>
<stop offset="0.2171" stop-color="#EA5927"/>
<stop offset="0.3639" stop-color="#F08727"/>
<stop offset="0.5084" stop-color="#F5AA23"/>
<stop offset="0.647" stop-color="#FAC31D"/>
<stop offset="0.7783" stop-color="#FDD314"/>
<stop offset="0.8991" stop-color="#FFDD0B"/>
<stop offset="1" stop-color="#FFE006"/>
</radialGradient>
<radialGradient id="paint29_radial_743_18240" cx="0" cy="0" r="1" gradientUnits="userSpaceOnUse" gradientTransform="translate(29.4843 32.1157) scale(22.0869 22.0869)">
<stop offset="0.0812092" stop-color="#E41824"/>
<stop offset="0.2171" stop-color="#EA5927"/>
<stop offset="0.3639" stop-color="#F08727"/>
<stop offset="0.5084" stop-color="#F5AA23"/>
<stop offset="0.647" stop-color="#FAC31D"/>
<stop offset="0.7783" stop-color="#FDD314"/>
<stop offset="0.8991" stop-color="#FFDD0B"/>
<stop offset="1" stop-color="#FFE006"/>
</radialGradient>
<radialGradient id="paint30_radial_743_18240" cx="0" cy="0" r="1" gradientUnits="userSpaceOnUse" gradientTransform="translate(29.4823 32.1168) scale(22.0869)">
<stop offset="0.0812092" stop-color="#E41824"/>
<stop offset="0.2171" stop-color="#EA5927"/>
<stop offset="0.3639" stop-color="#F08727"/>
<stop offset="0.5084" stop-color="#F5AA23"/>
<stop offset="0.647" stop-color="#FAC31D"/>
<stop offset="0.7783" stop-color="#FDD314"/>
<stop offset="0.8991" stop-color="#FFDD0B"/>
<stop offset="1" stop-color="#FFE006"/>
</radialGradient>
<radialGradient id="paint31_radial_743_18240" cx="0" cy="0" r="1" gradientUnits="userSpaceOnUse" gradientTransform="translate(29.4827 32.1156) scale(22.0617 22.0617)">
<stop offset="0.0812092" stop-color="#E41824"/>
<stop offset="0.2171" stop-color="#EA5927"/>
<stop offset="0.3639" stop-color="#F08727"/>
<stop offset="0.5084" stop-color="#F5AA23"/>
<stop offset="0.647" stop-color="#FAC31D"/>
<stop offset="0.7783" stop-color="#FDD314"/>
<stop offset="0.8991" stop-color="#FFDD0B"/>
<stop offset="1" stop-color="#FFE006"/>
</radialGradient>
<radialGradient id="paint32_radial_743_18240" cx="0" cy="0" r="1" gradientUnits="userSpaceOnUse" gradientTransform="translate(29.4824 32.1151) scale(22.0617)">
<stop offset="0.0812092" stop-color="#E41824"/>
<stop offset="0.2171" stop-color="#EA5927"/>
<stop offset="0.3639" stop-color="#F08727"/>
<stop offset="0.5084" stop-color="#F5AA23"/>
<stop offset="0.647" stop-color="#FAC31D"/>
<stop offset="0.7783" stop-color="#FDD314"/>
<stop offset="0.8991" stop-color="#FFDD0B"/>
<stop offset="1" stop-color="#FFE006"/>
</radialGradient>
</defs>
</svg>
