<svg width="1236" height="654" viewBox="0 0 1236 654" fill="none" xmlns="http://www.w3.org/2000/svg">
<rect y="263" width="1236" height="391" rx="20" fill="#FFEB59"/>
<path d="M119.5 355.5V301L284.5 79H369.5L208 301L168.5 289.5H444V355.5H119.5ZM308 429V355.5L310.5 289.5V224H387V429H308ZM618.227 435C589.56 435 563.893 428 541.227 414C518.56 399.667 500.727 379 487.727 352C474.727 325 468.227 292.333 468.227 254C468.227 215.667 474.727 183 487.727 156C500.727 129 518.56 108.5 541.227 94.5C563.893 80.1667 589.56 73 618.227 73C647.227 73 672.893 80.1667 695.227 94.5C717.893 108.5 735.727 129 748.727 156C761.727 183 768.227 215.667 768.227 254C768.227 292.333 761.727 325 748.727 352C735.727 379 717.893 399.667 695.227 414C672.893 428 647.227 435 618.227 435ZM618.227 366.5C631.893 366.5 643.727 362.667 653.727 355C664.06 347.333 672.06 335.167 677.727 318.5C683.727 301.833 686.727 280.333 686.727 254C686.727 227.667 683.727 206.167 677.727 189.5C672.06 172.833 664.06 160.667 653.727 153C643.727 145.333 631.893 141.5 618.227 141.5C604.893 141.5 593.06 145.333 582.727 153C572.727 160.667 564.727 172.833 558.727 189.5C553.06 206.167 550.227 227.667 550.227 254C550.227 280.333 553.06 301.833 558.727 318.5C564.727 335.167 572.727 347.333 582.727 355C593.06 362.667 604.893 366.5 618.227 366.5ZM803.582 355.5V301L968.582 79H1053.58L892.082 301L852.582 289.5H1128.08V355.5H803.582ZM992.082 429V355.5L994.582 289.5V224H1071.08V429H992.082Z" fill="#2F2F2F"/>
<rect x="82" y="49" width="1114" height="214" fill="#F3F3F3"/>
<mask id="path-4-outside-1_1302_26317" maskUnits="userSpaceOnUse" x="117" y="71" width="1014" height="366" fill="black">
<rect fill="white" x="117" y="71" width="1014" height="366"/>
<path d="M119.5 355.5V301L284.5 79H369.5L208 301L168.5 289.5H444V355.5H119.5ZM308 429V355.5L310.5 289.5V224H387V429H308ZM618.227 435C589.56 435 563.893 428 541.227 414C518.56 399.667 500.727 379 487.727 352C474.727 325 468.227 292.333 468.227 254C468.227 215.667 474.727 183 487.727 156C500.727 129 518.56 108.5 541.227 94.5C563.893 80.1667 589.56 73 618.227 73C647.227 73 672.893 80.1667 695.227 94.5C717.893 108.5 735.727 129 748.727 156C761.727 183 768.227 215.667 768.227 254C768.227 292.333 761.727 325 748.727 352C735.727 379 717.893 399.667 695.227 414C672.893 428 647.227 435 618.227 435ZM618.227 366.5C631.893 366.5 643.727 362.667 653.727 355C664.06 347.333 672.06 335.167 677.727 318.5C683.727 301.833 686.727 280.333 686.727 254C686.727 227.667 683.727 206.167 677.727 189.5C672.06 172.833 664.06 160.667 653.727 153C643.727 145.333 631.893 141.5 618.227 141.5C604.893 141.5 593.06 145.333 582.727 153C572.727 160.667 564.727 172.833 558.727 189.5C553.06 206.167 550.227 227.667 550.227 254C550.227 280.333 553.06 301.833 558.727 318.5C564.727 335.167 572.727 347.333 582.727 355C593.06 362.667 604.893 366.5 618.227 366.5ZM803.582 355.5V301L968.582 79H1053.58L892.082 301L852.582 289.5H1128.08V355.5H803.582ZM992.082 429V355.5L994.582 289.5V224H1071.08V429H992.082Z"/>
</mask>
<path d="M119.5 355.5H117.5V357.5H119.5V355.5ZM119.5 301L117.895 299.807L117.5 300.338V301H119.5ZM284.5 79V77H283.495L282.895 77.8069L284.5 79ZM369.5 79L371.117 80.1765L373.428 77H369.5V79ZM208 301L207.441 302.92L208.79 303.313L209.617 302.177L208 301ZM168.5 289.5V287.5L167.941 291.42L168.5 289.5ZM444 289.5H446V287.5H444V289.5ZM444 355.5V357.5H446V355.5H444ZM308 429H306V431H308V429ZM308 355.5L306.001 355.424L306 355.462V355.5H308ZM310.5 289.5L312.499 289.576L312.5 289.538V289.5H310.5ZM310.5 224V222H308.5V224H310.5ZM387 224H389V222H387V224ZM387 429V431H389V429H387ZM119.5 355.5H121.5V301H119.5H117.5V355.5H119.5ZM119.5 301L121.105 302.193L286.105 80.193L284.5 79L282.895 77.8069L117.895 299.807L119.5 301ZM284.5 79V81H369.5V79V77H284.5V79ZM369.5 79L367.883 77.8234L206.383 299.823L208 301L209.617 302.177L371.117 80.1765L369.5 79ZM208 301L208.559 299.08L169.059 287.58L168.5 289.5L167.941 291.42L207.441 302.92L208 301ZM168.5 289.5V291.5H444V289.5V287.5H168.5V289.5ZM444 289.5H442V355.5H444H446V289.5H444ZM444 355.5V353.5H119.5V355.5V357.5H444V355.5ZM308 429H310V355.5H308H306V429H308ZM308 355.5L309.999 355.576L312.499 289.576L310.5 289.5L308.501 289.424L306.001 355.424L308 355.5ZM310.5 289.5H312.5V224H310.5H308.5V289.5H310.5ZM310.5 224V226H387V224V222H310.5V224ZM387 224H385V429H387H389V224H387ZM387 429V427H308V429V431H387V429ZM541.227 414L540.158 415.69L540.167 415.696L540.176 415.702L541.227 414ZM487.727 352L485.925 352.868L487.727 352ZM487.727 156L489.529 156.868L487.727 156ZM541.227 94.5L542.278 96.2016L542.287 96.196L542.295 96.1904L541.227 94.5ZM695.227 94.5L694.146 96.1832L694.161 96.1925L694.176 96.2016L695.227 94.5ZM748.727 156L746.925 156.868L748.727 156ZM748.727 352L746.925 351.132L748.727 352ZM695.227 414L696.289 415.695L696.295 415.69L695.227 414ZM653.727 355L652.535 353.394L652.522 353.403L652.51 353.413L653.727 355ZM677.727 318.5L675.845 317.823L675.839 317.839L675.833 317.856L677.727 318.5ZM677.727 189.5L675.833 190.144L675.839 190.161L675.845 190.177L677.727 189.5ZM653.727 153L652.51 154.587L652.522 154.597L652.535 154.606L653.727 153ZM582.727 153L581.535 151.394L581.522 151.403L581.51 151.413L582.727 153ZM558.727 189.5L556.845 188.823L556.839 188.839L556.833 188.856L558.727 189.5ZM558.727 318.5L556.833 319.144L556.839 319.161L556.845 319.177L558.727 318.5ZM582.727 355L581.51 356.587L581.522 356.597L581.535 356.606L582.727 355ZM618.227 435V433C589.902 433 564.604 426.088 542.278 412.298L541.227 414L540.176 415.702C563.182 429.912 589.218 437 618.227 437V435ZM541.227 414L542.295 412.31C519.982 398.199 502.386 377.836 489.529 351.132L487.727 352L485.925 352.868C499.067 380.164 517.138 401.134 540.158 415.69L541.227 414ZM487.727 352L489.529 351.132C476.69 324.468 470.227 292.114 470.227 254H468.227H466.227C466.227 292.553 472.763 325.532 485.925 352.868L487.727 352ZM468.227 254H470.227C470.227 215.886 476.69 183.532 489.529 156.868L487.727 156L485.925 155.132C472.763 182.468 466.227 215.447 466.227 254H468.227ZM487.727 156L489.529 156.868C502.384 130.167 519.975 109.977 542.278 96.2016L541.227 94.5L540.176 92.7984C517.145 107.023 499.069 127.833 485.925 155.132L487.727 156ZM541.227 94.5L542.295 96.1904C564.62 82.0734 589.911 75 618.227 75V73V71C589.209 71 563.166 78.2599 540.158 92.8096L541.227 94.5ZM618.227 73V75C646.881 75 672.165 82.0758 694.146 96.1832L695.227 94.5L696.307 92.8168C673.621 78.2575 647.573 71 618.227 71V73ZM695.227 94.5L694.176 96.2016C716.478 109.977 734.069 130.167 746.925 156.868L748.727 156L750.529 155.132C737.384 127.833 719.308 107.023 696.278 92.7984L695.227 94.5ZM748.727 156L746.925 156.868C759.763 183.532 766.227 215.886 766.227 254H768.227H770.227C770.227 215.447 763.69 182.468 750.529 155.132L748.727 156ZM768.227 254H766.227C766.227 292.114 759.763 324.468 746.925 351.132L748.727 352L750.529 352.868C763.69 325.532 770.227 292.553 770.227 254H768.227ZM748.727 352L746.925 351.132C734.067 377.836 716.472 398.199 694.158 412.31L695.227 414L696.295 415.69C719.315 401.134 737.386 380.164 750.529 352.868L748.727 352ZM695.227 414L694.164 412.305C672.181 426.086 646.89 433 618.227 433V435V437C647.563 437 673.606 429.914 696.289 415.695L695.227 414ZM618.227 366.5V368.5C632.294 368.5 644.564 364.545 654.943 356.587L653.727 355L652.51 353.413C642.889 360.789 631.493 364.5 618.227 364.5V366.5ZM653.727 355L654.918 356.606C665.678 348.623 673.87 336.057 679.62 319.144L677.727 318.5L675.833 317.856C670.25 334.276 662.442 346.044 652.535 353.394L653.727 355ZM677.727 318.5L679.608 319.177C685.715 302.215 688.727 280.463 688.727 254H686.727H684.727C684.727 280.204 681.738 301.452 675.845 317.823L677.727 318.5ZM686.727 254H688.727C688.727 227.537 685.715 205.785 679.608 188.823L677.727 189.5L675.845 190.177C681.738 206.548 684.727 227.796 684.727 254H686.727ZM677.727 189.5L679.62 188.856C673.87 171.943 665.678 159.377 654.918 151.394L653.727 153L652.535 154.606C662.442 161.956 670.25 173.724 675.833 190.144L677.727 189.5ZM653.727 153L654.943 151.413C644.564 143.455 632.294 139.5 618.227 139.5V141.5V143.5C631.493 143.5 642.889 147.211 652.51 154.587L653.727 153ZM618.227 141.5V139.5C604.481 139.5 592.226 143.462 581.535 151.394L582.727 153L583.918 154.606C593.894 147.205 605.306 143.5 618.227 143.5V141.5ZM582.727 153L581.51 151.413C571.106 159.389 562.924 171.935 556.845 188.823L558.727 189.5L560.608 190.177C566.529 173.731 574.348 161.944 583.943 154.587L582.727 153ZM558.727 189.5L556.833 188.856C551.07 205.806 548.227 227.545 548.227 254H550.227H552.227C552.227 227.788 555.05 206.527 560.62 190.144L558.727 189.5ZM550.227 254H548.227C548.227 280.455 551.07 302.194 556.833 319.144L558.727 318.5L560.62 317.856C555.05 301.473 552.227 280.212 552.227 254H550.227ZM558.727 318.5L556.845 319.177C562.924 336.065 571.106 348.611 581.51 356.587L582.727 355L583.943 353.413C574.348 346.056 566.529 334.269 560.608 317.823L558.727 318.5ZM582.727 355L581.535 356.606C592.226 364.538 604.481 368.5 618.227 368.5V366.5V364.5C605.306 364.5 593.894 360.795 583.918 353.394L582.727 355ZM803.582 355.5H801.582V357.5H803.582V355.5ZM803.582 301L801.977 299.807L801.582 300.338V301H803.582ZM968.582 79V77H967.577L966.977 77.8069L968.582 79ZM1053.58 79L1055.2 80.1765L1057.51 77H1053.58V79ZM892.082 301L891.523 302.92L892.872 303.313L893.699 302.177L892.082 301ZM852.582 289.5V287.5L852.023 291.42L852.582 289.5ZM1128.08 289.5H1130.08V287.5H1128.08V289.5ZM1128.08 355.5V357.5H1130.08V355.5H1128.08ZM992.082 429H990.082V431H992.082V429ZM992.082 355.5L990.083 355.424L990.082 355.462V355.5H992.082ZM994.582 289.5L996.581 289.576L996.582 289.538V289.5H994.582ZM994.582 224V222H992.582V224H994.582ZM1071.08 224H1073.08V222H1071.08V224ZM1071.08 429V431H1073.08V429H1071.08ZM803.582 355.5H805.582V301H803.582H801.582V355.5H803.582ZM803.582 301L805.187 302.193L970.187 80.193L968.582 79L966.977 77.8069L801.977 299.807L803.582 301ZM968.582 79V81H1053.58V79V77H968.582V79ZM1053.58 79L1051.96 77.8234L890.465 299.823L892.082 301L893.699 302.177L1055.2 80.1765L1053.58 79ZM892.082 301L892.641 299.08L853.141 287.58L852.582 289.5L852.023 291.42L891.523 302.92L892.082 301ZM852.582 289.5V291.5H1128.08V289.5V287.5H852.582V289.5ZM1128.08 289.5H1126.08V355.5H1128.08H1130.08V289.5H1128.08ZM1128.08 355.5V353.5H803.582V355.5V357.5H1128.08V355.5ZM992.082 429H994.082V355.5H992.082H990.082V429H992.082ZM992.082 355.5L994.081 355.576L996.581 289.576L994.582 289.5L992.583 289.424L990.083 355.424L992.082 355.5ZM994.582 289.5H996.582V224H994.582H992.582V289.5H994.582ZM994.582 224V226H1071.08V224V222H994.582V224ZM1071.08 224H1069.08V429H1071.08H1073.08V224H1071.08ZM1071.08 429V427H992.082V429V431H1071.08V429Z" fill="#2F2F2F" mask="url(#path-4-outside-1_1302_26317)"/>
</svg>
