<svg width="47" height="40" viewBox="0 0 47 40" fill="none" xmlns="http://www.w3.org/2000/svg">
<path d="M3.01754 39.8184C2.61268 39.8184 2.24462 39.7175 1.91337 39.5158C1.58212 39.3141 1.32448 39.0469 1.14045 38.7142C0.956426 38.3815 0.855579 38.0222 0.837913 37.6365C0.820246 37.2508 0.921093 36.8739 1.14045 36.5059L21.5675 1.17253C21.7884 0.804471 22.074 0.528429 22.4244 0.344401C22.7748 0.160373 23.1332 0.0683594 23.4998 0.0683594C23.8664 0.0683594 24.2256 0.160373 24.5775 0.344401C24.9294 0.528429 25.2142 0.804471 25.4321 1.17253L45.8592 36.5059C46.08 36.8739 46.1816 37.2515 46.164 37.6387C46.1463 38.0259 46.0447 38.3844 45.8592 38.7142C45.6737 39.044 45.4161 39.3112 45.0863 39.5158C44.7565 39.7205 44.3885 39.8213 43.9821 39.8184H3.01754ZM23.4998 33.1934C24.1255 33.1934 24.6504 32.9814 25.0744 32.5574C25.4984 32.1334 25.7096 31.6093 25.7082 30.985C25.7067 30.3608 25.4947 29.8367 25.0722 29.4127C24.6496 28.9887 24.1255 28.7767 23.4998 28.7767C22.8741 28.7767 22.35 28.9887 21.9275 29.4127C21.505 29.8367 21.293 30.3608 21.2915 30.985C21.29 31.6093 21.502 32.1341 21.9275 32.5596C22.353 32.985 22.8771 33.1963 23.4998 33.1934ZM23.4998 26.5684C24.1255 26.5684 24.6504 26.3564 25.0744 25.9324C25.4984 25.5084 25.7096 24.9842 25.7082 24.36V17.735C25.7082 17.1093 25.4962 16.5852 25.0722 16.1627C24.6482 15.7402 24.1241 15.5282 23.4998 15.5267C22.8756 15.5252 22.3515 15.7372 21.9275 16.1627C21.5035 16.5882 21.2915 17.1123 21.2915 17.735V24.36C21.2915 24.9857 21.5035 25.5106 21.9275 25.9346C22.3515 26.3586 22.8756 26.5698 23.4998 26.5684Z" fill="black"/>
</svg>
