<svg width="39" height="39" viewBox="0 0 39 39" fill="none" xmlns="http://www.w3.org/2000/svg">
<path d="M17.877 4.46875C18.2002 4.46853 18.5101 4.33992 18.7385 4.11121C18.9669 3.8825 19.0951 3.57242 19.0949 3.24919C19.0947 2.92596 18.9661 2.61605 18.7374 2.38764C18.5086 2.15923 18.1986 2.03103 17.8753 2.03125C14.5993 2.03775 11.9896 2.07838 9.91608 2.41313C7.80358 2.75438 6.11683 3.42063 4.7697 4.76775C3.31533 6.2205 2.6572 8.073 2.34195 10.4228C2.0332 12.714 2.0332 15.6553 2.0332 19.4058V19.5926C2.0332 23.3431 2.0332 26.2828 2.34195 28.5773C2.6572 30.9254 3.31695 32.7779 4.7697 34.2323C6.22408 35.685 8.07658 36.3447 10.4247 36.66C12.7176 36.9688 15.6572 36.9688 19.4093 36.9688H19.5946C23.3467 36.9688 26.2863 36.9688 28.5808 36.66C30.9273 36.3431 32.7798 35.685 34.2342 34.2306C35.5797 32.8851 36.246 31.1968 36.5872 29.0859C36.9236 27.0107 36.9642 24.401 36.9691 21.1266C36.9694 20.9666 36.9382 20.808 36.8772 20.66C36.8163 20.5121 36.7268 20.3775 36.6138 20.2641C36.3857 20.0351 36.076 19.9061 35.7528 19.9054C35.4295 19.9048 35.1193 20.0326 34.8903 20.2607C34.6612 20.4888 34.5322 20.7985 34.5316 21.1217C34.5267 24.4368 34.4812 26.8466 34.1806 28.6959C33.8881 30.5094 33.3681 31.6485 32.5101 32.5081C31.5838 33.4344 30.3326 33.9641 28.2542 34.2436C26.1417 34.528 23.3662 34.5296 19.502 34.5296C15.6377 34.5296 12.8622 34.528 10.7497 34.2436C8.67133 33.9641 7.41845 33.4327 6.4922 32.5081C5.56758 31.5819 5.0362 30.3306 4.7567 28.2506C4.47395 26.1381 4.4707 23.3643 4.4707 19.4984C4.4707 15.6325 4.47395 12.8586 4.7567 10.7461C5.0362 8.66937 5.5692 7.41488 6.49383 6.49025C7.35183 5.63225 8.49258 5.11388 10.3045 4.81975C12.1537 4.52075 14.562 4.47525 17.877 4.46875Z" fill="#4B4B4B"/>
<path d="M25.8472 3.25C25.8472 3.92275 26.3933 4.46875 27.066 4.46875H32.8071L20.7188 16.5587V13C20.7188 12.6768 20.5903 12.3668 20.3618 12.1382C20.1332 11.9097 19.8232 11.7812 19.5 11.7812C19.1768 11.7812 18.8668 11.9097 18.6382 12.1382C18.4097 12.3668 18.2812 12.6768 18.2812 13V19.5C18.2812 20.1728 18.8273 20.7188 19.5 20.7188H26C26.3232 20.7188 26.6332 20.5903 26.8618 20.3618C27.0903 20.1332 27.2188 19.8232 27.2188 19.5C27.2188 19.1768 27.0903 18.8668 26.8618 18.6382C26.6332 18.4097 26.3232 18.2812 26 18.2812H22.4413L34.5312 6.19125V11.934C34.5312 12.2572 34.6597 12.5672 34.8882 12.7958C35.1168 13.0243 35.4268 13.1528 35.75 13.1528C36.0732 13.1528 36.3832 13.0243 36.6118 12.7958C36.8403 12.5672 36.9688 12.2572 36.9688 11.934V3.25C36.9688 2.92677 36.8403 2.61677 36.6118 2.38821C36.3832 2.15965 36.0732 2.03125 35.75 2.03125H27.066C26.7428 2.03125 26.4328 2.15965 26.2042 2.38821C25.9757 2.61677 25.8472 2.92677 25.8472 3.25Z" fill="#4B4B4B"/>
</svg>
