<svg width="12" height="9" viewBox="0 0 12 9" fill="none" xmlns="http://www.w3.org/2000/svg">
<path d="M1.79079 -7.14646e-05L10.2108 -7.07285e-05C10.5432 -0.000552305 10.869 0.0931148 11.1503 0.270088C11.4317 0.447061 11.6572 0.700105 11.8008 0.999929C11.9688 1.35567 12.0335 1.75146 11.9876 2.1422C11.9416 2.53293 11.7868 2.9029 11.5408 3.20993L7.33079 8.30993C7.16557 8.50056 6.9613 8.65344 6.73183 8.75823C6.50236 8.86301 6.25305 8.91724 6.00079 8.91724C5.74852 8.91724 5.49921 8.86301 5.26974 8.75823C5.04027 8.65344 4.836 8.50056 4.67079 8.30993L0.460784 3.20993C0.214778 2.9029 0.0599705 2.53293 0.0140015 2.1422C-0.0319675 1.75146 0.0327537 1.35567 0.200786 0.999928C0.344328 0.700104 0.569845 0.447061 0.851232 0.270087C1.13262 0.0931139 1.45837 -0.000553099 1.79079 -7.14646e-05Z" fill="black"/>
</svg>
