<svg width="53" height="54" viewBox="0 0 53 54" fill="none" xmlns="http://www.w3.org/2000/svg">
<g clip-path="url(#clip0_1016_10058)">
<path d="M45.2265 8.19858C42.7676 5.73499 39.8464 3.78128 36.6305 2.44959C33.4146 1.11791 29.9673 0.434463 26.4866 0.438494C11.8498 0.438494 -0.015625 12.3039 -0.015625 26.9407C-0.015625 34.2591 2.95238 40.8863 7.74887 45.6828C10.2078 48.1464 13.129 50.1001 16.3449 51.4318C19.5608 52.7635 23.0081 53.4469 26.4888 53.4429C41.1256 53.4429 52.991 41.5775 52.991 26.9407C52.991 19.6223 50.023 12.9951 45.2265 8.19858ZM41.8212 42.2665C39.8092 44.2819 37.4191 45.8804 34.788 46.9702C32.1569 48.0601 29.3366 48.6199 26.4888 48.6177C14.513 48.6177 4.80517 38.9099 4.80517 26.9341C4.80293 24.0862 5.36279 21.2659 6.45265 18.6349C7.54252 16.0038 9.14095 13.6137 11.1563 11.6016C13.1682 9.5865 15.5579 7.98822 18.1886 6.89836C20.8192 5.8085 23.6391 5.2485 26.4866 5.25045C38.4602 5.25045 48.168 14.9583 48.168 26.9319C48.1699 29.7794 47.6099 32.5992 46.5201 35.2299C45.4302 37.8606 43.832 40.2503 41.8168 42.2621L41.8212 42.2665Z" fill="black"/>
<path d="M29.8939 26.943L38.4071 18.4298C38.827 17.9721 39.0539 17.3699 39.0405 16.7488C39.027 16.1278 38.7742 15.536 38.3348 15.0969C37.8954 14.6578 37.3034 14.4054 36.6824 14.3923C36.0614 14.3792 35.4593 14.6066 35.0018 15.0268L35.004 15.0246L26.4909 23.5377L17.9778 15.0246C17.52 14.6046 16.9178 14.3777 16.2968 14.3912C15.6758 14.4047 15.0839 14.6575 14.6448 15.0968C14.2057 15.5362 13.9533 16.1282 13.9403 16.7493C13.9272 17.3703 14.1545 17.9724 14.5747 18.4298L14.5725 18.4276L23.0857 26.9407L14.5725 35.4539C14.333 35.6736 14.1404 35.9396 14.0064 36.2357C13.8723 36.5318 13.7996 36.852 13.7926 37.177C13.7855 37.502 13.8443 37.825 13.9654 38.1267C14.0865 38.4283 14.2673 38.7024 14.4971 38.9323C14.7269 39.1622 15.0008 39.3433 15.3024 39.4645C15.604 39.5858 15.927 39.6448 16.2519 39.638C16.5769 39.6311 16.8972 39.5586 17.1934 39.4248C17.4896 39.2909 17.7557 39.0985 17.9756 38.8591L17.9778 38.8569L26.4909 30.3438L35.004 38.8569C35.2238 39.0964 35.4897 39.289 35.7858 39.4231C36.082 39.5571 36.4022 39.6298 36.7271 39.6369C37.0521 39.6439 37.3752 39.5851 37.6768 39.4641C37.9785 39.343 38.2525 39.1621 38.4824 38.9323C38.7124 38.7026 38.8934 38.4286 39.0147 38.1271C39.136 37.8255 39.195 37.5025 39.1881 37.1775C39.1813 36.8525 39.1088 36.5323 38.9749 36.2361C38.8411 35.9398 38.6487 35.6738 38.4093 35.4539L38.4071 35.4517L29.8939 26.943Z" fill="black"/>
</g>
<defs>
<clipPath id="clip0_1016_10058">
<rect width="53" height="53" fill="white" transform="translate(0 0.443359)"/>
</clipPath>
</defs>
</svg>
