<svg width="39" height="29" viewBox="0 0 39 29" fill="none" xmlns="http://www.w3.org/2000/svg">
<path d="M39 4.74998V2.40803C38.9995 1.99496 38.8352 1.59897 38.5431 1.30689C38.251 1.01481 37.855 0.850493 37.442 0.849977H1.56195C1.35709 0.849721 1.15418 0.889817 0.964816 0.967978C0.77545 1.04614 0.603334 1.16083 0.458293 1.30551C0.313253 1.45019 0.198129 1.62202 0.119495 1.81119C0.0408612 2.00036 0.000257138 2.20316 1.22039e-06 2.40803V4.74998H3.9V8.64998H1.22039e-06V12.55H3.9V16.45H1.22039e-06V20.35H3.9V24.25H1.22039e-06V26.588C-0.000255428 26.7932 0.0399704 26.9964 0.118375 27.1861C0.196779 27.3757 0.311822 27.548 0.456913 27.6931C0.602005 27.8382 0.774295 27.9532 0.963915 28.0316C1.15354 28.11 1.35676 28.1502 1.56195 28.15H37.442C37.6468 28.1497 37.8496 28.1091 38.0388 28.0305C38.228 27.9518 38.3998 27.8367 38.5445 27.6917C38.6891 27.5466 38.8038 27.3745 38.882 27.1852C38.9602 26.9958 39.0003 26.7929 39 26.588V24.25H35.1V20.35H39V16.45H35.1V12.55H39V8.64998H35.1V4.74998H39ZM15.6 20.35V8.64998L25.35 14.5L15.6 20.35Z" fill="black"/>
</svg>
