<svg width="12" height="9" viewBox="0 0 12 9" fill="none" xmlns="http://www.w3.org/2000/svg">
<path d="M10.2112 8.99999L1.79117 8.99999C1.45876 9.00048 1.133 8.90681 0.851615 8.72984C0.570227 8.55286 0.344711 8.29982 0.201169 7.99999C0.0331361 7.64425 -0.0315831 7.24846 0.0143857 6.85773C0.0603546 6.46699 0.215163 6.09703 0.461169 5.78999L4.67117 0.689994C4.83638 0.499364 5.04065 0.346478 5.27012 0.241697C5.49959 0.136915 5.74891 0.0826867 6.00117 0.0826867C6.25343 0.0826866 6.50274 0.136915 6.73222 0.241697C6.96169 0.346478 7.16595 0.499364 7.33117 0.689994L11.5412 5.78999C11.7872 6.09702 11.942 6.46699 11.988 6.85773C12.0339 7.24846 11.9692 7.64425 11.8012 7.99999C11.6576 8.29982 11.4321 8.55286 11.1507 8.72983C10.8693 8.90681 10.5436 9.00047 10.2112 8.99999Z" fill="#797979"/>
</svg>
