<svg width="40" height="40" viewBox="0 0 40 40" fill="none" xmlns="http://www.w3.org/2000/svg">
<rect x="40" y="40" width="40" height="40" rx="10" transform="rotate(-180 40 40)" fill="#3D3D3D"/>
<path d="M24 15.7901L24 24.2101C24.0005 24.5425 23.9068 24.8682 23.7298 25.1496C23.5529 25.431 23.2998 25.6565 23 25.8001C22.6443 25.9681 22.2485 26.0328 21.8577 25.9868C21.467 25.9409 21.097 25.7861 20.79 25.5401L15.69 21.3301C15.4994 21.1648 15.3465 20.9606 15.2417 20.7311C15.1369 20.5016 15.0827 20.2523 15.0827 20.0001C15.0827 19.7478 15.1369 19.4985 15.2417 19.269C15.3465 19.0395 15.4994 18.8353 15.69 18.6701L20.79 14.4601C21.097 14.214 21.467 14.0592 21.8577 14.0133C22.2485 13.9673 22.6443 14.032 23 14.2001C23.2998 14.3436 23.5529 14.5691 23.7298 14.8505C23.9068 15.1319 24.0005 15.4576 24 15.7901Z" fill="white"/>
</svg>
