<svg width="12" height="9" viewBox="0 0 12 9" fill="none" xmlns="http://www.w3.org/2000/svg">
<path d="M1.78883 -8.07594e-06L10.2088 -9.2805e-06C10.5412 -0.000490934 10.867 0.0931761 11.1484 0.270149C11.4298 0.447123 11.6553 0.700166 11.7988 0.99999C11.9669 1.35573 12.0316 1.75152 11.9856 2.14226C11.9396 2.53299 11.7848 2.90296 11.5388 3.20999L7.32883 8.30999C7.16362 8.50062 6.95935 8.65351 6.72988 8.75829C6.50041 8.86307 6.25109 8.9173 5.99883 8.9173C5.74657 8.9173 5.49726 8.86307 5.26778 8.75829C5.03831 8.65351 4.83405 8.50062 4.66883 8.30999L0.45883 3.20999C0.212824 2.90296 0.0580159 2.533 0.0120468 2.14226C-0.0339223 1.75152 0.0307988 1.35573 0.198831 0.999992C0.342373 0.700167 0.56789 0.447124 0.849277 0.270151C1.13066 0.0931774 1.45642 -0.000489634 1.78883 -8.07594e-06Z" fill="#797979"/>
</svg>
