<svg width="9" height="12" viewBox="0 0 9 12" fill="none" xmlns="http://www.w3.org/2000/svg">
<path d="M9.00324 1.79005L9.00324 10.2101C9.00373 10.5425 8.91006 10.8682 8.73309 11.1496C8.55611 11.431 8.30307 11.6565 8.00324 11.8001C7.6475 11.9681 7.25171 12.0328 6.86098 11.9868C6.47024 11.9409 6.10028 11.7861 5.79324 11.5401L0.693244 7.33005C0.502614 7.16484 0.349728 6.96057 0.244946 6.7311C0.140165 6.50163 0.0859362 6.25232 0.0859362 6.00005C0.0859361 5.74779 0.140164 5.49848 0.244946 5.26901C0.349727 5.03953 0.502613 4.83527 0.693243 4.67005L5.79324 0.46005C6.10027 0.214044 6.47024 0.0592361 6.86097 0.013267C7.25171 -0.0327021 7.6475 0.0320189 8.00324 0.200051C8.30307 0.343593 8.55611 0.56911 8.73308 0.850497C8.91006 1.13188 9.00372 1.45764 9.00324 1.79005Z" fill="#ffffff"/>
</svg>
