<svg width="79" height="52" viewBox="0 0 79 52" fill="none" xmlns="http://www.w3.org/2000/svg">
<rect x="79" y="52" width="79" height="52" rx="10" transform="rotate(-180 79 52)" fill="white"/>
<path d="M34.9997 30.2102L34.9997 21.7902C34.9992 21.4578 35.0929 21.132 35.2698 20.8506C35.4468 20.5692 35.6999 20.3437 35.9997 20.2002C36.3554 20.0322 36.7512 19.9674 37.142 20.0134C37.5327 20.0594 37.9027 20.2142 38.2097 20.4602L43.3097 24.6702C43.5003 24.8354 43.6532 25.0397 43.758 25.2691C43.8628 25.4986 43.917 25.7479 43.917 26.0002C43.917 26.2525 43.8628 26.5018 43.758 26.7312C43.6532 26.9607 43.5003 27.165 43.3097 27.3302L38.2097 31.5402C37.9027 31.7862 37.5327 31.941 37.142 31.987C36.7512 32.0329 36.3554 31.9682 35.9997 31.8002C35.6999 31.6566 35.4468 31.4311 35.2698 31.1497C35.0929 30.8684 34.9992 30.5426 34.9997 30.2102Z" fill="#797979"/>
</svg>
