<svg width="9" height="12" viewBox="0 0 9 12" fill="none" xmlns="http://www.w3.org/2000/svg">
<path d="M-0.00324306 10.2099L-0.00324417 1.78995C-0.00372581 1.45754 0.0899412 1.13178 0.266914 0.850395C0.443888 0.569007 0.696931 0.34349 0.996755 0.199948C1.3525 0.0319155 1.74829 -0.0328037 2.13902 0.0131651C2.52976 0.0591339 2.89972 0.213942 3.20676 0.459948L8.30676 4.66995C8.49739 4.83516 8.65027 5.03943 8.75505 5.2689C8.85983 5.49837 8.91406 5.74768 8.91406 5.99995C8.91406 6.25221 8.85984 6.50152 8.75505 6.73099C8.65027 6.96047 8.49739 7.16473 8.30676 7.32995L3.20676 11.5399C2.89973 11.786 2.52976 11.9408 2.13902 11.9867C1.74829 12.0327 1.3525 11.968 0.996757 11.7999C0.696932 11.6564 0.443889 11.4309 0.266916 11.1495C0.0899425 10.8681 -0.00372462 10.5424 -0.00324306 10.2099Z" fill="#ffffff"/>
</svg>
