<svg width="60" height="40" viewBox="0 0 60 40" fill="none" xmlns="http://www.w3.org/2000/svg">
<rect width="60" height="40" rx="10" fill="#F3F3F3"/>
<path d="M26.0007 24.2112L26.0007 15.7912C26.0002 15.4588 26.0938 15.133 26.2708 14.8516C26.4478 14.5702 26.7008 14.3447 27.0007 14.2012C27.3564 14.0331 27.7522 13.9684 28.1429 14.0144C28.5337 14.0604 28.9036 14.2152 29.2107 14.4612L34.3107 18.6712C34.5013 18.8364 34.6542 19.0406 34.759 19.2701C34.8637 19.4996 34.918 19.7489 34.918 20.0012C34.918 20.2534 34.8637 20.5027 34.759 20.7322C34.6542 20.9617 34.5013 21.166 34.3107 21.3312L29.2107 25.5412C28.9036 25.7872 28.5337 25.942 28.1429 25.988C27.7522 26.0339 27.3564 25.9692 27.0007 25.8012C26.7008 25.6576 26.4478 25.4321 26.2708 25.1507C26.0938 24.8693 26.0002 24.5436 26.0007 24.2112Z" fill="#797979"/>
</svg>
