<svg width="52" height="52" viewBox="0 0 52 52" fill="none" xmlns="http://www.w3.org/2000/svg">
<rect x="52" y="52" width="52" height="52" rx="10" transform="rotate(-180 52 52)" fill="white"/>
<path d="M30.0003 21.7898L30.0003 30.2098C30.0008 30.5422 29.9071 30.868 29.7302 31.1494C29.5532 31.4308 29.3001 31.6563 29.0003 31.7998C28.6446 31.9678 28.2488 32.0326 27.858 31.9866C27.4673 31.9406 27.0973 31.7858 26.7903 31.5398L21.6903 27.3298C21.4997 27.1646 21.3468 26.9603 21.242 26.7309C21.1372 26.5014 21.083 26.2521 21.083 25.9998C21.083 25.7475 21.1372 25.4982 21.242 25.2688C21.3468 25.0393 21.4997 24.835 21.6903 24.6698L26.7903 20.4598C27.0973 20.2138 27.4673 20.059 27.858 20.013C28.2488 19.9671 28.6446 20.0318 29.0003 20.1998C29.3001 20.3434 29.5532 20.5689 29.7302 20.8503C29.9071 21.1316 30.0008 21.4574 30.0003 21.7898Z" fill="#797979"/>
</svg>
