<svg width="60" height="40" viewBox="0 0 60 40" fill="none" xmlns="http://www.w3.org/2000/svg">
<rect x="60" y="40" width="60" height="40" rx="10" transform="rotate(-180 60 40)" fill="#F3F3F3"/>
<path d="M26 24.2099L26 15.7899C25.9995 15.4575 26.0932 15.1318 26.2702 14.8504C26.4471 14.569 26.7002 14.3435 27 14.1999C27.3557 14.0319 27.7515 13.9672 28.1423 14.0132C28.533 14.0591 28.903 14.2139 29.21 14.4599L34.31 18.6699C34.5006 18.8352 34.6535 19.0394 34.7583 19.2689C34.8631 19.4984 34.9173 19.7477 34.9173 19.9999C34.9173 20.2522 34.8631 20.5015 34.7583 20.731C34.6535 20.9605 34.5006 21.1647 34.31 21.3299L29.21 25.5399C28.903 25.786 28.533 25.9408 28.1423 25.9867C27.7515 26.0327 27.3557 25.968 27 25.7999C26.7002 25.6564 26.4471 25.4309 26.2702 25.1495C26.0932 24.8681 25.9995 24.5424 26 24.2099Z" fill="#797979"/>
</svg>
