<svg width="40" height="40" viewBox="0 0 40 40" fill="none" xmlns="http://www.w3.org/2000/svg">
<rect x="40" y="40" width="40" height="40" rx="10" transform="rotate(-180 40 40)" fill="#F3F3F3"/>
<path d="M23.9993 15.7901L23.9993 24.2101C23.9998 24.5425 23.9062 24.8682 23.7292 25.1496C23.5522 25.431 23.2992 25.6565 22.9993 25.8001C22.6436 25.9681 22.2478 26.0328 21.8571 25.9868C21.4663 25.9409 21.0964 25.7861 20.7893 25.5401L15.6893 21.3301C15.4987 21.1648 15.3458 20.9606 15.241 20.7311C15.1363 20.5016 15.082 20.2523 15.082 20.0001C15.082 19.7478 15.1363 19.4985 15.241 19.269C15.3458 19.0395 15.4987 18.8353 15.6893 18.6701L20.7893 14.4601C21.0964 14.214 21.4663 14.0592 21.8571 14.0133C22.2478 13.9673 22.6436 14.032 22.9993 14.2001C23.2992 14.3436 23.5522 14.5691 23.7292 14.8505C23.9062 15.1319 23.9998 15.4576 23.9993 15.7901Z" fill="#797979"/>
</svg>
